<?xml version="1.0" encoding="utf-8"?>
<!-- Generator: Adobe Illustrator 16.0.0, SVG Export Plug-In . SVG Version: 6.00 Build 0)  -->
<!DOCTYPE svg PUBLIC "-//W3C//DTD SVG 1.1//EN" "http://www.w3.org/Graphics/SVG/1.1/DTD/svg11.dtd">
<svg version="1.1" id="Capa_1" xmlns="http://www.w3.org/2000/svg" xmlns:xlink="http://www.w3.org/1999/xlink" x="0px" y="0px"
	 width="504.682px" height="296.931px" viewBox="0 0 504.682 296.931" enable-background="new 0 0 504.682 296.931"
	 xml:space="preserve">
<g>
	<g>
		<path d="M136.123,241.65h1.41v1.539h-1.41V241.65z M136.123,245.751h1.41v10.479h-1.41V245.751z"/>
		<path d="M151.24,256.229v-10.479l1.205,0.972c0.802-0.836,1.793-1.254,2.972-1.254c1.179,0,2.169,0.4,2.973,1.203
			c0.802,0.804,1.204,1.794,1.204,2.974v6.584h-1.409v-6.584c0-0.802-0.27-1.466-0.807-1.986c-0.539-0.521-1.192-0.782-1.96-0.782
			c-0.769,0-1.422,0.27-1.96,0.807c-0.538,0.538-0.807,1.192-0.807,1.961v6.584H151.24z"/>
		<path d="M188.188,256.229h-1.409v-6.687c0-0.802-0.265-1.447-0.794-1.935c-0.53-0.486-1.153-0.73-1.871-0.73
			c-0.7,0-1.32,0.244-1.857,0.73c-0.538,0.488-0.808,1.133-0.808,1.935v6.687h-1.409v-6.687c0-0.802-0.265-1.447-0.794-1.935
			c-0.53-0.486-1.153-0.73-1.871-0.73c-0.7,0-1.319,0.244-1.857,0.73c-0.539,0.488-0.807,1.133-0.807,1.935v6.687h-1.41v-10.479
			l1.179,0.921c0.803-0.803,1.768-1.203,2.895-1.203c0.684,0,1.333,0.162,1.947,0.486c0.616,0.325,1.093,0.752,1.436,1.281
			c0.82-1.18,1.938-1.767,3.356-1.767c0.598,0,1.14,0.111,1.627,0.333c0.487,0.221,0.906,0.507,1.256,0.857
			c0.35,0.351,0.636,0.769,0.857,1.257c0.222,0.486,0.333,1.028,0.333,1.626V256.229z"/>
		<path d="M207.047,245.469c1.537,0,2.843,0.538,3.92,1.614c1.076,1.075,1.614,2.382,1.614,3.919c0,1.505-0.538,2.803-1.614,3.895
			c-1.077,1.093-2.383,1.641-3.92,1.641c-1.504,0-2.802-0.548-3.895-1.641c-1.094-1.092-1.64-2.39-1.64-3.895
			c0-1.537,0.546-2.844,1.64-3.919C204.245,246.007,205.543,245.469,207.047,245.469z M207.047,246.877
			c-1.163,0-2.14,0.397-2.934,1.192c-0.794,0.795-1.191,1.773-1.191,2.933c0,1.163,0.397,2.141,1.191,2.935
			c0.794,0.793,1.771,1.191,2.934,1.191c1.144,0,2.118-0.401,2.921-1.204c0.802-0.803,1.205-1.778,1.205-2.922
			c0-1.144-0.402-2.117-1.205-2.919C209.165,247.28,208.191,246.877,207.047,246.877z"/>
		<path d="M227.264,240.215h-1.742l0.769-1.408h2.382v8.507c1.111-1.229,2.486-1.844,4.125-1.844c1.538,0,2.845,0.538,3.92,1.614
			c1.077,1.075,1.614,2.382,1.614,3.919c0,1.505-0.538,2.803-1.614,3.895c-1.076,1.093-2.382,1.641-3.92,1.641
			c-1.554,0-2.887-0.572-3.997-1.717l-1.538,1.408V240.215z M232.798,246.877c-1.145,0-2.118,0.403-2.921,1.206
			c-0.803,0.802-1.205,1.776-1.205,2.919c0,1.145,0.401,2.12,1.205,2.922c0.803,0.803,1.776,1.204,2.921,1.204
			c1.162,0,2.14-0.398,2.934-1.191c0.794-0.793,1.191-1.772,1.191-2.935c0-1.16-0.397-2.138-1.191-2.933
			C234.938,247.274,233.959,246.877,232.798,246.877z"/>
		<path d="M251.657,241.65h1.41v1.539h-1.41V241.65z M251.657,245.751h1.41v10.479h-1.41V245.751z"/>
		<path d="M266.774,256.229v-17.423h1.41v17.423H266.774z"/>
		<path d="M281.892,241.65h1.41v1.539h-1.41V241.65z M281.892,245.751h1.41v10.479h-1.41V245.751z"/>
		<path d="M306.157,254.821c-1.11,1.145-2.442,1.717-3.997,1.717c-1.504,0-2.802-0.548-3.895-1.641
			c-1.094-1.092-1.64-2.39-1.64-3.895c0-1.537,0.546-2.844,1.64-3.919c1.092-1.077,2.391-1.614,3.895-1.614
			c1.554,0,2.886,0.572,3.997,1.716l1.538-1.434v10.479L306.157,254.821z M302.16,246.877c-1.162,0-2.14,0.397-2.934,1.192
			c-0.794,0.795-1.191,1.773-1.191,2.933c0,1.163,0.397,2.141,1.191,2.935c0.794,0.793,1.772,1.191,2.934,1.191
			c1.144,0,2.118-0.401,2.921-1.204c0.803-0.803,1.205-1.778,1.205-2.922c0-1.144-0.402-2.117-1.205-2.919
			C304.278,247.28,303.304,246.877,302.16,246.877z"/>
		<path d="M326.886,245.724l-0.641,1.257c-0.205-0.068-0.453-0.103-0.743-0.103c-0.786,0-1.431,0.265-1.935,0.793
			c-0.504,0.53-0.755,1.163-0.755,1.897v6.661h-1.41v-10.479l1.179,0.948c0.786-0.82,1.759-1.229,2.921-1.229
			C326.014,245.469,326.476,245.554,326.886,245.724z"/>
		<path d="M340.209,241.65h1.41v1.539h-1.41V241.65z M340.209,245.751h1.41v10.479h-1.41V245.751z"/>
		<path d="M364.474,254.821c-1.11,1.145-2.441,1.717-3.996,1.717c-1.504,0-2.803-0.548-3.895-1.641
			c-1.095-1.092-1.641-2.39-1.641-3.895c0-1.537,0.546-2.844,1.641-3.919c1.092-1.077,2.391-1.614,3.895-1.614
			c1.555,0,2.886,0.572,3.996,1.716l1.538-1.434v10.479L364.474,254.821z M360.478,246.877c-1.161,0-2.14,0.397-2.934,1.192
			c-0.795,0.795-1.192,1.773-1.192,2.933c0,1.163,0.397,2.141,1.192,2.935c0.794,0.793,1.772,1.191,2.934,1.191
			c1.143,0,2.118-0.401,2.921-1.204s1.205-1.778,1.205-2.922c0-1.144-0.402-2.117-1.205-2.919
			C362.596,247.28,361.62,246.877,360.478,246.877z"/>
	</g>
	<g>
		<rect x="238.034" y="75.198" width="2.136" height="5.235"/>
		<polygon points="240.17,88.441 240.17,83.205 238.034,83.205 238.034,86.456 238.034,88.441 239.583,88.441 		"/>
		<polygon points="240.17,67.191 238.034,68.563 238.034,72.419 240.17,72.419 		"/>
		<rect x="238.034" y="99.229" width="2.136" height="5.232"/>
		<rect x="238.034" y="91.217" width="2.136" height="5.233"/>
		<rect x="238.034" y="107.237" width="2.136" height="5.232"/>
		<rect x="219.749" y="133.273" width="1.597" height="3.908"/>
		<rect x="219.749" y="127.289" width="1.597" height="3.908"/>
		<rect x="219.749" y="91.388" width="1.597" height="3.911"/>
		<rect x="219.749" y="97.375" width="1.597" height="3.907"/>
		<polygon points="221.346,85.407 219.749,86.431 219.749,89.312 221.346,89.312 		"/>
		<rect x="219.749" y="103.359" width="1.597" height="3.904"/>
		<rect x="219.749" y="121.308" width="1.597" height="3.908"/>
		<rect x="219.749" y="109.341" width="1.597" height="3.907"/>
		<rect x="238.034" y="115.243" width="2.136" height="5.235"/>
		<rect x="219.749" y="115.32" width="1.597" height="3.911"/>
		<rect x="269.2" y="112.01" width="1.213" height="2.963"/>
		<rect x="238.034" y="123.256" width="2.136" height="5.232"/>
		<rect x="269.2" y="125.625" width="1.213" height="2.968"/>
		<rect x="269.2" y="121.088" width="1.213" height="2.968"/>
		<rect x="269.2" y="116.55" width="1.213" height="2.96"/>
		<path d="M251.067,51.166c-29.45,0-53.324,23.875-53.324,53.325s23.875,53.326,53.324,53.326c29.449,0,53.324-23.876,53.324-53.326
			S280.517,51.166,251.067,51.166z M223.789,139.203h-6.454V83.502l6.454-4.143V139.203z M243.448,139.203h-3.141h-5.506h-8.868
			v-2.379h8.868v-2.074h-8.868v-3.365c0,0,2.503-0.121,5.318,0.059c1.557,0.098,2.704,0.185,3.55,0.26v-2.04
			c-0.988-0.139-2.251-0.23-3.788-0.315c-2.965-0.168-5.081,0.151-5.081,0.151v-3.552c0,0,3.201,0.079,6.013,0.275
			c1.214,0.097,2.14,0.21,2.855,0.339v-1.875c-0.722-0.167-1.66-0.318-2.887-0.473c-2.944-0.373-5.981-0.406-5.981-0.406v-3.237
			c0,0,3.172,0.259,5.987,0.406c1.225,0.063,2.162,0.206,2.881,0.386v-1.988c-0.735-0.221-1.697-0.383-2.957-0.46
			c-2.961-0.185-5.911-0.484-5.911-0.484v-3.343c0,0,3.172,0.475,5.987,0.639c1.225,0.074,2.162,0.241,2.881,0.458v-1.908
			c-0.735-0.28-1.697-0.494-2.957-0.611c-2.952-0.285-5.911-0.718-5.911-0.718v-3.31c0,0,3.182,0.569,5.987,0.837
			c1.225,0.12,2.162,0.354,2.881,0.644v-2.048c-0.735-0.3-1.697-0.524-2.957-0.657c-2.948-0.305-5.911-0.916-5.911-0.916v-3.41
			c0,0,1.706,0.481,5.964,1.07c1.235,0.168,2.178,0.465,2.904,0.807v-2.074c-0.735-0.305-1.697-0.542-2.957-0.703
			c-2.942-0.379-5.911-1.245-5.911-1.245v-3.238c0,0,1.698,0.77,5.964,1.278c1.235,0.148,2.178,0.443,2.904,0.806v-2.114
			c-0.735-0.354-1.697-0.625-2.957-0.787c-2.942-0.377-5.911-1.324-5.911-1.324v-3.281c0,0,1.804,0.525,6.041,1.228
			c1.205,0.2,2.116,0.539,2.827,0.94v-2.034c-0.735-0.354-1.697-0.633-2.957-0.821c-2.933-0.44-5.911-1.454-5.911-1.454v-3.492
			c0,0,1.884,0.899,6.144,1.493c1.152,0.161,2.035,0.479,2.724,0.878v-1.936c-0.735-0.373-1.697-0.665-2.957-0.854
			c-2.931-0.445-5.911-1.728-5.911-1.728v-6.146c1.478,2.547,3.745,3.925,7.694,4.867c0.407,0.099,0.796,0.215,1.174,0.347V64.641
			l8.647-5.551V139.203z M265.555,139.203h-19.244v-3.185h15.096v-2.774h-15.096v-4.506c0,0,3.354-0.164,7.125,0.079
			c7.972,0.507,7.958,0.763,7.958,0.763c0-1.29,0-2.195-0.625-2.512c-1.158-0.591-3.787-0.844-7.658-1.059
			c-3.962-0.221-6.799,0.205-6.799,0.205v-4.752c0,0,4.285,0.1,8.053,0.371c7.043,0.515,7.03,1.726,7.03,1.726
			c0-2.625,0.136-3.51-7.074-4.417c-3.943-0.498-8.009-0.545-8.009-0.545v-4.329c0,0,4.248,0.344,8.017,0.536
			c7.079,0.372,7.066,2.7,7.066,2.7c0-2.629,0-5.018-7.165-5.46c-3.966-0.244-7.918-0.641-7.918-0.641v-4.482
			c0,0,4.248,0.639,8.017,0.857c7.079,0.411,7.066,3.277,7.066,3.277c0-2.419,0.013-5.359-7.165-6.042
			c-3.954-0.375-7.918-0.958-7.918-0.958v-4.428c0,0,4.26,0.762,8.017,1.125c7.079,0.685,7.066,4.229,7.066,4.229
			c0-3.206,0.013-6.247-7.165-6.995c-3.951-0.412-7.918-1.226-7.918-1.226v-4.564c0,0,2.291,0.641,7.984,1.431
			c7.112,0.983,7.099,4.973,7.099,4.973c0-4.017,0.013-6.684-7.165-7.609c-3.939-0.502-7.918-1.663-7.918-1.663V84.99
			c0,0,2.272,1.031,7.984,1.716c7.112,0.848,7.099,5.297,7.099,5.297c0-3.631,0.013-7.187-7.165-8.104
			c-3.939-0.506-7.918-1.778-7.918-1.778v-4.385c0,0,2.419,0.698,8.091,1.642c7.005,1.164,6.992,5.814,6.992,5.814
			c0-4.095,0.013-7.303-7.165-8.377c-3.928-0.593-7.918-1.945-7.918-1.945v-4.678c0,0,2.528,1.211,8.222,2.002
			c6.874,0.957,6.861,6.072,6.861,6.072c0-4.058,0.013-7.538-7.165-8.632c-3.925-0.597-7.918-2.306-7.918-2.306V59.09
			c1.981,3.415,5.012,5.256,10.306,6.52c5.288,1.26,8.938,4.945,8.938,9.588C265.555,79.842,265.555,139.203,265.555,139.203z
			 M272.27,139.203h-4.898V96.948l4.898-3.142V139.203z M284.797,139.203h-10.906v-1.807h8.559v-1.57h-8.559v-2.553
			c0,0,1.901-0.092,4.037,0.041c4.521,0.291,4.514,0.436,4.514,0.436c0-0.731,0-1.242-0.357-1.423
			c-0.657-0.338-2.143-0.476-4.338-0.6c-2.247-0.13-3.855,0.113-3.855,0.113v-2.692c0,0,2.431,0.059,4.564,0.213
			c3.995,0.291,3.987,0.975,3.987,0.975c0-1.492,0.075-1.99-4.012-2.501c-2.233-0.282-4.539-0.309-4.539-0.309v-2.453
			c0,0,2.41,0.192,4.545,0.308c4.014,0.208,4.006,1.522,4.006,1.522c0-1.487,0-2.841-4.06-3.091
			c-2.249-0.136-4.491-0.362-4.491-0.362v-2.538c0,0,2.41,0.36,4.545,0.484c4.014,0.23,4.006,1.856,4.006,1.856
			c0-1.375,0.008-3.039-4.06-3.422c-2.245-0.215-4.491-0.545-4.491-0.545v-2.511c0,0,2.416,0.435,4.545,0.638
			c4.014,0.383,4.006,2.397,4.006,2.397c0-1.817,0.008-3.537-4.06-3.961c-2.242-0.236-4.491-0.699-4.491-0.699v-2.583
			c0,0,1.297,0.365,4.526,0.812c4.032,0.554,4.024,2.816,4.024,2.816c0-2.277,0.008-3.792-4.06-4.313
			c-2.235-0.285-4.491-0.941-4.491-0.941v-2.459c0,0,1.292,0.588,4.526,0.975c4.032,0.479,4.024,2.999,4.024,2.999
			c0-2.058,0.008-4.072-4.06-4.594c-2.235-0.282-4.491-1.002-4.491-1.002v-2.486c0,0,1.371,0.396,4.587,0.93
			c3.972,0.657,3.964,3.296,3.964,3.296c0-2.321,0.008-4.137-4.06-4.75c-2.229-0.332-4.491-1.103-4.491-1.103v-2.648
			c0,0,1.432,0.686,4.663,1.133c3.896,0.542,3.888,3.445,3.888,3.445c0-2.305,0.008-4.273-4.06-4.891
			c-2.229-0.339-4.491-1.311-4.491-1.311v-4.666c1.126,1.932,2.843,2.979,5.84,3.693c2.995,0.715,5.065,2.804,5.065,5.433
			C284.797,105.564,284.797,139.203,284.797,139.203z"/>
		<rect x="269.2" y="134.704" width="1.213" height="2.965"/>
		<rect x="269.2" y="130.166" width="1.213" height="2.963"/>
		<rect x="238.034" y="131.264" width="2.136" height="5.234"/>
		<polygon points="270.414,98.395 269.2,99.168 269.2,101.358 270.414,101.358 		"/>
		<rect x="269.2" y="107.472" width="1.213" height="2.965"/>
		<rect x="269.2" y="102.933" width="1.213" height="2.966"/>
		<path d="M251.067,43.575c-33.586,0-60.916,27.326-60.916,60.916c0,33.585,27.33,60.913,60.916,60.913
			c33.587,0,60.916-27.327,60.916-60.913C311.983,70.9,284.655,43.575,251.067,43.575z M251.067,161.224
			c-31.283,0-56.736-25.45-56.736-56.733c0-31.286,25.453-56.735,56.736-56.735c31.28,0,56.731,25.449,56.731,56.735
			C307.798,135.774,282.347,161.224,251.067,161.224z"/>
	</g>
	<g>
		<path d="M171.677,202.105c0,3.882-0.69,7.5-2.072,10.855s-3.306,6.251-5.773,8.684c-2.467,2.435-5.363,4.343-8.684,5.724
			c-3.323,1.381-6.958,2.072-10.905,2.072c-3.948,0-7.583-0.69-10.905-2.072c-3.323-1.381-6.217-3.289-8.684-5.724
			c-2.467-2.433-4.392-5.329-5.773-8.684s-2.073-6.973-2.073-10.855c0-3.881,0.691-7.482,2.073-10.806
			c1.381-3.32,3.306-6.217,5.773-8.684c2.467-2.468,5.361-4.391,8.684-5.772c3.322-1.382,6.957-2.075,10.905-2.075
			c3.947,0,7.582,0.692,10.905,2.075c3.321,1.381,6.217,3.304,8.684,5.772c2.467,2.467,4.391,5.364,5.773,8.684
			C170.987,194.623,171.677,198.224,171.677,202.105z M165.46,202.105c0-3.025-0.543-5.855-1.628-8.487
			c-1.086-2.63-2.566-4.885-4.441-6.759c-1.875-1.875-4.112-3.355-6.71-4.44c-2.6-1.087-5.412-1.629-8.438-1.629
			c-3.027,0-5.823,0.542-8.388,1.629c-2.565,1.084-4.786,2.565-6.662,4.44c-1.875,1.875-3.355,4.129-4.44,6.759
			c-1.086,2.632-1.628,5.462-1.628,8.487c0,3.094,0.542,5.939,1.628,8.537c1.085,2.599,2.566,4.835,4.44,6.709
			c1.875,1.876,4.096,3.355,6.662,4.441c2.565,1.084,5.361,1.628,8.388,1.628c3.025,0,5.837-0.544,8.438-1.628
			c2.598-1.086,4.835-2.565,6.71-4.441c1.875-1.875,3.355-4.111,4.441-6.709C164.917,208.044,165.46,205.199,165.46,202.105z"/>
		<path d="M239.768,228.256v-27.533c0-3.946-0.479-7.187-1.431-9.718c-0.955-2.532-2.254-4.555-3.898-6.069
			c-1.119-0.987-2.649-1.926-4.589-2.813c-1.941-0.888-4.588-1.333-7.943-1.333l-17.862,0.1v47.367h-6.217l-0.099-53.487h23.882
			c0.92,0,2.023,0.052,3.305,0.148c1.284,0.1,2.648,0.33,4.095,0.69c1.447,0.364,2.961,0.889,4.54,1.581
			c1.579,0.69,3.158,1.661,4.737,2.91c5.196,4.408,7.796,11.284,7.796,20.624v27.533H239.768z"/>
		<path d="M269.668,228.256v-4.637l28.618-41.646H269.57v-6.021h37.302v4.738l-28.618,41.546h28.42v6.019H269.668z"/>
		<path d="M379.108,228.256l-0.099-7.894c-2.501,2.96-5.493,5.214-8.979,6.76c-3.488,1.546-7.437,2.318-11.843,2.318
			c-4.277,0-8.109-0.772-11.496-2.318c-3.39-1.546-6.267-3.584-8.635-6.119c-2.368-2.532-4.178-5.442-5.428-8.732
			c-1.25-3.291-1.875-6.676-1.875-10.165c0-3.617,0.642-7.071,1.925-10.362c1.283-3.289,3.109-6.184,5.477-8.684
			c2.368-2.5,5.246-4.505,8.634-6.019s7.188-2.271,11.398-2.271h27.139v53.487H379.108z M358.188,180.79
			c-2.896,0-5.642,0.527-8.24,1.579c-2.6,1.052-4.853,2.515-6.76,4.391c-1.909,1.875-3.422,4.113-4.539,6.709
			c-1.12,2.602-1.678,5.479-1.678,8.636c0,2.501,0.444,5.018,1.333,7.55c0.888,2.534,2.219,4.82,3.997,6.858
			c1.776,2.04,4.012,3.701,6.71,4.983c2.697,1.284,5.854,1.925,9.474,1.925c3.158,0,6.002-0.574,8.537-1.728
			c2.531-1.149,4.718-2.679,6.563-4.588c1.774-1.776,3.188-4.013,4.243-6.711c0.854-2.368,1.282-10.362,1.282-23.979v-5.625H358.188
			z"/>
	</g>
</g>
</svg>
