<?xml version="1.0" encoding="utf-8"?>
<!-- Generator: Adobe Illustrator 16.0.0, SVG Export Plug-In . SVG Version: 6.00 Build 0)  -->
<!DOCTYPE svg PUBLIC "-//W3C//DTD SVG 1.1//EN" "http://www.w3.org/Graphics/SVG/1.1/DTD/svg11.dtd">
<svg version="1.1" id="Capa_1" xmlns="http://www.w3.org/2000/svg" xmlns:xlink="http://www.w3.org/1999/xlink" x="0px" y="0px"
	 width="504.682px" height="296.931px" viewBox="0 0 504.682 296.931" enable-background="new 0 0 504.682 296.931"
	 xml:space="preserve">
<rect y="3.182" width="504.682" height="293.749"/>
<g>
	<g>
		<radialGradient id="SVGID_1_" cx="115.1245" cy="206.6865" r="272.8782" gradientUnits="userSpaceOnUse">
			<stop  offset="0" style="stop-color:#EEECEA"/>
			<stop  offset="0" style="stop-color:#FCFCFB"/>
			<stop  offset="0" style="stop-color:#FFFFFF"/>
			<stop  offset="0.1238" style="stop-color:#F3F3F3"/>
			<stop  offset="0.3603" style="stop-color:#D4D4D4"/>
			<stop  offset="0.5225" style="stop-color:#BBBBBB"/>
			<stop  offset="0.6003" style="stop-color:#B0B1B2"/>
			<stop  offset="0.7312" style="stop-color:#949799"/>
			<stop  offset="0.8982" style="stop-color:#696F71"/>
			<stop  offset="1" style="stop-color:#4C5355"/>
		</radialGradient>
		<path fill="url(#SVGID_1_)" d="M137.396,238.918h1.41v1.538h-1.41V238.918z M137.396,243.018h1.41v10.479h-1.41V243.018z"/>
		<radialGradient id="SVGID_2_" cx="115.1221" cy="206.687" r="272.886" gradientUnits="userSpaceOnUse">
			<stop  offset="0" style="stop-color:#EEECEA"/>
			<stop  offset="0" style="stop-color:#FCFCFB"/>
			<stop  offset="0" style="stop-color:#FFFFFF"/>
			<stop  offset="0.1238" style="stop-color:#F3F3F3"/>
			<stop  offset="0.3603" style="stop-color:#D4D4D4"/>
			<stop  offset="0.5225" style="stop-color:#BBBBBB"/>
			<stop  offset="0.6003" style="stop-color:#B0B1B2"/>
			<stop  offset="0.7312" style="stop-color:#949799"/>
			<stop  offset="0.8982" style="stop-color:#696F71"/>
			<stop  offset="1" style="stop-color:#4C5355"/>
		</radialGradient>
		<path fill="url(#SVGID_2_)" d="M152.513,253.498v-10.479l1.205,0.974c0.803-0.837,1.794-1.255,2.973-1.255
			s2.169,0.401,2.972,1.204c0.803,0.803,1.204,1.793,1.204,2.973v6.585h-1.409v-6.585c0-0.803-0.27-1.464-0.807-1.986
			c-0.538-0.521-1.191-0.782-1.96-0.782c-0.77,0-1.423,0.27-1.96,0.807c-0.538,0.539-0.807,1.192-0.807,1.96v6.585H152.513z"/>
		<radialGradient id="SVGID_3_" cx="115.1235" cy="206.687" r="272.8836" gradientUnits="userSpaceOnUse">
			<stop  offset="0" style="stop-color:#EEECEA"/>
			<stop  offset="0" style="stop-color:#FCFCFB"/>
			<stop  offset="0" style="stop-color:#FFFFFF"/>
			<stop  offset="0.1238" style="stop-color:#F3F3F3"/>
			<stop  offset="0.3603" style="stop-color:#D4D4D4"/>
			<stop  offset="0.5225" style="stop-color:#BBBBBB"/>
			<stop  offset="0.6003" style="stop-color:#B0B1B2"/>
			<stop  offset="0.7312" style="stop-color:#949799"/>
			<stop  offset="0.8982" style="stop-color:#696F71"/>
			<stop  offset="1" style="stop-color:#4C5355"/>
		</radialGradient>
		<path fill="url(#SVGID_3_)" d="M189.462,253.498h-1.409v-6.688c0-0.802-0.265-1.447-0.794-1.934
			c-0.53-0.487-1.153-0.731-1.871-0.731c-0.7,0-1.319,0.244-1.857,0.731c-0.539,0.487-0.808,1.132-0.808,1.934v6.688h-1.409v-6.688
			c0-0.802-0.265-1.447-0.794-1.934c-0.53-0.487-1.153-0.731-1.871-0.731c-0.701,0-1.32,0.244-1.857,0.731
			c-0.538,0.487-0.807,1.132-0.807,1.934v6.688h-1.41v-10.479l1.179,0.922c0.802-0.802,1.768-1.204,2.895-1.204
			c0.684,0,1.333,0.163,1.947,0.487c0.616,0.325,1.093,0.751,1.436,1.281c0.82-1.179,1.938-1.768,3.356-1.768
			c0.598,0,1.141,0.111,1.627,0.333c0.487,0.222,0.906,0.508,1.256,0.858c0.35,0.35,0.636,0.769,0.858,1.255
			c0.222,0.487,0.333,1.029,0.333,1.627V253.498z"/>
		<radialGradient id="SVGID_4_" cx="115.1201" cy="206.686" r="272.8937" gradientUnits="userSpaceOnUse">
			<stop  offset="0" style="stop-color:#EEECEA"/>
			<stop  offset="0" style="stop-color:#FCFCFB"/>
			<stop  offset="0" style="stop-color:#FFFFFF"/>
			<stop  offset="0.1238" style="stop-color:#F3F3F3"/>
			<stop  offset="0.3603" style="stop-color:#D4D4D4"/>
			<stop  offset="0.5225" style="stop-color:#BBBBBB"/>
			<stop  offset="0.6003" style="stop-color:#B0B1B2"/>
			<stop  offset="0.7312" style="stop-color:#949799"/>
			<stop  offset="0.8982" style="stop-color:#696F71"/>
			<stop  offset="1" style="stop-color:#4C5355"/>
		</radialGradient>
		<path fill="url(#SVGID_4_)" d="M208.321,242.736c1.537,0,2.844,0.538,3.92,1.614c1.076,1.076,1.614,2.382,1.614,3.92
			c0,1.504-0.539,2.802-1.614,3.895c-1.077,1.093-2.383,1.64-3.92,1.64c-1.503,0-2.802-0.547-3.895-1.64
			c-1.094-1.092-1.64-2.391-1.64-3.895c0-1.538,0.546-2.844,1.64-3.92C205.519,243.274,206.817,242.736,208.321,242.736z
			 M208.321,244.145c-1.162,0-2.14,0.397-2.934,1.192c-0.794,0.794-1.191,1.772-1.191,2.934c0,1.162,0.397,2.14,1.191,2.934
			c0.794,0.794,1.772,1.191,2.934,1.191c1.144,0,2.118-0.401,2.921-1.205c0.803-0.802,1.205-1.776,1.205-2.921
			c0-1.144-0.402-2.118-1.205-2.921C210.438,244.547,209.465,244.145,208.321,244.145z"/>
		<radialGradient id="SVGID_5_" cx="115.124" cy="206.6846" r="272.8853" gradientUnits="userSpaceOnUse">
			<stop  offset="0" style="stop-color:#EEECEA"/>
			<stop  offset="0" style="stop-color:#FCFCFB"/>
			<stop  offset="0" style="stop-color:#FFFFFF"/>
			<stop  offset="0.1238" style="stop-color:#F3F3F3"/>
			<stop  offset="0.3603" style="stop-color:#D4D4D4"/>
			<stop  offset="0.5225" style="stop-color:#BBBBBB"/>
			<stop  offset="0.6003" style="stop-color:#B0B1B2"/>
			<stop  offset="0.7312" style="stop-color:#949799"/>
			<stop  offset="0.8982" style="stop-color:#696F71"/>
			<stop  offset="1" style="stop-color:#4C5355"/>
		</radialGradient>
		<path fill="url(#SVGID_5_)" d="M228.537,237.483h-1.742l0.769-1.409h2.383v8.507c1.11-1.23,2.485-1.845,4.125-1.845
			c1.538,0,2.844,0.538,3.92,1.614c1.076,1.076,1.614,2.382,1.614,3.92c0,1.504-0.538,2.802-1.614,3.895
			c-1.076,1.093-2.383,1.64-3.92,1.64c-1.554,0-2.887-0.572-3.997-1.716l-1.538,1.409V237.483z M234.072,244.145
			c-1.145,0-2.119,0.402-2.921,1.205c-0.803,0.803-1.205,1.777-1.205,2.921c0,1.145,0.401,2.119,1.205,2.921
			c0.802,0.804,1.776,1.205,2.921,1.205c1.161,0,2.14-0.397,2.934-1.191c0.794-0.794,1.192-1.772,1.192-2.934
			c0-1.161-0.397-2.14-1.192-2.934C236.211,244.542,235.233,244.145,234.072,244.145z"/>
		<radialGradient id="SVGID_6_" cx="115.1309" cy="206.6865" r="272.8726" gradientUnits="userSpaceOnUse">
			<stop  offset="0" style="stop-color:#EEECEA"/>
			<stop  offset="0" style="stop-color:#FCFCFB"/>
			<stop  offset="0" style="stop-color:#FFFFFF"/>
			<stop  offset="0.1238" style="stop-color:#F3F3F3"/>
			<stop  offset="0.3603" style="stop-color:#D4D4D4"/>
			<stop  offset="0.5225" style="stop-color:#BBBBBB"/>
			<stop  offset="0.6003" style="stop-color:#B0B1B2"/>
			<stop  offset="0.7312" style="stop-color:#949799"/>
			<stop  offset="0.8982" style="stop-color:#696F71"/>
			<stop  offset="1" style="stop-color:#4C5355"/>
		</radialGradient>
		<path fill="url(#SVGID_6_)" d="M252.931,238.918h1.41v1.538h-1.41V238.918z M252.931,243.018h1.41v10.479h-1.41V243.018z"/>
		<radialGradient id="SVGID_7_" cx="115.1318" cy="206.686" r="272.872" gradientUnits="userSpaceOnUse">
			<stop  offset="0" style="stop-color:#EEECEA"/>
			<stop  offset="0" style="stop-color:#FCFCFB"/>
			<stop  offset="0" style="stop-color:#FFFFFF"/>
			<stop  offset="0.1238" style="stop-color:#F3F3F3"/>
			<stop  offset="0.3603" style="stop-color:#D4D4D4"/>
			<stop  offset="0.5225" style="stop-color:#BBBBBB"/>
			<stop  offset="0.6003" style="stop-color:#B0B1B2"/>
			<stop  offset="0.7312" style="stop-color:#949799"/>
			<stop  offset="0.8982" style="stop-color:#696F71"/>
			<stop  offset="1" style="stop-color:#4C5355"/>
		</radialGradient>
		<path fill="url(#SVGID_7_)" d="M268.048,253.498v-17.423h1.41v17.423H268.048z"/>
		<radialGradient id="SVGID_8_" cx="115.1323" cy="206.6865" r="272.8728" gradientUnits="userSpaceOnUse">
			<stop  offset="0" style="stop-color:#EEECEA"/>
			<stop  offset="0" style="stop-color:#FCFCFB"/>
			<stop  offset="0" style="stop-color:#FFFFFF"/>
			<stop  offset="0.1238" style="stop-color:#F3F3F3"/>
			<stop  offset="0.3603" style="stop-color:#D4D4D4"/>
			<stop  offset="0.5225" style="stop-color:#BBBBBB"/>
			<stop  offset="0.6003" style="stop-color:#B0B1B2"/>
			<stop  offset="0.7312" style="stop-color:#949799"/>
			<stop  offset="0.8982" style="stop-color:#696F71"/>
			<stop  offset="1" style="stop-color:#4C5355"/>
		</radialGradient>
		<path fill="url(#SVGID_8_)" d="M283.165,238.918h1.41v1.538h-1.41V238.918z M283.165,243.018h1.41v10.479h-1.41V243.018z"/>
		<radialGradient id="SVGID_9_" cx="115.126" cy="206.686" r="272.8835" gradientUnits="userSpaceOnUse">
			<stop  offset="0" style="stop-color:#EEECEA"/>
			<stop  offset="0" style="stop-color:#FCFCFB"/>
			<stop  offset="0" style="stop-color:#FFFFFF"/>
			<stop  offset="0.1238" style="stop-color:#F3F3F3"/>
			<stop  offset="0.3603" style="stop-color:#D4D4D4"/>
			<stop  offset="0.5225" style="stop-color:#BBBBBB"/>
			<stop  offset="0.6003" style="stop-color:#B0B1B2"/>
			<stop  offset="0.7312" style="stop-color:#949799"/>
			<stop  offset="0.8982" style="stop-color:#696F71"/>
			<stop  offset="1" style="stop-color:#4C5355"/>
		</radialGradient>
		<path fill="url(#SVGID_9_)" d="M307.431,252.089c-1.111,1.144-2.442,1.716-3.997,1.716c-1.503,0-2.802-0.547-3.895-1.64
			c-1.094-1.092-1.64-2.391-1.64-3.895c0-1.538,0.546-2.844,1.64-3.92c1.093-1.076,2.391-1.614,3.895-1.614
			c1.555,0,2.886,0.572,3.997,1.716l1.538-1.435v10.479L307.431,252.089z M303.434,244.145c-1.162,0-2.14,0.397-2.934,1.192
			c-0.794,0.794-1.192,1.772-1.192,2.934c0,1.162,0.397,2.14,1.192,2.934c0.794,0.794,1.771,1.191,2.934,1.191
			c1.144,0,2.118-0.401,2.921-1.205c0.803-0.802,1.205-1.776,1.205-2.921c0-1.144-0.402-2.118-1.205-2.921
			C305.551,244.547,304.578,244.145,303.434,244.145z"/>
		<radialGradient id="SVGID_10_" cx="115.1187" cy="206.687" r="272.8919" gradientUnits="userSpaceOnUse">
			<stop  offset="0" style="stop-color:#EEECEA"/>
			<stop  offset="0" style="stop-color:#FCFCFB"/>
			<stop  offset="0" style="stop-color:#FFFFFF"/>
			<stop  offset="0.1238" style="stop-color:#F3F3F3"/>
			<stop  offset="0.3603" style="stop-color:#D4D4D4"/>
			<stop  offset="0.5225" style="stop-color:#BBBBBB"/>
			<stop  offset="0.6003" style="stop-color:#B0B1B2"/>
			<stop  offset="0.7312" style="stop-color:#949799"/>
			<stop  offset="0.8982" style="stop-color:#696F71"/>
			<stop  offset="1" style="stop-color:#4C5355"/>
		</radialGradient>
		<path fill="url(#SVGID_10_)" d="M328.16,242.992l-0.641,1.256c-0.205-0.068-0.453-0.103-0.744-0.103
			c-0.786,0-1.431,0.265-1.935,0.794c-0.504,0.53-0.755,1.162-0.755,1.896v6.662h-1.41v-10.479l1.179,0.948
			c0.786-0.82,1.76-1.229,2.921-1.229C327.288,242.736,327.749,242.822,328.16,242.992z"/>
		<radialGradient id="SVGID_11_" cx="115.1348" cy="206.6865" r="272.8738" gradientUnits="userSpaceOnUse">
			<stop  offset="0" style="stop-color:#EEECEA"/>
			<stop  offset="0" style="stop-color:#FCFCFB"/>
			<stop  offset="0" style="stop-color:#FFFFFF"/>
			<stop  offset="0.1238" style="stop-color:#F3F3F3"/>
			<stop  offset="0.3603" style="stop-color:#D4D4D4"/>
			<stop  offset="0.5225" style="stop-color:#BBBBBB"/>
			<stop  offset="0.6003" style="stop-color:#B0B1B2"/>
			<stop  offset="0.7312" style="stop-color:#949799"/>
			<stop  offset="0.8982" style="stop-color:#696F71"/>
			<stop  offset="1" style="stop-color:#4C5355"/>
		</radialGradient>
		<path fill="url(#SVGID_11_)" d="M341.483,238.918h1.41v1.538h-1.41V238.918z M341.483,243.018h1.41v10.479h-1.41V243.018z"/>
		<radialGradient id="SVGID_12_" cx="115.1152" cy="206.686" r="272.8945" gradientUnits="userSpaceOnUse">
			<stop  offset="0" style="stop-color:#EEECEA"/>
			<stop  offset="0" style="stop-color:#FCFCFB"/>
			<stop  offset="0" style="stop-color:#FFFFFF"/>
			<stop  offset="0.1238" style="stop-color:#F3F3F3"/>
			<stop  offset="0.3603" style="stop-color:#D4D4D4"/>
			<stop  offset="0.5225" style="stop-color:#BBBBBB"/>
			<stop  offset="0.6003" style="stop-color:#B0B1B2"/>
			<stop  offset="0.7312" style="stop-color:#949799"/>
			<stop  offset="0.8982" style="stop-color:#696F71"/>
			<stop  offset="1" style="stop-color:#4C5355"/>
		</radialGradient>
		<path fill="url(#SVGID_12_)" d="M365.747,252.089c-1.11,1.144-2.441,1.716-3.996,1.716c-1.503,0-2.803-0.547-3.895-1.64
			c-1.095-1.092-1.64-2.391-1.64-3.895c0-1.538,0.545-2.844,1.64-3.92c1.092-1.076,2.391-1.614,3.895-1.614
			c1.555,0,2.886,0.572,3.996,1.716l1.539-1.435v10.479L365.747,252.089z M361.751,244.145c-1.161,0-2.14,0.397-2.933,1.192
			c-0.795,0.794-1.193,1.772-1.193,2.934c0,1.162,0.398,2.14,1.193,2.934c0.793,0.794,1.772,1.191,2.933,1.191
			c1.143,0,2.118-0.401,2.921-1.205c0.803-0.802,1.206-1.776,1.206-2.921c0-1.144-0.403-2.118-1.206-2.921
			C363.869,244.547,362.894,244.145,361.751,244.145z"/>
	</g>
	<g>
		<radialGradient id="SVGID_13_" cx="240.3755" cy="75.083" r="1.9989" gradientUnits="userSpaceOnUse">
			<stop  offset="0" style="stop-color:#EEECEA"/>
			<stop  offset="0" style="stop-color:#FCFCFB"/>
			<stop  offset="0" style="stop-color:#FFFFFF"/>
			<stop  offset="0.1238" style="stop-color:#F3F3F3"/>
			<stop  offset="0.3603" style="stop-color:#D4D4D4"/>
			<stop  offset="0.5225" style="stop-color:#BBBBBB"/>
			<stop  offset="0.6003" style="stop-color:#B0B1B2"/>
			<stop  offset="0.7312" style="stop-color:#949799"/>
			<stop  offset="0.8982" style="stop-color:#696F71"/>
			<stop  offset="1" style="stop-color:#4C5355"/>
		</radialGradient>
		<rect x="239.307" y="72.465" fill="url(#SVGID_13_)" width="2.137" height="5.235"/>
		<radialGradient id="SVGID_14_" cx="240.3755" cy="83.0908" r="1.9995" gradientUnits="userSpaceOnUse">
			<stop  offset="0" style="stop-color:#EEECEA"/>
			<stop  offset="0" style="stop-color:#FCFCFB"/>
			<stop  offset="0" style="stop-color:#FFFFFF"/>
			<stop  offset="0.1238" style="stop-color:#F3F3F3"/>
			<stop  offset="0.3603" style="stop-color:#D4D4D4"/>
			<stop  offset="0.5225" style="stop-color:#BBBBBB"/>
			<stop  offset="0.6003" style="stop-color:#B0B1B2"/>
			<stop  offset="0.7312" style="stop-color:#949799"/>
			<stop  offset="0.8982" style="stop-color:#696F71"/>
			<stop  offset="1" style="stop-color:#4C5355"/>
		</radialGradient>
		<polygon fill="url(#SVGID_14_)" points="241.444,85.709 241.444,80.473 239.307,80.473 239.307,83.724 239.307,85.709 
			240.857,85.709 		"/>
		<radialGradient id="SVGID_15_" cx="240.3755" cy="67.0728" r="1.997" gradientUnits="userSpaceOnUse">
			<stop  offset="0" style="stop-color:#EEECEA"/>
			<stop  offset="0" style="stop-color:#FCFCFB"/>
			<stop  offset="0" style="stop-color:#FFFFFF"/>
			<stop  offset="0.1238" style="stop-color:#F3F3F3"/>
			<stop  offset="0.3603" style="stop-color:#D4D4D4"/>
			<stop  offset="0.5225" style="stop-color:#BBBBBB"/>
			<stop  offset="0.6003" style="stop-color:#B0B1B2"/>
			<stop  offset="0.7312" style="stop-color:#949799"/>
			<stop  offset="0.8982" style="stop-color:#696F71"/>
			<stop  offset="1" style="stop-color:#4C5355"/>
		</radialGradient>
		<polygon fill="url(#SVGID_15_)" points="241.444,64.458 239.307,65.83 239.307,69.687 241.444,69.687 		"/>
		<radialGradient id="SVGID_16_" cx="240.3755" cy="99.1123" r="1.9979" gradientUnits="userSpaceOnUse">
			<stop  offset="0" style="stop-color:#EEECEA"/>
			<stop  offset="0" style="stop-color:#FCFCFB"/>
			<stop  offset="0" style="stop-color:#FFFFFF"/>
			<stop  offset="0.1238" style="stop-color:#F3F3F3"/>
			<stop  offset="0.3603" style="stop-color:#D4D4D4"/>
			<stop  offset="0.5225" style="stop-color:#BBBBBB"/>
			<stop  offset="0.6003" style="stop-color:#B0B1B2"/>
			<stop  offset="0.7312" style="stop-color:#949799"/>
			<stop  offset="0.8982" style="stop-color:#696F71"/>
			<stop  offset="1" style="stop-color:#4C5355"/>
		</radialGradient>
		<rect x="239.307" y="96.496" fill="url(#SVGID_16_)" width="2.137" height="5.232"/>
		<radialGradient id="SVGID_17_" cx="240.3755" cy="91.1011" r="1.9986" gradientUnits="userSpaceOnUse">
			<stop  offset="0" style="stop-color:#EEECEA"/>
			<stop  offset="0" style="stop-color:#FCFCFB"/>
			<stop  offset="0" style="stop-color:#FFFFFF"/>
			<stop  offset="0.1238" style="stop-color:#F3F3F3"/>
			<stop  offset="0.3603" style="stop-color:#D4D4D4"/>
			<stop  offset="0.5225" style="stop-color:#BBBBBB"/>
			<stop  offset="0.6003" style="stop-color:#B0B1B2"/>
			<stop  offset="0.7312" style="stop-color:#949799"/>
			<stop  offset="0.8982" style="stop-color:#696F71"/>
			<stop  offset="1" style="stop-color:#4C5355"/>
		</radialGradient>
		<rect x="239.307" y="88.484" fill="url(#SVGID_17_)" width="2.137" height="5.233"/>
		<radialGradient id="SVGID_18_" cx="240.3755" cy="107.1211" r="1.9979" gradientUnits="userSpaceOnUse">
			<stop  offset="0" style="stop-color:#EEECEA"/>
			<stop  offset="0" style="stop-color:#FCFCFB"/>
			<stop  offset="0" style="stop-color:#FFFFFF"/>
			<stop  offset="0.1238" style="stop-color:#F3F3F3"/>
			<stop  offset="0.3603" style="stop-color:#D4D4D4"/>
			<stop  offset="0.5225" style="stop-color:#BBBBBB"/>
			<stop  offset="0.6003" style="stop-color:#B0B1B2"/>
			<stop  offset="0.7312" style="stop-color:#949799"/>
			<stop  offset="0.8982" style="stop-color:#696F71"/>
			<stop  offset="1" style="stop-color:#4C5355"/>
		</radialGradient>
		<rect x="239.307" y="104.505" fill="url(#SVGID_18_)" width="2.137" height="5.232"/>
		<radialGradient id="SVGID_19_" cx="221.8213" cy="132.4946" r="1.4926" gradientUnits="userSpaceOnUse">
			<stop  offset="0" style="stop-color:#EEECEA"/>
			<stop  offset="0" style="stop-color:#FCFCFB"/>
			<stop  offset="0" style="stop-color:#FFFFFF"/>
			<stop  offset="0.1238" style="stop-color:#F3F3F3"/>
			<stop  offset="0.3603" style="stop-color:#D4D4D4"/>
			<stop  offset="0.5225" style="stop-color:#BBBBBB"/>
			<stop  offset="0.6003" style="stop-color:#B0B1B2"/>
			<stop  offset="0.7312" style="stop-color:#949799"/>
			<stop  offset="0.8982" style="stop-color:#696F71"/>
			<stop  offset="1" style="stop-color:#4C5355"/>
		</radialGradient>
		<rect x="221.023" y="130.541" fill="url(#SVGID_19_)" width="1.597" height="3.908"/>
		<radialGradient id="SVGID_20_" cx="221.8213" cy="126.5103" r="1.4926" gradientUnits="userSpaceOnUse">
			<stop  offset="0" style="stop-color:#EEECEA"/>
			<stop  offset="0" style="stop-color:#FCFCFB"/>
			<stop  offset="0" style="stop-color:#FFFFFF"/>
			<stop  offset="0.1238" style="stop-color:#F3F3F3"/>
			<stop  offset="0.3603" style="stop-color:#D4D4D4"/>
			<stop  offset="0.5225" style="stop-color:#BBBBBB"/>
			<stop  offset="0.6003" style="stop-color:#B0B1B2"/>
			<stop  offset="0.7312" style="stop-color:#949799"/>
			<stop  offset="0.8982" style="stop-color:#696F71"/>
			<stop  offset="1" style="stop-color:#4C5355"/>
		</radialGradient>
		<rect x="221.023" y="124.556" fill="url(#SVGID_20_)" width="1.597" height="3.908"/>
		<radialGradient id="SVGID_21_" cx="221.8213" cy="90.6113" r="1.4936" gradientUnits="userSpaceOnUse">
			<stop  offset="0" style="stop-color:#EEECEA"/>
			<stop  offset="0" style="stop-color:#FCFCFB"/>
			<stop  offset="0" style="stop-color:#FFFFFF"/>
			<stop  offset="0.1238" style="stop-color:#F3F3F3"/>
			<stop  offset="0.3603" style="stop-color:#D4D4D4"/>
			<stop  offset="0.5225" style="stop-color:#BBBBBB"/>
			<stop  offset="0.6003" style="stop-color:#B0B1B2"/>
			<stop  offset="0.7312" style="stop-color:#949799"/>
			<stop  offset="0.8982" style="stop-color:#696F71"/>
			<stop  offset="1" style="stop-color:#4C5355"/>
		</radialGradient>
		<rect x="221.023" y="88.656" fill="url(#SVGID_21_)" width="1.597" height="3.911"/>
		<radialGradient id="SVGID_22_" cx="221.8213" cy="96.5967" r="1.492" gradientUnits="userSpaceOnUse">
			<stop  offset="0" style="stop-color:#EEECEA"/>
			<stop  offset="0" style="stop-color:#FCFCFB"/>
			<stop  offset="0" style="stop-color:#FFFFFF"/>
			<stop  offset="0.1238" style="stop-color:#F3F3F3"/>
			<stop  offset="0.3603" style="stop-color:#D4D4D4"/>
			<stop  offset="0.5225" style="stop-color:#BBBBBB"/>
			<stop  offset="0.6003" style="stop-color:#B0B1B2"/>
			<stop  offset="0.7312" style="stop-color:#949799"/>
			<stop  offset="0.8982" style="stop-color:#696F71"/>
			<stop  offset="1" style="stop-color:#4C5355"/>
		</radialGradient>
		<rect x="221.023" y="94.643" fill="url(#SVGID_22_)" width="1.597" height="3.907"/>
		<radialGradient id="SVGID_23_" cx="221.8213" cy="84.627" r="1.4917" gradientUnits="userSpaceOnUse">
			<stop  offset="0" style="stop-color:#EEECEA"/>
			<stop  offset="0" style="stop-color:#FCFCFB"/>
			<stop  offset="0" style="stop-color:#FFFFFF"/>
			<stop  offset="0.1238" style="stop-color:#F3F3F3"/>
			<stop  offset="0.3603" style="stop-color:#D4D4D4"/>
			<stop  offset="0.5225" style="stop-color:#BBBBBB"/>
			<stop  offset="0.6003" style="stop-color:#B0B1B2"/>
			<stop  offset="0.7312" style="stop-color:#949799"/>
			<stop  offset="0.8982" style="stop-color:#696F71"/>
			<stop  offset="1" style="stop-color:#4C5355"/>
		</radialGradient>
		<polygon fill="url(#SVGID_23_)" points="222.62,82.674 221.023,83.698 221.023,86.58 222.62,86.58 		"/>
		<radialGradient id="SVGID_24_" cx="221.8213" cy="102.5791" r="1.491" gradientUnits="userSpaceOnUse">
			<stop  offset="0" style="stop-color:#EEECEA"/>
			<stop  offset="0" style="stop-color:#FCFCFB"/>
			<stop  offset="0" style="stop-color:#FFFFFF"/>
			<stop  offset="0.1238" style="stop-color:#F3F3F3"/>
			<stop  offset="0.3603" style="stop-color:#D4D4D4"/>
			<stop  offset="0.5225" style="stop-color:#BBBBBB"/>
			<stop  offset="0.6003" style="stop-color:#B0B1B2"/>
			<stop  offset="0.7312" style="stop-color:#949799"/>
			<stop  offset="0.8982" style="stop-color:#696F71"/>
			<stop  offset="1" style="stop-color:#4C5355"/>
		</radialGradient>
		<rect x="221.023" y="100.627" fill="url(#SVGID_24_)" width="1.597" height="3.904"/>
		<radialGradient id="SVGID_25_" cx="221.8213" cy="120.5293" r="1.4926" gradientUnits="userSpaceOnUse">
			<stop  offset="0" style="stop-color:#EEECEA"/>
			<stop  offset="0" style="stop-color:#FCFCFB"/>
			<stop  offset="0" style="stop-color:#FFFFFF"/>
			<stop  offset="0.1238" style="stop-color:#F3F3F3"/>
			<stop  offset="0.3603" style="stop-color:#D4D4D4"/>
			<stop  offset="0.5225" style="stop-color:#BBBBBB"/>
			<stop  offset="0.6003" style="stop-color:#B0B1B2"/>
			<stop  offset="0.7312" style="stop-color:#949799"/>
			<stop  offset="0.8982" style="stop-color:#696F71"/>
			<stop  offset="1" style="stop-color:#4C5355"/>
		</radialGradient>
		<rect x="221.023" y="118.575" fill="url(#SVGID_25_)" width="1.597" height="3.908"/>
		<radialGradient id="SVGID_26_" cx="221.8213" cy="108.5615" r="1.4923" gradientUnits="userSpaceOnUse">
			<stop  offset="0" style="stop-color:#EEECEA"/>
			<stop  offset="0" style="stop-color:#FCFCFB"/>
			<stop  offset="0" style="stop-color:#FFFFFF"/>
			<stop  offset="0.1238" style="stop-color:#F3F3F3"/>
			<stop  offset="0.3603" style="stop-color:#D4D4D4"/>
			<stop  offset="0.5225" style="stop-color:#BBBBBB"/>
			<stop  offset="0.6003" style="stop-color:#B0B1B2"/>
			<stop  offset="0.7312" style="stop-color:#949799"/>
			<stop  offset="0.8982" style="stop-color:#696F71"/>
			<stop  offset="1" style="stop-color:#4C5355"/>
		</radialGradient>
		<rect x="221.023" y="106.608" fill="url(#SVGID_26_)" width="1.597" height="3.907"/>
		<radialGradient id="SVGID_27_" cx="240.3755" cy="115.1279" r="1.9992" gradientUnits="userSpaceOnUse">
			<stop  offset="0" style="stop-color:#EEECEA"/>
			<stop  offset="0" style="stop-color:#FCFCFB"/>
			<stop  offset="0" style="stop-color:#FFFFFF"/>
			<stop  offset="0.1238" style="stop-color:#F3F3F3"/>
			<stop  offset="0.3603" style="stop-color:#D4D4D4"/>
			<stop  offset="0.5225" style="stop-color:#BBBBBB"/>
			<stop  offset="0.6003" style="stop-color:#B0B1B2"/>
			<stop  offset="0.7312" style="stop-color:#949799"/>
			<stop  offset="0.8982" style="stop-color:#696F71"/>
			<stop  offset="1" style="stop-color:#4C5355"/>
		</radialGradient>
		<rect x="239.307" y="112.511" fill="url(#SVGID_27_)" width="2.137" height="5.235"/>
		<radialGradient id="SVGID_28_" cx="221.8213" cy="114.5435" r="1.4936" gradientUnits="userSpaceOnUse">
			<stop  offset="0" style="stop-color:#EEECEA"/>
			<stop  offset="0" style="stop-color:#FCFCFB"/>
			<stop  offset="0" style="stop-color:#FFFFFF"/>
			<stop  offset="0.1238" style="stop-color:#F3F3F3"/>
			<stop  offset="0.3603" style="stop-color:#D4D4D4"/>
			<stop  offset="0.5225" style="stop-color:#BBBBBB"/>
			<stop  offset="0.6003" style="stop-color:#B0B1B2"/>
			<stop  offset="0.7312" style="stop-color:#949799"/>
			<stop  offset="0.8982" style="stop-color:#696F71"/>
			<stop  offset="1" style="stop-color:#4C5355"/>
		</radialGradient>
		<rect x="221.023" y="112.588" fill="url(#SVGID_28_)" width="1.597" height="3.911"/>
		<radialGradient id="SVGID_29_" cx="271.0806" cy="110.7598" r="1.132" gradientUnits="userSpaceOnUse">
			<stop  offset="0" style="stop-color:#EEECEA"/>
			<stop  offset="0" style="stop-color:#FCFCFB"/>
			<stop  offset="0" style="stop-color:#FFFFFF"/>
			<stop  offset="0.1238" style="stop-color:#F3F3F3"/>
			<stop  offset="0.3603" style="stop-color:#D4D4D4"/>
			<stop  offset="0.5225" style="stop-color:#BBBBBB"/>
			<stop  offset="0.6003" style="stop-color:#B0B1B2"/>
			<stop  offset="0.7312" style="stop-color:#949799"/>
			<stop  offset="0.8982" style="stop-color:#696F71"/>
			<stop  offset="1" style="stop-color:#4C5355"/>
		</radialGradient>
		<rect x="270.474" y="109.278" fill="url(#SVGID_29_)" width="1.214" height="2.963"/>
		<radialGradient id="SVGID_30_" cx="240.3755" cy="123.1396" r="1.9982" gradientUnits="userSpaceOnUse">
			<stop  offset="0" style="stop-color:#EEECEA"/>
			<stop  offset="0" style="stop-color:#FCFCFB"/>
			<stop  offset="0" style="stop-color:#FFFFFF"/>
			<stop  offset="0.1238" style="stop-color:#F3F3F3"/>
			<stop  offset="0.3603" style="stop-color:#D4D4D4"/>
			<stop  offset="0.5225" style="stop-color:#BBBBBB"/>
			<stop  offset="0.6003" style="stop-color:#B0B1B2"/>
			<stop  offset="0.7312" style="stop-color:#949799"/>
			<stop  offset="0.8982" style="stop-color:#696F71"/>
			<stop  offset="1" style="stop-color:#4C5355"/>
		</radialGradient>
		<rect x="239.307" y="120.524" fill="url(#SVGID_30_)" width="2.137" height="5.232"/>
		<radialGradient id="SVGID_31_" cx="271.0806" cy="124.376" r="1.134" gradientUnits="userSpaceOnUse">
			<stop  offset="0" style="stop-color:#EEECEA"/>
			<stop  offset="0" style="stop-color:#FCFCFB"/>
			<stop  offset="0" style="stop-color:#FFFFFF"/>
			<stop  offset="0.1238" style="stop-color:#F3F3F3"/>
			<stop  offset="0.3603" style="stop-color:#D4D4D4"/>
			<stop  offset="0.5225" style="stop-color:#BBBBBB"/>
			<stop  offset="0.6003" style="stop-color:#B0B1B2"/>
			<stop  offset="0.7312" style="stop-color:#949799"/>
			<stop  offset="0.8982" style="stop-color:#696F71"/>
			<stop  offset="1" style="stop-color:#4C5355"/>
		</radialGradient>
		<rect x="270.474" y="122.892" fill="url(#SVGID_31_)" width="1.214" height="2.968"/>
		<radialGradient id="SVGID_32_" cx="271.0806" cy="119.8398" r="1.1336" gradientUnits="userSpaceOnUse">
			<stop  offset="0" style="stop-color:#EEECEA"/>
			<stop  offset="0" style="stop-color:#FCFCFB"/>
			<stop  offset="0" style="stop-color:#FFFFFF"/>
			<stop  offset="0.1238" style="stop-color:#F3F3F3"/>
			<stop  offset="0.3603" style="stop-color:#D4D4D4"/>
			<stop  offset="0.5225" style="stop-color:#BBBBBB"/>
			<stop  offset="0.6003" style="stop-color:#B0B1B2"/>
			<stop  offset="0.7312" style="stop-color:#949799"/>
			<stop  offset="0.8982" style="stop-color:#696F71"/>
			<stop  offset="1" style="stop-color:#4C5355"/>
		</radialGradient>
		<rect x="270.474" y="118.355" fill="url(#SVGID_32_)" width="1.214" height="2.968"/>
		<radialGradient id="SVGID_33_" cx="271.0806" cy="115.2979" r="1.1311" gradientUnits="userSpaceOnUse">
			<stop  offset="0" style="stop-color:#EEECEA"/>
			<stop  offset="0" style="stop-color:#FCFCFB"/>
			<stop  offset="0" style="stop-color:#FFFFFF"/>
			<stop  offset="0.1238" style="stop-color:#F3F3F3"/>
			<stop  offset="0.3603" style="stop-color:#D4D4D4"/>
			<stop  offset="0.5225" style="stop-color:#BBBBBB"/>
			<stop  offset="0.6003" style="stop-color:#B0B1B2"/>
			<stop  offset="0.7312" style="stop-color:#949799"/>
			<stop  offset="0.8982" style="stop-color:#696F71"/>
			<stop  offset="1" style="stop-color:#4C5355"/>
		</radialGradient>
		<rect x="270.474" y="113.817" fill="url(#SVGID_33_)" width="1.214" height="2.96"/>
		<radialGradient id="SVGID_34_" cx="252.3408" cy="101.7588" r="53.325" gradientUnits="userSpaceOnUse">
			<stop  offset="0" style="stop-color:#EEECEA"/>
			<stop  offset="0" style="stop-color:#FCFCFB"/>
			<stop  offset="0" style="stop-color:#FFFFFF"/>
			<stop  offset="0.1238" style="stop-color:#F3F3F3"/>
			<stop  offset="0.3603" style="stop-color:#D4D4D4"/>
			<stop  offset="0.5225" style="stop-color:#BBBBBB"/>
			<stop  offset="0.6003" style="stop-color:#B0B1B2"/>
			<stop  offset="0.7312" style="stop-color:#949799"/>
			<stop  offset="0.8982" style="stop-color:#696F71"/>
			<stop  offset="1" style="stop-color:#4C5355"/>
		</radialGradient>
		<path fill="url(#SVGID_34_)" d="M252.341,48.433c-29.449,0-53.324,23.875-53.324,53.325s23.875,53.326,53.324,53.326
			s53.324-23.876,53.324-53.326S281.79,48.433,252.341,48.433z M225.062,136.47h-6.454V80.77l6.454-4.143V136.47z M244.722,136.47
			h-3.142h-5.505h-8.868v-2.379h8.868v-2.074h-8.868v-3.365c0,0,2.503-0.121,5.318,0.059c1.557,0.098,2.705,0.185,3.55,0.26v-2.04
			c-0.988-0.139-2.251-0.23-3.788-0.315c-2.965-0.168-5.08,0.151-5.08,0.151v-3.552c0,0,3.2,0.079,6.013,0.275
			c1.214,0.097,2.141,0.21,2.855,0.339v-1.875c-0.723-0.167-1.661-0.318-2.887-0.473c-2.944-0.373-5.981-0.406-5.981-0.406v-3.237
			c0,0,3.171,0.259,5.986,0.406c1.225,0.063,2.162,0.206,2.882,0.386v-1.988c-0.735-0.221-1.697-0.383-2.958-0.46
			c-2.961-0.185-5.911-0.484-5.911-0.484v-3.343c0,0,3.171,0.475,5.986,0.639c1.225,0.074,2.162,0.241,2.882,0.458v-1.908
			c-0.735-0.28-1.697-0.494-2.958-0.611c-2.952-0.285-5.911-0.718-5.911-0.718v-3.31c0,0,3.181,0.569,5.986,0.837
			c1.225,0.12,2.162,0.354,2.882,0.644v-2.048c-0.735-0.3-1.697-0.524-2.958-0.657c-2.948-0.305-5.911-0.916-5.911-0.916v-3.41
			c0,0,1.706,0.481,5.964,1.07c1.235,0.168,2.178,0.465,2.904,0.807v-2.074c-0.735-0.305-1.697-0.542-2.958-0.703
			c-2.942-0.379-5.911-1.245-5.911-1.245v-3.238c0,0,1.698,0.77,5.964,1.278c1.235,0.148,2.178,0.443,2.904,0.806v-2.114
			c-0.735-0.354-1.697-0.625-2.958-0.787c-2.942-0.377-5.911-1.324-5.911-1.324V90.55c0,0,1.804,0.525,6.041,1.228
			c1.205,0.2,2.116,0.539,2.827,0.94v-2.034c-0.735-0.354-1.697-0.633-2.958-0.821c-2.933-0.44-5.911-1.454-5.911-1.454v-3.492
			c0,0,1.884,0.899,6.144,1.493c1.151,0.161,2.034,0.479,2.724,0.878v-1.936c-0.735-0.373-1.697-0.665-2.958-0.854
			c-2.931-0.445-5.911-1.728-5.911-1.728v-6.146c1.477,2.547,3.745,3.925,7.694,4.867c0.406,0.099,0.795,0.215,1.174,0.347V61.908
			l8.647-5.551V136.47z M266.829,136.47h-19.245v-3.185h15.096v-2.774h-15.096v-4.506c0,0,3.355-0.164,7.125,0.079
			c7.972,0.507,7.959,0.763,7.959,0.763c0-1.29,0-2.195-0.625-2.512c-1.159-0.591-3.787-0.844-7.658-1.059
			c-3.962-0.221-6.8,0.205-6.8,0.205v-4.752c0,0,4.286,0.1,8.054,0.371c7.042,0.515,7.03,1.726,7.03,1.726
			c0-2.625,0.136-3.51-7.074-4.417c-3.943-0.498-8.01-0.545-8.01-0.545v-4.329c0,0,4.248,0.344,8.017,0.536
			c7.079,0.372,7.066,2.7,7.066,2.7c0-2.629,0-5.018-7.165-5.46c-3.966-0.244-7.919-0.641-7.919-0.641v-4.482
			c0,0,4.248,0.639,8.017,0.857c7.079,0.411,7.066,3.277,7.066,3.277c0-2.419,0.013-5.359-7.165-6.042
			c-3.955-0.375-7.919-0.958-7.919-0.958v-4.428c0,0,4.26,0.762,8.017,1.125c7.079,0.685,7.066,4.229,7.066,4.229
			c0-3.206,0.013-6.247-7.165-6.995c-3.951-0.412-7.919-1.226-7.919-1.226v-4.564c0,0,2.291,0.641,7.985,1.431
			c7.111,0.983,7.099,4.973,7.099,4.973c0-4.017,0.013-6.684-7.165-7.609c-3.939-0.502-7.919-1.663-7.919-1.663v-4.338
			c0,0,2.272,1.031,7.985,1.716c7.111,0.848,7.099,5.297,7.099,5.297c0-3.631,0.013-7.187-7.165-8.104
			c-3.939-0.506-7.919-1.778-7.919-1.778v-4.385c0,0,2.42,0.698,8.091,1.642c7.005,1.164,6.992,5.814,6.992,5.814
			c0-4.095,0.013-7.303-7.165-8.377c-3.928-0.593-7.919-1.945-7.919-1.945v-4.678c0,0,2.528,1.211,8.222,2.002
			c6.874,0.957,6.861,6.072,6.861,6.072c0-4.058,0.013-7.538-7.165-8.632c-3.926-0.597-7.919-2.306-7.919-2.306v-8.237
			c1.981,3.415,5.012,5.256,10.306,6.52c5.288,1.26,8.938,4.945,8.938,9.588C266.829,77.11,266.829,136.47,266.829,136.47z
			 M273.543,136.47h-4.898V94.216l4.898-3.142V136.47z M286.071,136.47h-10.905v-1.807h8.558v-1.57h-8.558v-2.553
			c0,0,1.901-0.092,4.037,0.041c4.521,0.291,4.514,0.436,4.514,0.436c0-0.731,0-1.242-0.357-1.423
			c-0.657-0.338-2.143-0.476-4.338-0.6c-2.247-0.13-3.855,0.113-3.855,0.113v-2.692c0,0,2.43,0.059,4.564,0.213
			c3.994,0.291,3.987,0.975,3.987,0.975c0-1.492,0.075-1.99-4.012-2.501c-2.233-0.282-4.539-0.309-4.539-0.309v-2.453
			c0,0,2.41,0.192,4.545,0.308c4.013,0.208,4.006,1.522,4.006,1.522c0-1.487,0-2.841-4.06-3.091
			c-2.249-0.136-4.491-0.362-4.491-0.362v-2.538c0,0,2.41,0.36,4.545,0.484c4.013,0.23,4.006,1.856,4.006,1.856
			c0-1.375,0.007-3.039-4.06-3.422c-2.245-0.215-4.491-0.545-4.491-0.545v-2.511c0,0,2.415,0.435,4.545,0.638
			c4.013,0.383,4.006,2.397,4.006,2.397c0-1.817,0.007-3.537-4.06-3.961c-2.243-0.236-4.491-0.699-4.491-0.699v-2.583
			c0,0,1.297,0.365,4.526,0.812c4.032,0.554,4.025,2.816,4.025,2.816c0-2.277,0.007-3.792-4.06-4.313
			c-2.235-0.285-4.491-0.941-4.491-0.941v-2.459c0,0,1.292,0.588,4.526,0.975c4.032,0.479,4.025,2.999,4.025,2.999
			c0-2.058,0.007-4.072-4.06-4.594c-2.235-0.282-4.491-1.002-4.491-1.002v-2.486c0,0,1.371,0.396,4.586,0.93
			c3.972,0.657,3.964,3.296,3.964,3.296c0-2.321,0.007-4.137-4.06-4.75c-2.23-0.332-4.491-1.103-4.491-1.103v-2.648
			c0,0,1.432,0.686,4.663,1.133c3.895,0.542,3.888,3.445,3.888,3.445c0-2.305,0.007-4.273-4.06-4.891
			c-2.23-0.339-4.491-1.311-4.491-1.311v-4.666c1.125,1.932,2.843,2.979,5.84,3.693c2.995,0.715,5.065,2.804,5.065,5.433
			C286.071,102.832,286.071,136.47,286.071,136.47z"/>
		<radialGradient id="SVGID_35_" cx="271.0806" cy="133.4541" r="1.1327" gradientUnits="userSpaceOnUse">
			<stop  offset="0" style="stop-color:#EEECEA"/>
			<stop  offset="0" style="stop-color:#FCFCFB"/>
			<stop  offset="0" style="stop-color:#FFFFFF"/>
			<stop  offset="0.1238" style="stop-color:#F3F3F3"/>
			<stop  offset="0.3603" style="stop-color:#D4D4D4"/>
			<stop  offset="0.5225" style="stop-color:#BBBBBB"/>
			<stop  offset="0.6003" style="stop-color:#B0B1B2"/>
			<stop  offset="0.7312" style="stop-color:#949799"/>
			<stop  offset="0.8982" style="stop-color:#696F71"/>
			<stop  offset="1" style="stop-color:#4C5355"/>
		</radialGradient>
		<rect x="270.474" y="131.972" fill="url(#SVGID_35_)" width="1.214" height="2.965"/>
		<radialGradient id="SVGID_36_" cx="271.0806" cy="128.915" r="1.132" gradientUnits="userSpaceOnUse">
			<stop  offset="0" style="stop-color:#EEECEA"/>
			<stop  offset="0" style="stop-color:#FCFCFB"/>
			<stop  offset="0" style="stop-color:#FFFFFF"/>
			<stop  offset="0.1238" style="stop-color:#F3F3F3"/>
			<stop  offset="0.3603" style="stop-color:#D4D4D4"/>
			<stop  offset="0.5225" style="stop-color:#BBBBBB"/>
			<stop  offset="0.6003" style="stop-color:#B0B1B2"/>
			<stop  offset="0.7312" style="stop-color:#949799"/>
			<stop  offset="0.8982" style="stop-color:#696F71"/>
			<stop  offset="1" style="stop-color:#4C5355"/>
		</radialGradient>
		<rect x="270.474" y="127.434" fill="url(#SVGID_36_)" width="1.214" height="2.963"/>
		<radialGradient id="SVGID_37_" cx="240.3755" cy="131.1484" r="1.9989" gradientUnits="userSpaceOnUse">
			<stop  offset="0" style="stop-color:#EEECEA"/>
			<stop  offset="0" style="stop-color:#FCFCFB"/>
			<stop  offset="0" style="stop-color:#FFFFFF"/>
			<stop  offset="0.1238" style="stop-color:#F3F3F3"/>
			<stop  offset="0.3603" style="stop-color:#D4D4D4"/>
			<stop  offset="0.5225" style="stop-color:#BBBBBB"/>
			<stop  offset="0.6003" style="stop-color:#B0B1B2"/>
			<stop  offset="0.7312" style="stop-color:#949799"/>
			<stop  offset="0.8982" style="stop-color:#696F71"/>
			<stop  offset="1" style="stop-color:#4C5355"/>
		</radialGradient>
		<rect x="239.307" y="128.531" fill="url(#SVGID_37_)" width="2.137" height="5.234"/>
		<radialGradient id="SVGID_38_" cx="271.0806" cy="97.1436" r="1.1324" gradientUnits="userSpaceOnUse">
			<stop  offset="0" style="stop-color:#EEECEA"/>
			<stop  offset="0" style="stop-color:#FCFCFB"/>
			<stop  offset="0" style="stop-color:#FFFFFF"/>
			<stop  offset="0.1238" style="stop-color:#F3F3F3"/>
			<stop  offset="0.3603" style="stop-color:#D4D4D4"/>
			<stop  offset="0.5225" style="stop-color:#BBBBBB"/>
			<stop  offset="0.6003" style="stop-color:#B0B1B2"/>
			<stop  offset="0.7312" style="stop-color:#949799"/>
			<stop  offset="0.8982" style="stop-color:#696F71"/>
			<stop  offset="1" style="stop-color:#4C5355"/>
		</radialGradient>
		<polygon fill="url(#SVGID_38_)" points="271.688,95.662 270.474,96.436 270.474,98.625 271.688,98.625 		"/>
		<radialGradient id="SVGID_39_" cx="271.0806" cy="106.2222" r="1.1327" gradientUnits="userSpaceOnUse">
			<stop  offset="0" style="stop-color:#EEECEA"/>
			<stop  offset="0" style="stop-color:#FCFCFB"/>
			<stop  offset="0" style="stop-color:#FFFFFF"/>
			<stop  offset="0.1238" style="stop-color:#F3F3F3"/>
			<stop  offset="0.3603" style="stop-color:#D4D4D4"/>
			<stop  offset="0.5225" style="stop-color:#BBBBBB"/>
			<stop  offset="0.6003" style="stop-color:#B0B1B2"/>
			<stop  offset="0.7312" style="stop-color:#949799"/>
			<stop  offset="0.8982" style="stop-color:#696F71"/>
			<stop  offset="1" style="stop-color:#4C5355"/>
		</radialGradient>
		<rect x="270.474" y="104.74" fill="url(#SVGID_39_)" width="1.214" height="2.965"/>
		<radialGradient id="SVGID_40_" cx="271.0806" cy="101.6836" r="1.133" gradientUnits="userSpaceOnUse">
			<stop  offset="0" style="stop-color:#EEECEA"/>
			<stop  offset="0" style="stop-color:#FCFCFB"/>
			<stop  offset="0" style="stop-color:#FFFFFF"/>
			<stop  offset="0.1238" style="stop-color:#F3F3F3"/>
			<stop  offset="0.3603" style="stop-color:#D4D4D4"/>
			<stop  offset="0.5225" style="stop-color:#BBBBBB"/>
			<stop  offset="0.6003" style="stop-color:#B0B1B2"/>
			<stop  offset="0.7312" style="stop-color:#949799"/>
			<stop  offset="0.8982" style="stop-color:#696F71"/>
			<stop  offset="1" style="stop-color:#4C5355"/>
		</radialGradient>
		<rect x="270.474" y="100.2" fill="url(#SVGID_40_)" width="1.214" height="2.966"/>
		<radialGradient id="SVGID_41_" cx="252.3408" cy="101.7568" r="60.9148" gradientUnits="userSpaceOnUse">
			<stop  offset="0" style="stop-color:#EEECEA"/>
			<stop  offset="0" style="stop-color:#FCFCFB"/>
			<stop  offset="0" style="stop-color:#FFFFFF"/>
			<stop  offset="0.1238" style="stop-color:#F3F3F3"/>
			<stop  offset="0.3603" style="stop-color:#D4D4D4"/>
			<stop  offset="0.5225" style="stop-color:#BBBBBB"/>
			<stop  offset="0.6003" style="stop-color:#B0B1B2"/>
			<stop  offset="0.7312" style="stop-color:#949799"/>
			<stop  offset="0.8982" style="stop-color:#696F71"/>
			<stop  offset="1" style="stop-color:#4C5355"/>
		</radialGradient>
		<path fill="url(#SVGID_41_)" d="M252.341,40.842c-33.586,0-60.916,27.326-60.916,60.916c0,33.585,27.329,60.913,60.916,60.913
			c33.588,0,60.916-27.327,60.916-60.913C313.256,68.168,285.929,40.842,252.341,40.842z M252.341,158.492
			c-31.282,0-56.736-25.45-56.736-56.733c0-31.286,25.454-56.735,56.736-56.735c31.28,0,56.731,25.449,56.731,56.735
			C309.072,133.042,283.621,158.492,252.341,158.492z"/>
	</g>
	<g>
		<radialGradient id="SVGID_42_" cx="114.9331" cy="206.499" r="272.8871" gradientUnits="userSpaceOnUse">
			<stop  offset="0" style="stop-color:#EEECEA"/>
			<stop  offset="0" style="stop-color:#FCFCFB"/>
			<stop  offset="0" style="stop-color:#FFFFFF"/>
			<stop  offset="0.1238" style="stop-color:#F3F3F3"/>
			<stop  offset="0.3603" style="stop-color:#D4D4D4"/>
			<stop  offset="0.5225" style="stop-color:#BBBBBB"/>
			<stop  offset="0.6003" style="stop-color:#B0B1B2"/>
			<stop  offset="0.7312" style="stop-color:#949799"/>
			<stop  offset="0.8982" style="stop-color:#696F71"/>
			<stop  offset="1" style="stop-color:#4C5355"/>
		</radialGradient>
		<path fill="url(#SVGID_42_)" d="M172.951,199.373c0,3.882-0.69,7.5-2.072,10.855c-1.381,3.355-3.306,6.251-5.773,8.684
			c-2.467,2.435-5.363,4.342-8.684,5.724c-3.323,1.382-6.958,2.072-10.905,2.072s-7.583-0.69-10.904-2.072
			c-3.323-1.381-6.218-3.289-8.684-5.724c-2.467-2.433-4.392-5.329-5.773-8.684c-1.382-3.355-2.073-6.973-2.073-10.855
			c0-3.881,0.691-7.482,2.073-10.806c1.381-3.321,3.306-6.217,5.773-8.684c2.466-2.467,5.361-4.392,8.684-5.773
			c3.321-1.381,6.957-2.073,10.904-2.073s7.582,0.691,10.905,2.073c3.321,1.381,6.217,3.306,8.684,5.773
			c2.467,2.467,4.392,5.363,5.773,8.684C172.26,191.89,172.951,195.492,172.951,199.373z M166.733,199.373
			c0-3.025-0.543-5.854-1.628-8.486c-1.085-2.631-2.565-4.885-4.441-6.76c-1.875-1.875-4.112-3.355-6.71-4.44
			c-2.6-1.086-5.412-1.628-8.438-1.628c-3.027,0-5.823,0.542-8.388,1.628c-2.566,1.085-4.787,2.566-6.662,4.44
			c-1.875,1.875-3.354,4.129-4.44,6.76c-1.085,2.632-1.628,5.461-1.628,8.486c0,3.094,0.543,5.938,1.628,8.537
			c1.086,2.6,2.566,4.835,4.44,6.71c1.875,1.875,4.096,3.355,6.662,4.441c2.565,1.085,5.361,1.628,8.388,1.628
			c3.026,0,5.837-0.543,8.438-1.628c2.599-1.086,4.836-2.566,6.71-4.441c1.875-1.875,3.355-4.11,4.441-6.71
			C166.19,205.311,166.733,202.466,166.733,199.373z"/>
		<radialGradient id="SVGID_43_" cx="114.9336" cy="206.499" r="272.8865" gradientUnits="userSpaceOnUse">
			<stop  offset="0" style="stop-color:#EEECEA"/>
			<stop  offset="0" style="stop-color:#FCFCFB"/>
			<stop  offset="0" style="stop-color:#FFFFFF"/>
			<stop  offset="0.1238" style="stop-color:#F3F3F3"/>
			<stop  offset="0.3603" style="stop-color:#D4D4D4"/>
			<stop  offset="0.5225" style="stop-color:#BBBBBB"/>
			<stop  offset="0.6003" style="stop-color:#B0B1B2"/>
			<stop  offset="0.7312" style="stop-color:#949799"/>
			<stop  offset="0.8982" style="stop-color:#696F71"/>
			<stop  offset="1" style="stop-color:#4C5355"/>
		</radialGradient>
		<path fill="url(#SVGID_43_)" d="M241.042,225.524v-27.533c0-3.947-0.479-7.187-1.431-9.72c-0.955-2.532-2.255-4.555-3.898-6.069
			c-1.119-0.987-2.649-1.925-4.589-2.813c-1.941-0.888-4.589-1.333-7.944-1.333l-17.861,0.099v47.368h-6.218l-0.098-53.487h23.881
			c0.921,0,2.023,0.05,3.306,0.148c1.283,0.098,2.647,0.33,4.095,0.69c1.447,0.363,2.961,0.888,4.54,1.579
			c1.579,0.691,3.158,1.662,4.737,2.911c5.196,4.408,7.796,11.284,7.796,20.625v27.533H241.042z"/>
		<radialGradient id="SVGID_44_" cx="114.9326" cy="206.499" r="272.8874" gradientUnits="userSpaceOnUse">
			<stop  offset="0" style="stop-color:#EEECEA"/>
			<stop  offset="0" style="stop-color:#FCFCFB"/>
			<stop  offset="0" style="stop-color:#FFFFFF"/>
			<stop  offset="0.1238" style="stop-color:#F3F3F3"/>
			<stop  offset="0.3603" style="stop-color:#D4D4D4"/>
			<stop  offset="0.5225" style="stop-color:#BBBBBB"/>
			<stop  offset="0.6003" style="stop-color:#B0B1B2"/>
			<stop  offset="0.7312" style="stop-color:#949799"/>
			<stop  offset="0.8982" style="stop-color:#696F71"/>
			<stop  offset="1" style="stop-color:#4C5355"/>
		</radialGradient>
		<path fill="url(#SVGID_44_)" d="M270.942,225.524v-4.638l28.618-41.645h-28.717v-6.02h37.302v4.737l-28.618,41.546h28.42v6.02
			H270.942z"/>
		<radialGradient id="SVGID_45_" cx="114.9331" cy="206.499" r="272.8864" gradientUnits="userSpaceOnUse">
			<stop  offset="0" style="stop-color:#EEECEA"/>
			<stop  offset="0" style="stop-color:#FCFCFB"/>
			<stop  offset="0" style="stop-color:#FFFFFF"/>
			<stop  offset="0.1238" style="stop-color:#F3F3F3"/>
			<stop  offset="0.3603" style="stop-color:#D4D4D4"/>
			<stop  offset="0.5225" style="stop-color:#BBBBBB"/>
			<stop  offset="0.6003" style="stop-color:#B0B1B2"/>
			<stop  offset="0.7312" style="stop-color:#949799"/>
			<stop  offset="0.8982" style="stop-color:#696F71"/>
			<stop  offset="1" style="stop-color:#4C5355"/>
		</radialGradient>
		<path fill="url(#SVGID_45_)" d="M380.382,225.524l-0.098-7.895c-2.501,2.96-5.494,5.214-8.979,6.76
			c-3.489,1.545-7.437,2.319-11.843,2.319c-4.278,0-8.109-0.773-11.497-2.319c-3.39-1.545-6.267-3.585-8.635-6.118
			c-2.369-2.532-4.179-5.443-5.428-8.733c-1.251-3.29-1.875-6.677-1.875-10.165c0-3.617,0.642-7.071,1.924-10.362
			c1.284-3.289,3.109-6.183,5.477-8.684c2.368-2.499,5.246-4.505,8.635-6.02c3.388-1.513,7.188-2.27,11.398-2.27H386.6v53.487
			H380.382z M359.461,178.057c-2.896,0-5.642,0.527-8.24,1.579c-2.6,1.053-4.853,2.516-6.76,4.391
			c-1.909,1.875-3.422,4.113-4.54,6.71c-1.12,2.6-1.678,5.477-1.678,8.635c0,2.501,0.444,5.018,1.333,7.549
			c0.888,2.534,2.22,4.82,3.997,6.858c1.776,2.041,4.012,3.701,6.71,4.984c2.697,1.282,5.854,1.924,9.473,1.924
			c3.159,0,6.002-0.575,8.537-1.727c2.532-1.15,4.718-2.68,6.563-4.589c1.775-1.776,3.189-4.012,4.243-6.71
			c0.854-2.368,1.282-10.362,1.282-23.98v-5.625H359.461z"/>
	</g>
</g>
</svg>
