<?xml version="1.0" encoding="utf-8"?>
<!-- Generator: Adobe Illustrator 19.0.0, SVG Export Plug-In . SVG Version: 6.00 Build 0)  -->
<svg version="1.1" id="Layer_1" xmlns="http://www.w3.org/2000/svg" xmlns:xlink="http://www.w3.org/1999/xlink" x="0px" y="0px"
	 viewBox="-174 357.4 261.4 78.6" style="enable-background:new -174 357.4 261.4 78.6;" xml:space="preserve">
<style type="text/css">
	.st0{fill:url(#SVGID_1_);}
	.st1{fill:url(#SVGID_2_);}
	.st2{fill:url(#SVGID_3_);}
	.st3{fill:url(#SVGID_4_);}
	.st4{fill:url(#SVGID_5_);}
	.st5{fill:url(#SVGID_6_);}
	.st6{fill:url(#SVGID_7_);}
	.st7{fill:url(#SVGID_8_);}
	.st8{fill:url(#SVGID_9_);}
	.st9{fill:url(#SVGID_10_);}
	.st10{fill:url(#SVGID_11_);}
	.st11{fill:url(#SVGID_12_);}
	.st12{fill:url(#SVGID_13_);}
	.st13{fill:url(#SVGID_14_);}
	.st14{fill:url(#SVGID_15_);}
	.st15{fill:url(#SVGID_16_);}
	.st16{fill:url(#SVGID_17_);}
	.st17{fill:url(#SVGID_18_);}
	.st18{fill:url(#SVGID_19_);}
	.st19{fill:url(#SVGID_20_);}
	.st20{fill:url(#SVGID_21_);}
	.st21{fill:url(#SVGID_22_);}
	.st22{fill:url(#SVGID_23_);}
	.st23{fill:url(#SVGID_24_);}
	.st24{fill:url(#SVGID_25_);}
	.st25{fill:url(#SVGID_26_);}
	.st26{fill:url(#SVGID_27_);}
	.st27{fill:url(#SVGID_28_);}
	.st28{fill:url(#SVGID_29_);}
	.st29{fill:url(#SVGID_30_);}
	.st30{fill:url(#SVGID_31_);}
	.st31{fill:url(#SVGID_32_);}
	.st32{fill:url(#SVGID_33_);}
	.st33{fill:url(#SVGID_34_);}
	.st34{fill:url(#SVGID_35_);}
	.st35{fill:url(#SVGID_36_);}
	.st36{fill:url(#SVGID_37_);}
	.st37{fill:url(#SVGID_38_);}
	.st38{fill:url(#SVGID_39_);}
	.st39{fill:url(#SVGID_40_);}
	.st40{fill:url(#SVGID_41_);}
	.st41{fill:url(#SVGID_42_);}
	.st42{fill:url(#SVGID_43_);}
	.st43{fill:url(#SVGID_44_);}
	.st44{fill:url(#SVGID_45_);}
</style>
<g>
	
		<radialGradient id="SVGID_1_" cx="-87.7249" cy="400.3635" r="175.9908" gradientTransform="matrix(1 0 0 -1 0 794.8)" gradientUnits="userSpaceOnUse">
		<stop  offset="0" style="stop-color:#E6E3E0"/>
		<stop  offset="0" style="stop-color:#F9F8F7"/>
		<stop  offset="0" style="stop-color:#FFFFFF"/>
		<stop  offset="0.1238" style="stop-color:#ECEDED"/>
		<stop  offset="0.3603" style="stop-color:#C8C9CB"/>
		<stop  offset="0.5225" style="stop-color:#ADAFB1"/>
		<stop  offset="0.6003" style="stop-color:#A2A5A8"/>
		<stop  offset="0.7312" style="stop-color:#878C8F"/>
		<stop  offset="0.8982" style="stop-color:#60696C"/>
		<stop  offset="1" style="stop-color:#465054"/>
	</radialGradient>
	<path class="st0" d="M-73.4,415.2h0.9v1h-0.9V415.2z M-73.4,417.9h0.9v6.8h-0.9V417.9z"/>
	
		<radialGradient id="SVGID_2_" cx="-87.7244" cy="400.3638" r="175.9908" gradientTransform="matrix(1 0 0 -1 0 794.8)" gradientUnits="userSpaceOnUse">
		<stop  offset="0" style="stop-color:#E6E3E0"/>
		<stop  offset="0" style="stop-color:#F9F8F7"/>
		<stop  offset="0" style="stop-color:#FFFFFF"/>
		<stop  offset="0.1238" style="stop-color:#ECEDED"/>
		<stop  offset="0.3603" style="stop-color:#C8C9CB"/>
		<stop  offset="0.5225" style="stop-color:#ADAFB1"/>
		<stop  offset="0.6003" style="stop-color:#A2A5A8"/>
		<stop  offset="0.7312" style="stop-color:#878C8F"/>
		<stop  offset="0.8982" style="stop-color:#60696C"/>
		<stop  offset="1" style="stop-color:#465054"/>
	</radialGradient>
	<path class="st1" d="M-63.6,424.6v-6.8l0.8,0.6c0.5-0.5,1.2-0.8,1.9-0.8c0.8,0,1.4,0.3,1.9,0.8s0.8,1.2,0.8,1.9v4.2h-0.9v-4.1
		c0-0.5-0.2-0.9-0.5-1.3c-0.3-0.3-0.8-0.5-1.3-0.5s-0.9,0.2-1.3,0.5c-0.3,0.3-0.5,0.8-0.5,1.3v4.2H-63.6z"/>
	
		<radialGradient id="SVGID_3_" cx="-87.724" cy="400.3638" r="175.9899" gradientTransform="matrix(1 0 0 -1 0 794.8)" gradientUnits="userSpaceOnUse">
		<stop  offset="0" style="stop-color:#E6E3E0"/>
		<stop  offset="0" style="stop-color:#F9F8F7"/>
		<stop  offset="0" style="stop-color:#FFFFFF"/>
		<stop  offset="0.1238" style="stop-color:#ECEDED"/>
		<stop  offset="0.3603" style="stop-color:#C8C9CB"/>
		<stop  offset="0.5225" style="stop-color:#ADAFB1"/>
		<stop  offset="0.6003" style="stop-color:#A2A5A8"/>
		<stop  offset="0.7312" style="stop-color:#878C8F"/>
		<stop  offset="0.8982" style="stop-color:#60696C"/>
		<stop  offset="1" style="stop-color:#465054"/>
	</radialGradient>
	<path class="st2" d="M-39.8,424.6h-0.9v-4.3c0-0.5-0.2-0.9-0.5-1.2c-0.3-0.3-0.7-0.5-1.2-0.5s-0.9,0.2-1.2,0.5
		c-0.3,0.3-0.5,0.7-0.5,1.2v4.3H-45v-4.3c0-0.5-0.2-0.9-0.5-1.2c-0.3-0.3-0.7-0.5-1.2-0.5s-0.9,0.2-1.2,0.5
		c-0.3,0.3-0.5,0.7-0.5,1.2v4.3h-0.9v-6.8l0.8,0.6c0.5-0.5,1.1-0.8,1.9-0.8c0.4,0,0.9,0.1,1.3,0.3c0.4,0.2,0.7,0.5,0.9,0.8
		c0.5-0.8,1.3-1.1,2.2-1.1c0.4,0,0.7,0.1,1,0.2s0.6,0.3,0.8,0.6c0.2,0.2,0.4,0.5,0.6,0.8c0.2,0.3,0.2,0.7,0.2,1v4.4H-39.8z"/>
	
		<radialGradient id="SVGID_4_" cx="-87.7249" cy="400.3637" r="175.992" gradientTransform="matrix(1 0 0 -1 0 794.8)" gradientUnits="userSpaceOnUse">
		<stop  offset="0" style="stop-color:#E6E3E0"/>
		<stop  offset="0" style="stop-color:#F9F8F7"/>
		<stop  offset="0" style="stop-color:#FFFFFF"/>
		<stop  offset="0.1238" style="stop-color:#ECEDED"/>
		<stop  offset="0.3603" style="stop-color:#C8C9CB"/>
		<stop  offset="0.5225" style="stop-color:#ADAFB1"/>
		<stop  offset="0.6003" style="stop-color:#A2A5A8"/>
		<stop  offset="0.7312" style="stop-color:#878C8F"/>
		<stop  offset="0.8982" style="stop-color:#60696C"/>
		<stop  offset="1" style="stop-color:#465054"/>
	</radialGradient>
	<path class="st3" d="M-27.6,417.7c1,0,1.8,0.3,2.5,1c0.7,0.7,1,1.5,1,2.5c0,1-0.3,1.8-1,2.5c-0.7,0.7-1.5,1.1-2.5,1.1
		s-1.8-0.4-2.5-1.1c-0.7-0.7-1.1-1.5-1.1-2.5s0.4-1.8,1.1-2.5C-29.4,418-28.6,417.7-27.6,417.7z M-27.6,418.6
		c-0.7,0-1.4,0.3-1.9,0.8s-0.8,1.1-0.8,1.9c0,0.7,0.3,1.4,0.8,1.9s1.1,0.8,1.9,0.8c0.7,0,1.4-0.3,1.9-0.8s0.8-1.1,0.8-1.9
		c0-0.7-0.3-1.4-0.8-1.9C-26.3,418.9-26.9,418.6-27.6,418.6z"/>
	
		<radialGradient id="SVGID_5_" cx="-87.7243" cy="400.364" r="175.991" gradientTransform="matrix(1 0 0 -1 0 794.8)" gradientUnits="userSpaceOnUse">
		<stop  offset="0" style="stop-color:#E6E3E0"/>
		<stop  offset="0" style="stop-color:#F9F8F7"/>
		<stop  offset="0" style="stop-color:#FFFFFF"/>
		<stop  offset="0.1238" style="stop-color:#ECEDED"/>
		<stop  offset="0.3603" style="stop-color:#C8C9CB"/>
		<stop  offset="0.5225" style="stop-color:#ADAFB1"/>
		<stop  offset="0.6003" style="stop-color:#A2A5A8"/>
		<stop  offset="0.7312" style="stop-color:#878C8F"/>
		<stop  offset="0.8982" style="stop-color:#60696C"/>
		<stop  offset="1" style="stop-color:#465054"/>
	</radialGradient>
	<path class="st4" d="M-14.6,414.3h-1.1l0.5-0.9h1.5v5.5c0.7-0.8,1.6-1.2,2.7-1.2c1,0,1.8,0.3,2.5,1c0.7,0.7,1,1.5,1,2.5
		c0,1-0.3,1.8-1,2.5c-0.7,0.7-1.5,1.1-2.5,1.1s-1.9-0.4-2.6-1.1l-1,0.9L-14.6,414.3L-14.6,414.3z M-11,418.6c-0.7,0-1.4,0.3-1.9,0.8
		s-0.8,1.1-0.8,1.9c0,0.7,0.3,1.4,0.8,1.9s1.1,0.8,1.9,0.8c0.7,0,1.4-0.3,1.9-0.8s0.8-1.1,0.8-1.9c0-0.7-0.3-1.4-0.8-1.9
		S-10.3,418.6-11,418.6z"/>
	
		<radialGradient id="SVGID_6_" cx="-87.7267" cy="400.3635" r="175.995" gradientTransform="matrix(1 0 0 -1 0 794.8)" gradientUnits="userSpaceOnUse">
		<stop  offset="0" style="stop-color:#E6E3E0"/>
		<stop  offset="0" style="stop-color:#F9F8F7"/>
		<stop  offset="0" style="stop-color:#FFFFFF"/>
		<stop  offset="0.1238" style="stop-color:#ECEDED"/>
		<stop  offset="0.3603" style="stop-color:#C8C9CB"/>
		<stop  offset="0.5225" style="stop-color:#ADAFB1"/>
		<stop  offset="0.6003" style="stop-color:#A2A5A8"/>
		<stop  offset="0.7312" style="stop-color:#878C8F"/>
		<stop  offset="0.8982" style="stop-color:#60696C"/>
		<stop  offset="1" style="stop-color:#465054"/>
	</radialGradient>
	<path class="st5" d="M1.2,415.2h0.9v1H1.2V415.2z M1.2,417.9h0.9v6.8H1.2V417.9z"/>
	
		<radialGradient id="SVGID_7_" cx="-87.716" cy="400.3636" r="175.9772" gradientTransform="matrix(1 0 0 -1 0 794.8)" gradientUnits="userSpaceOnUse">
		<stop  offset="0" style="stop-color:#E6E3E0"/>
		<stop  offset="0" style="stop-color:#F9F8F7"/>
		<stop  offset="0" style="stop-color:#FFFFFF"/>
		<stop  offset="0.1238" style="stop-color:#ECEDED"/>
		<stop  offset="0.3603" style="stop-color:#C8C9CB"/>
		<stop  offset="0.5225" style="stop-color:#ADAFB1"/>
		<stop  offset="0.6003" style="stop-color:#A2A5A8"/>
		<stop  offset="0.7312" style="stop-color:#878C8F"/>
		<stop  offset="0.8982" style="stop-color:#60696C"/>
		<stop  offset="1" style="stop-color:#465054"/>
	</radialGradient>
	<path class="st6" d="M10.9,424.6v-11.2h0.9v11.2H10.9z"/>
	
		<radialGradient id="SVGID_8_" cx="-87.727" cy="400.3635" r="175.9954" gradientTransform="matrix(1 0 0 -1 0 794.8)" gradientUnits="userSpaceOnUse">
		<stop  offset="0" style="stop-color:#E6E3E0"/>
		<stop  offset="0" style="stop-color:#F9F8F7"/>
		<stop  offset="0" style="stop-color:#FFFFFF"/>
		<stop  offset="0.1238" style="stop-color:#ECEDED"/>
		<stop  offset="0.3603" style="stop-color:#C8C9CB"/>
		<stop  offset="0.5225" style="stop-color:#ADAFB1"/>
		<stop  offset="0.6003" style="stop-color:#A2A5A8"/>
		<stop  offset="0.7312" style="stop-color:#878C8F"/>
		<stop  offset="0.8982" style="stop-color:#60696C"/>
		<stop  offset="1" style="stop-color:#465054"/>
	</radialGradient>
	<path class="st7" d="M20.6,415.2h0.9v1h-0.9V415.2z M20.6,417.9h0.9v6.8h-0.9V417.9z"/>
	
		<radialGradient id="SVGID_9_" cx="-87.7248" cy="400.3637" r="175.9921" gradientTransform="matrix(1 0 0 -1 0 794.8)" gradientUnits="userSpaceOnUse">
		<stop  offset="0" style="stop-color:#E6E3E0"/>
		<stop  offset="0" style="stop-color:#F9F8F7"/>
		<stop  offset="0" style="stop-color:#FFFFFF"/>
		<stop  offset="0.1238" style="stop-color:#ECEDED"/>
		<stop  offset="0.3603" style="stop-color:#C8C9CB"/>
		<stop  offset="0.5225" style="stop-color:#ADAFB1"/>
		<stop  offset="0.6003" style="stop-color:#A2A5A8"/>
		<stop  offset="0.7312" style="stop-color:#878C8F"/>
		<stop  offset="0.8982" style="stop-color:#60696C"/>
		<stop  offset="1" style="stop-color:#465054"/>
	</radialGradient>
	<path class="st8" d="M36.3,423.7c-0.7,0.7-1.6,1.1-2.6,1.1s-1.8-0.4-2.5-1.1c-0.7-0.7-1.1-1.5-1.1-2.5s0.4-1.8,1.1-2.5
		c0.7-0.7,1.5-1,2.5-1s1.9,0.4,2.6,1.1l1-0.9v6.8L36.3,423.7z M33.7,418.6c-0.7,0-1.4,0.3-1.9,0.8s-0.8,1.1-0.8,1.9
		c0,0.7,0.3,1.4,0.8,1.9s1.1,0.8,1.9,0.8c0.7,0,1.4-0.3,1.9-0.8s0.8-1.1,0.8-1.9c0-0.7-0.3-1.4-0.8-1.9
		C35.1,418.9,34.5,418.6,33.7,418.6z"/>
	
		<radialGradient id="SVGID_10_" cx="-87.7242" cy="400.3638" r="175.9909" gradientTransform="matrix(1 0 0 -1 0 794.8)" gradientUnits="userSpaceOnUse">
		<stop  offset="0" style="stop-color:#E6E3E0"/>
		<stop  offset="0" style="stop-color:#F9F8F7"/>
		<stop  offset="0" style="stop-color:#FFFFFF"/>
		<stop  offset="0.1238" style="stop-color:#ECEDED"/>
		<stop  offset="0.3603" style="stop-color:#C8C9CB"/>
		<stop  offset="0.5225" style="stop-color:#ADAFB1"/>
		<stop  offset="0.6003" style="stop-color:#A2A5A8"/>
		<stop  offset="0.7312" style="stop-color:#878C8F"/>
		<stop  offset="0.8982" style="stop-color:#60696C"/>
		<stop  offset="1" style="stop-color:#465054"/>
	</radialGradient>
	<path class="st9" d="M49.7,417.9l-0.4,0.8c-0.1,0-0.3-0.1-0.5-0.1c-0.5,0-0.9,0.2-1.2,0.5c-0.3,0.3-0.5,0.7-0.5,1.2v4.3h-0.9v-6.8
		l0.8,0.6c0.5-0.5,1.1-0.8,1.9-0.8C49.1,417.7,49.4,417.7,49.7,417.9z"/>
	
		<radialGradient id="SVGID_11_" cx="-87.7284" cy="400.3635" r="175.9965" gradientTransform="matrix(1 0 0 -1 0 794.8)" gradientUnits="userSpaceOnUse">
		<stop  offset="0" style="stop-color:#E6E3E0"/>
		<stop  offset="0" style="stop-color:#F9F8F7"/>
		<stop  offset="0" style="stop-color:#FFFFFF"/>
		<stop  offset="0.1238" style="stop-color:#ECEDED"/>
		<stop  offset="0.3603" style="stop-color:#C8C9CB"/>
		<stop  offset="0.5225" style="stop-color:#ADAFB1"/>
		<stop  offset="0.6003" style="stop-color:#A2A5A8"/>
		<stop  offset="0.7312" style="stop-color:#878C8F"/>
		<stop  offset="0.8982" style="stop-color:#60696C"/>
		<stop  offset="1" style="stop-color:#465054"/>
	</radialGradient>
	<path class="st10" d="M58.3,415.2h0.9v1h-0.9V415.2z M58.3,417.9h0.9v6.8h-0.9V417.9z"/>
	
		<radialGradient id="SVGID_12_" cx="-87.7231" cy="400.3637" r="175.9896" gradientTransform="matrix(1 0 0 -1 0 794.8)" gradientUnits="userSpaceOnUse">
		<stop  offset="0" style="stop-color:#E6E3E0"/>
		<stop  offset="0" style="stop-color:#F9F8F7"/>
		<stop  offset="0" style="stop-color:#FFFFFF"/>
		<stop  offset="0.1238" style="stop-color:#ECEDED"/>
		<stop  offset="0.3603" style="stop-color:#C8C9CB"/>
		<stop  offset="0.5225" style="stop-color:#ADAFB1"/>
		<stop  offset="0.6003" style="stop-color:#A2A5A8"/>
		<stop  offset="0.7312" style="stop-color:#878C8F"/>
		<stop  offset="0.8982" style="stop-color:#60696C"/>
		<stop  offset="1" style="stop-color:#465054"/>
	</radialGradient>
	<path class="st11" d="M73.9,423.7c-0.7,0.7-1.6,1.1-2.6,1.1s-1.8-0.4-2.5-1.1c-0.7-0.7-1.1-1.5-1.1-2.5s0.4-1.8,1.1-2.5
		c0.7-0.7,1.5-1,2.5-1s1.9,0.4,2.6,1.1l1-0.9v6.8L73.9,423.7z M71.3,418.6c-0.7,0-1.4,0.3-1.9,0.8s-0.8,1.1-0.8,1.9
		c0,0.7,0.3,1.4,0.8,1.9s1.1,0.8,1.9,0.8c0.7,0,1.4-0.3,1.9-0.8s0.8-1.1,0.8-1.9c0-0.7-0.3-1.4-0.8-1.9S72.1,418.6,71.3,418.6z"/>
</g>
<g>
	
		<radialGradient id="SVGID_13_" cx="-142.4307" cy="415.3175" r="1.2892" gradientTransform="matrix(1 0 0 -1 0 794.8)" gradientUnits="userSpaceOnUse">
		<stop  offset="0" style="stop-color:#E6E3E0"/>
		<stop  offset="0" style="stop-color:#F9F8F7"/>
		<stop  offset="0" style="stop-color:#FFFFFF"/>
		<stop  offset="0.1238" style="stop-color:#ECEDED"/>
		<stop  offset="0.3603" style="stop-color:#C8C9CB"/>
		<stop  offset="0.5225" style="stop-color:#ADAFB1"/>
		<stop  offset="0.6003" style="stop-color:#A2A5A8"/>
		<stop  offset="0.7312" style="stop-color:#878C8F"/>
		<stop  offset="0.8982" style="stop-color:#60696C"/>
		<stop  offset="1" style="stop-color:#465054"/>
	</radialGradient>
	<rect x="-143.1" y="377.8" class="st12" width="1.4" height="3.4"/>
	
		<radialGradient id="SVGID_14_" cx="-142.4307" cy="410.15" r="1.2914" gradientTransform="matrix(1 0 0 -1 0 794.8)" gradientUnits="userSpaceOnUse">
		<stop  offset="0" style="stop-color:#E6E3E0"/>
		<stop  offset="0" style="stop-color:#F9F8F7"/>
		<stop  offset="0" style="stop-color:#FFFFFF"/>
		<stop  offset="0.1238" style="stop-color:#ECEDED"/>
		<stop  offset="0.3603" style="stop-color:#C8C9CB"/>
		<stop  offset="0.5225" style="stop-color:#ADAFB1"/>
		<stop  offset="0.6003" style="stop-color:#A2A5A8"/>
		<stop  offset="0.7312" style="stop-color:#878C8F"/>
		<stop  offset="0.8982" style="stop-color:#60696C"/>
		<stop  offset="1" style="stop-color:#465054"/>
	</radialGradient>
	<polygon class="st13" points="-141.7,386.3 -141.7,383 -143.1,383 -143.1,385.1 -143.1,386.3 -142.1,386.3 	"/>
	
		<radialGradient id="SVGID_15_" cx="-142.4307" cy="420.4835" r="1.2879" gradientTransform="matrix(1 0 0 -1 0 794.8)" gradientUnits="userSpaceOnUse">
		<stop  offset="0" style="stop-color:#E6E3E0"/>
		<stop  offset="0" style="stop-color:#F9F8F7"/>
		<stop  offset="0" style="stop-color:#FFFFFF"/>
		<stop  offset="0.1238" style="stop-color:#ECEDED"/>
		<stop  offset="0.3603" style="stop-color:#C8C9CB"/>
		<stop  offset="0.5225" style="stop-color:#ADAFB1"/>
		<stop  offset="0.6003" style="stop-color:#A2A5A8"/>
		<stop  offset="0.7312" style="stop-color:#878C8F"/>
		<stop  offset="0.8982" style="stop-color:#60696C"/>
		<stop  offset="1" style="stop-color:#465054"/>
	</radialGradient>
	<polygon class="st14" points="-141.7,372.6 -143.1,373.5 -143.1,376 -141.7,376 	"/>
	
		<radialGradient id="SVGID_16_" cx="-142.4307" cy="399.8204" r="1.2885" gradientTransform="matrix(1 0 0 -1 0 794.8)" gradientUnits="userSpaceOnUse">
		<stop  offset="0" style="stop-color:#E6E3E0"/>
		<stop  offset="0" style="stop-color:#F9F8F7"/>
		<stop  offset="0" style="stop-color:#FFFFFF"/>
		<stop  offset="0.1238" style="stop-color:#ECEDED"/>
		<stop  offset="0.3603" style="stop-color:#C8C9CB"/>
		<stop  offset="0.5225" style="stop-color:#ADAFB1"/>
		<stop  offset="0.6003" style="stop-color:#A2A5A8"/>
		<stop  offset="0.7312" style="stop-color:#878C8F"/>
		<stop  offset="0.8982" style="stop-color:#60696C"/>
		<stop  offset="1" style="stop-color:#465054"/>
	</radialGradient>
	<rect x="-143.1" y="393.3" class="st15" width="1.4" height="3.4"/>
	
		<radialGradient id="SVGID_17_" cx="-142.4307" cy="404.9869" r="1.2889" gradientTransform="matrix(1 0 0 -1 0 794.8)" gradientUnits="userSpaceOnUse">
		<stop  offset="0" style="stop-color:#E6E3E0"/>
		<stop  offset="0" style="stop-color:#F9F8F7"/>
		<stop  offset="0" style="stop-color:#FFFFFF"/>
		<stop  offset="0.1238" style="stop-color:#ECEDED"/>
		<stop  offset="0.3603" style="stop-color:#C8C9CB"/>
		<stop  offset="0.5225" style="stop-color:#ADAFB1"/>
		<stop  offset="0.6003" style="stop-color:#A2A5A8"/>
		<stop  offset="0.7312" style="stop-color:#878C8F"/>
		<stop  offset="0.8982" style="stop-color:#60696C"/>
		<stop  offset="1" style="stop-color:#465054"/>
	</radialGradient>
	<rect x="-143.1" y="388.1" class="st16" width="1.4" height="3.4"/>
	
		<radialGradient id="SVGID_18_" cx="-142.4307" cy="394.6554" r="1.2886" gradientTransform="matrix(1 0 0 -1 0 794.8)" gradientUnits="userSpaceOnUse">
		<stop  offset="0" style="stop-color:#E6E3E0"/>
		<stop  offset="0" style="stop-color:#F9F8F7"/>
		<stop  offset="0" style="stop-color:#FFFFFF"/>
		<stop  offset="0.1238" style="stop-color:#ECEDED"/>
		<stop  offset="0.3603" style="stop-color:#C8C9CB"/>
		<stop  offset="0.5225" style="stop-color:#ADAFB1"/>
		<stop  offset="0.6003" style="stop-color:#A2A5A8"/>
		<stop  offset="0.7312" style="stop-color:#878C8F"/>
		<stop  offset="0.8982" style="stop-color:#60696C"/>
		<stop  offset="1" style="stop-color:#465054"/>
	</radialGradient>
	<rect x="-143.1" y="398.5" class="st17" width="1.4" height="3.4"/>
	
		<radialGradient id="SVGID_19_" cx="-154.3967" cy="378.2911" r="0.9626" gradientTransform="matrix(1 0 0 -1 0 794.8)" gradientUnits="userSpaceOnUse">
		<stop  offset="0" style="stop-color:#E6E3E0"/>
		<stop  offset="0" style="stop-color:#F9F8F7"/>
		<stop  offset="0" style="stop-color:#FFFFFF"/>
		<stop  offset="0.1238" style="stop-color:#ECEDED"/>
		<stop  offset="0.3603" style="stop-color:#C8C9CB"/>
		<stop  offset="0.5225" style="stop-color:#ADAFB1"/>
		<stop  offset="0.6003" style="stop-color:#A2A5A8"/>
		<stop  offset="0.7312" style="stop-color:#878C8F"/>
		<stop  offset="0.8982" style="stop-color:#60696C"/>
		<stop  offset="1" style="stop-color:#465054"/>
	</radialGradient>
	<rect x="-154.9" y="415.2" class="st18" width="1" height="2.5"/>
	
		<radialGradient id="SVGID_20_" cx="-154.3967" cy="382.15" r="0.9629" gradientTransform="matrix(1 0 0 -1 0 794.8)" gradientUnits="userSpaceOnUse">
		<stop  offset="0" style="stop-color:#E6E3E0"/>
		<stop  offset="0" style="stop-color:#F9F8F7"/>
		<stop  offset="0" style="stop-color:#FFFFFF"/>
		<stop  offset="0.1238" style="stop-color:#ECEDED"/>
		<stop  offset="0.3603" style="stop-color:#C8C9CB"/>
		<stop  offset="0.5225" style="stop-color:#ADAFB1"/>
		<stop  offset="0.6003" style="stop-color:#A2A5A8"/>
		<stop  offset="0.7312" style="stop-color:#878C8F"/>
		<stop  offset="0.8982" style="stop-color:#60696C"/>
		<stop  offset="1" style="stop-color:#465054"/>
	</radialGradient>
	<rect x="-154.9" y="411.4" class="st19" width="1" height="2.5"/>
	
		<radialGradient id="SVGID_21_" cx="-154.3967" cy="405.3028" r="0.9633" gradientTransform="matrix(1 0 0 -1 0 794.8)" gradientUnits="userSpaceOnUse">
		<stop  offset="0" style="stop-color:#E6E3E0"/>
		<stop  offset="0" style="stop-color:#F9F8F7"/>
		<stop  offset="0" style="stop-color:#FFFFFF"/>
		<stop  offset="0.1238" style="stop-color:#ECEDED"/>
		<stop  offset="0.3603" style="stop-color:#C8C9CB"/>
		<stop  offset="0.5225" style="stop-color:#ADAFB1"/>
		<stop  offset="0.6003" style="stop-color:#A2A5A8"/>
		<stop  offset="0.7312" style="stop-color:#878C8F"/>
		<stop  offset="0.8982" style="stop-color:#60696C"/>
		<stop  offset="1" style="stop-color:#465054"/>
	</radialGradient>
	<rect x="-154.9" y="388.2" class="st20" width="1" height="2.5"/>
	
		<radialGradient id="SVGID_22_" cx="-154.3967" cy="401.443" r="0.9623" gradientTransform="matrix(1 0 0 -1 0 794.8)" gradientUnits="userSpaceOnUse">
		<stop  offset="0" style="stop-color:#E6E3E0"/>
		<stop  offset="0" style="stop-color:#F9F8F7"/>
		<stop  offset="0" style="stop-color:#FFFFFF"/>
		<stop  offset="0.1238" style="stop-color:#ECEDED"/>
		<stop  offset="0.3603" style="stop-color:#C8C9CB"/>
		<stop  offset="0.5225" style="stop-color:#ADAFB1"/>
		<stop  offset="0.6003" style="stop-color:#A2A5A8"/>
		<stop  offset="0.7312" style="stop-color:#878C8F"/>
		<stop  offset="0.8982" style="stop-color:#60696C"/>
		<stop  offset="1" style="stop-color:#465054"/>
	</radialGradient>
	<rect x="-154.9" y="392.1" class="st21" width="1" height="2.5"/>
	
		<radialGradient id="SVGID_23_" cx="-154.3967" cy="409.1622" r="0.962" gradientTransform="matrix(1 0 0 -1 0 794.8)" gradientUnits="userSpaceOnUse">
		<stop  offset="0" style="stop-color:#E6E3E0"/>
		<stop  offset="0" style="stop-color:#F9F8F7"/>
		<stop  offset="0" style="stop-color:#FFFFFF"/>
		<stop  offset="0.1238" style="stop-color:#ECEDED"/>
		<stop  offset="0.3603" style="stop-color:#C8C9CB"/>
		<stop  offset="0.5225" style="stop-color:#ADAFB1"/>
		<stop  offset="0.6003" style="stop-color:#A2A5A8"/>
		<stop  offset="0.7312" style="stop-color:#878C8F"/>
		<stop  offset="0.8982" style="stop-color:#60696C"/>
		<stop  offset="1" style="stop-color:#465054"/>
	</radialGradient>
	<polygon class="st22" points="-153.9,384.4 -154.9,385 -154.9,386.9 -153.9,386.9 	"/>
	
		<radialGradient id="SVGID_24_" cx="-154.3967" cy="397.5846" r="0.9617" gradientTransform="matrix(1 0 0 -1 0 794.8)" gradientUnits="userSpaceOnUse">
		<stop  offset="0" style="stop-color:#E6E3E0"/>
		<stop  offset="0" style="stop-color:#F9F8F7"/>
		<stop  offset="0" style="stop-color:#FFFFFF"/>
		<stop  offset="0.1238" style="stop-color:#ECEDED"/>
		<stop  offset="0.3603" style="stop-color:#C8C9CB"/>
		<stop  offset="0.5225" style="stop-color:#ADAFB1"/>
		<stop  offset="0.6003" style="stop-color:#A2A5A8"/>
		<stop  offset="0.7312" style="stop-color:#878C8F"/>
		<stop  offset="0.8982" style="stop-color:#60696C"/>
		<stop  offset="1" style="stop-color:#465054"/>
	</radialGradient>
	<rect x="-154.9" y="396" class="st23" width="1" height="2.5"/>
	
		<radialGradient id="SVGID_25_" cx="-154.3967" cy="386.0079" r="0.9626" gradientTransform="matrix(1 0 0 -1 0 794.8)" gradientUnits="userSpaceOnUse">
		<stop  offset="0" style="stop-color:#E6E3E0"/>
		<stop  offset="0" style="stop-color:#F9F8F7"/>
		<stop  offset="0" style="stop-color:#FFFFFF"/>
		<stop  offset="0.1238" style="stop-color:#ECEDED"/>
		<stop  offset="0.3603" style="stop-color:#C8C9CB"/>
		<stop  offset="0.5225" style="stop-color:#ADAFB1"/>
		<stop  offset="0.6003" style="stop-color:#A2A5A8"/>
		<stop  offset="0.7312" style="stop-color:#878C8F"/>
		<stop  offset="0.8982" style="stop-color:#60696C"/>
		<stop  offset="1" style="stop-color:#465054"/>
	</radialGradient>
	<rect x="-154.9" y="407.5" class="st24" width="1" height="2.5"/>
	
		<radialGradient id="SVGID_26_" cx="-154.3967" cy="393.7262" r="0.9623" gradientTransform="matrix(1 0 0 -1 0 794.8)" gradientUnits="userSpaceOnUse">
		<stop  offset="0" style="stop-color:#E6E3E0"/>
		<stop  offset="0" style="stop-color:#F9F8F7"/>
		<stop  offset="0" style="stop-color:#FFFFFF"/>
		<stop  offset="0.1238" style="stop-color:#ECEDED"/>
		<stop  offset="0.3603" style="stop-color:#C8C9CB"/>
		<stop  offset="0.5225" style="stop-color:#ADAFB1"/>
		<stop  offset="0.6003" style="stop-color:#A2A5A8"/>
		<stop  offset="0.7312" style="stop-color:#878C8F"/>
		<stop  offset="0.8982" style="stop-color:#60696C"/>
		<stop  offset="1" style="stop-color:#465054"/>
	</radialGradient>
	<rect x="-154.9" y="399.8" class="st25" width="1" height="2.5"/>
	
		<radialGradient id="SVGID_27_" cx="-142.4307" cy="389.4913" r="1.2892" gradientTransform="matrix(1 0 0 -1 0 794.8)" gradientUnits="userSpaceOnUse">
		<stop  offset="0" style="stop-color:#E6E3E0"/>
		<stop  offset="0" style="stop-color:#F9F8F7"/>
		<stop  offset="0" style="stop-color:#FFFFFF"/>
		<stop  offset="0.1238" style="stop-color:#ECEDED"/>
		<stop  offset="0.3603" style="stop-color:#C8C9CB"/>
		<stop  offset="0.5225" style="stop-color:#ADAFB1"/>
		<stop  offset="0.6003" style="stop-color:#A2A5A8"/>
		<stop  offset="0.7312" style="stop-color:#878C8F"/>
		<stop  offset="0.8982" style="stop-color:#60696C"/>
		<stop  offset="1" style="stop-color:#465054"/>
	</radialGradient>
	<rect x="-143.1" y="403.6" class="st26" width="1.4" height="3.4"/>
	
		<radialGradient id="SVGID_28_" cx="-154.3967" cy="389.8683" r="0.9633" gradientTransform="matrix(1 0 0 -1 0 794.8)" gradientUnits="userSpaceOnUse">
		<stop  offset="0" style="stop-color:#E6E3E0"/>
		<stop  offset="0" style="stop-color:#F9F8F7"/>
		<stop  offset="0" style="stop-color:#FFFFFF"/>
		<stop  offset="0.1238" style="stop-color:#ECEDED"/>
		<stop  offset="0.3603" style="stop-color:#C8C9CB"/>
		<stop  offset="0.5225" style="stop-color:#ADAFB1"/>
		<stop  offset="0.6003" style="stop-color:#A2A5A8"/>
		<stop  offset="0.7312" style="stop-color:#878C8F"/>
		<stop  offset="0.8982" style="stop-color:#60696C"/>
		<stop  offset="1" style="stop-color:#465054"/>
	</radialGradient>
	<rect x="-154.9" y="403.7" class="st27" width="1" height="2.5"/>
	
		<radialGradient id="SVGID_29_" cx="-122.6282" cy="392.3087" r="0.7301" gradientTransform="matrix(1 0 0 -1 0 794.8)" gradientUnits="userSpaceOnUse">
		<stop  offset="0" style="stop-color:#E6E3E0"/>
		<stop  offset="0" style="stop-color:#F9F8F7"/>
		<stop  offset="0" style="stop-color:#FFFFFF"/>
		<stop  offset="0.1238" style="stop-color:#ECEDED"/>
		<stop  offset="0.3603" style="stop-color:#C8C9CB"/>
		<stop  offset="0.5225" style="stop-color:#ADAFB1"/>
		<stop  offset="0.6003" style="stop-color:#A2A5A8"/>
		<stop  offset="0.7312" style="stop-color:#878C8F"/>
		<stop  offset="0.8982" style="stop-color:#60696C"/>
		<stop  offset="1" style="stop-color:#465054"/>
	</radialGradient>
	<rect x="-123" y="401.5" class="st28" width="0.8" height="1.9"/>
	
		<radialGradient id="SVGID_30_" cx="-142.4307" cy="384.3243" r="1.2885" gradientTransform="matrix(1 0 0 -1 0 794.8)" gradientUnits="userSpaceOnUse">
		<stop  offset="0" style="stop-color:#E6E3E0"/>
		<stop  offset="0" style="stop-color:#F9F8F7"/>
		<stop  offset="0" style="stop-color:#FFFFFF"/>
		<stop  offset="0.1238" style="stop-color:#ECEDED"/>
		<stop  offset="0.3603" style="stop-color:#C8C9CB"/>
		<stop  offset="0.5225" style="stop-color:#ADAFB1"/>
		<stop  offset="0.6003" style="stop-color:#A2A5A8"/>
		<stop  offset="0.7312" style="stop-color:#878C8F"/>
		<stop  offset="0.8982" style="stop-color:#60696C"/>
		<stop  offset="1" style="stop-color:#465054"/>
	</radialGradient>
	<rect x="-143.1" y="408.8" class="st29" width="1.4" height="3.4"/>
	
		<radialGradient id="SVGID_31_" cx="-122.6282" cy="383.527" r="0.7311" gradientTransform="matrix(1 0 0 -1 0 794.8)" gradientUnits="userSpaceOnUse">
		<stop  offset="0" style="stop-color:#E6E3E0"/>
		<stop  offset="0" style="stop-color:#F9F8F7"/>
		<stop  offset="0" style="stop-color:#FFFFFF"/>
		<stop  offset="0.1238" style="stop-color:#ECEDED"/>
		<stop  offset="0.3603" style="stop-color:#C8C9CB"/>
		<stop  offset="0.5225" style="stop-color:#ADAFB1"/>
		<stop  offset="0.6003" style="stop-color:#A2A5A8"/>
		<stop  offset="0.7312" style="stop-color:#878C8F"/>
		<stop  offset="0.8982" style="stop-color:#60696C"/>
		<stop  offset="1" style="stop-color:#465054"/>
	</radialGradient>
	<rect x="-123" y="410.3" class="st30" width="0.8" height="1.9"/>
	
		<radialGradient id="SVGID_32_" cx="-122.6282" cy="386.4527" r="0.7311" gradientTransform="matrix(1 0 0 -1 0 794.8)" gradientUnits="userSpaceOnUse">
		<stop  offset="0" style="stop-color:#E6E3E0"/>
		<stop  offset="0" style="stop-color:#F9F8F7"/>
		<stop  offset="0" style="stop-color:#FFFFFF"/>
		<stop  offset="0.1238" style="stop-color:#ECEDED"/>
		<stop  offset="0.3603" style="stop-color:#C8C9CB"/>
		<stop  offset="0.5225" style="stop-color:#ADAFB1"/>
		<stop  offset="0.6003" style="stop-color:#A2A5A8"/>
		<stop  offset="0.7312" style="stop-color:#878C8F"/>
		<stop  offset="0.8982" style="stop-color:#60696C"/>
		<stop  offset="1" style="stop-color:#465054"/>
	</radialGradient>
	<rect x="-123" y="407.4" class="st31" width="0.8" height="1.9"/>
	
		<radialGradient id="SVGID_33_" cx="-122.6282" cy="389.3819" r="0.7295" gradientTransform="matrix(1 0 0 -1 0 794.8)" gradientUnits="userSpaceOnUse">
		<stop  offset="0" style="stop-color:#E6E3E0"/>
		<stop  offset="0" style="stop-color:#F9F8F7"/>
		<stop  offset="0" style="stop-color:#FFFFFF"/>
		<stop  offset="0.1238" style="stop-color:#ECEDED"/>
		<stop  offset="0.3603" style="stop-color:#C8C9CB"/>
		<stop  offset="0.5225" style="stop-color:#ADAFB1"/>
		<stop  offset="0.6003" style="stop-color:#A2A5A8"/>
		<stop  offset="0.7312" style="stop-color:#878C8F"/>
		<stop  offset="0.8982" style="stop-color:#60696C"/>
		<stop  offset="1" style="stop-color:#465054"/>
	</radialGradient>
	<rect x="-123" y="404.5" class="st32" width="0.8" height="1.9"/>
	
		<radialGradient id="SVGID_34_" cx="-134.7" cy="398.1" r="34.4" gradientTransform="matrix(1 0 0 -1 0 794.8)" gradientUnits="userSpaceOnUse">
		<stop  offset="0" style="stop-color:#E6E3E0"/>
		<stop  offset="0" style="stop-color:#F9F8F7"/>
		<stop  offset="0" style="stop-color:#FFFFFF"/>
		<stop  offset="0.1238" style="stop-color:#ECEDED"/>
		<stop  offset="0.3603" style="stop-color:#C8C9CB"/>
		<stop  offset="0.5225" style="stop-color:#ADAFB1"/>
		<stop  offset="0.6003" style="stop-color:#A2A5A8"/>
		<stop  offset="0.7312" style="stop-color:#878C8F"/>
		<stop  offset="0.8982" style="stop-color:#60696C"/>
		<stop  offset="1" style="stop-color:#465054"/>
	</radialGradient>
	<path class="st33" d="M-134.7,362.3c-19,0-34.4,15.4-34.4,34.4c0,19,15.4,34.4,34.4,34.4s34.4-15.4,34.4-34.4
		C-100.3,377.7-115.7,362.3-134.7,362.3z M-152.3,419.1h-4.2v-36l4.2-2.7V419.1z M-139.6,419.1h-2h-3.6h-5.7v-1.5h5.7v-1.3h-5.7
		v-2.2c0,0,1.6-0.1,3.4,0c1,0.1,1.7,0.1,2.3,0.2V413c-0.6-0.1-1.5-0.1-2.4-0.2c-1.9-0.1-3.3,0.1-3.3,0.1v-2.3c0,0,2.1,0.1,3.9,0.2
		c0.8,0.1,1.4,0.1,1.8,0.2v-1.2c-0.5-0.1-1.1-0.2-1.9-0.3c-1.9-0.2-3.9-0.3-3.9-0.3v-2.1c0,0,2,0.2,3.9,0.3c0.8,0,1.4,0.1,1.9,0.2
		v-1.3c-0.5-0.1-1.1-0.2-1.9-0.3c-1.9-0.1-3.8-0.3-3.8-0.3v-2.2c0,0,2,0.3,3.9,0.4c0.8,0,1.4,0.2,1.9,0.3V403
		c-0.5-0.2-1.1-0.3-1.9-0.4c-1.9-0.2-3.8-0.5-3.8-0.5V400c0,0,2.1,0.4,3.9,0.5c0.8,0.1,1.4,0.2,1.9,0.4v-1.3
		c-0.5-0.2-1.1-0.3-1.9-0.4c-1.9-0.2-3.8-0.6-3.8-0.6v-2.2c0,0,1.1,0.3,3.8,0.7c0.8,0.1,1.4,0.3,1.9,0.5v-1.3
		c-0.5-0.2-1.1-0.3-1.9-0.5c-1.9-0.2-3.8-0.8-3.8-0.8v-2.1c0,0,1.1,0.5,3.8,0.8c0.8,0.1,1.4,0.3,1.9,0.5v-1.4
		c-0.5-0.2-1.1-0.4-1.9-0.5c-1.9-0.2-3.8-0.9-3.8-0.9v-2.1c0,0,1.2,0.3,3.9,0.8c0.8,0.1,1.4,0.3,1.8,0.6v-1.3
		c-0.5-0.2-1.1-0.4-1.9-0.5c-1.9-0.3-3.8-0.9-3.8-0.9v-2.3c0,0,1.2,0.6,4,1c0.7,0.1,1.3,0.3,1.8,0.6v-1.2c-0.5-0.2-1.1-0.4-1.9-0.6
		c-2.2-0.2-4.1-1.1-4.1-1.1v-4c1,1.6,2.4,2.5,5,3.1c0.3,0.1,0.5,0.1,0.8,0.2V371l5.6-3.6v51.7H-139.6z M-125.4,419.1h-12.4V417h9.8
		v-1.8h-9.7v-2.9c0,0,2.2-0.1,4.6,0.1c5.1,0.3,5.1,0.5,5.1,0.5c0-0.8,0-1.4-0.4-1.6c-0.7-0.4-2.4-0.5-4.9-0.7
		c-2.6-0.1-4.4,0.1-4.4,0.1v-3.1c0,0,2.8,0.1,5.2,0.2c4.5,0.3,4.5,1.1,4.5,1.1c0-1.7,0.1-2.3-4.6-2.8c-2.5-0.3-5.2-0.4-5.2-0.4v-2.8
		c0,0,2.7,0.2,5.2,0.3c4.6,0.2,4.6,1.7,4.6,1.7c0-1.7,0-3.2-4.6-3.5c-2.6-0.2-5.1-0.4-5.1-0.4v-2.9c0,0,2.7,0.4,5.2,0.6
		c4.6,0.3,4.6,2.1,4.6,2.1c0-1.6,0-3.5-4.6-3.9c-2.6-0.2-5.1-0.6-5.1-0.6v-2.9c0,0,2.7,0.5,5.2,0.7c4.6,0.4,4.6,2.7,4.6,2.7
		c0-2.1,0-4-4.6-4.5c-2.5-0.3-5.1-0.8-5.1-0.8v-2.9c0,0,1.5,0.4,5.1,0.9c4.6,0.6,4.6,3.2,4.6,3.2c0-2.6,0-4.3-4.6-4.9
		c-2.5-0.3-5.1-1.1-5.1-1.1v-2.8c0,0,1.5,0.7,5.1,1.1c4.6,0.5,4.6,3.4,4.6,3.4c0-2.3,0-4.6-4.6-5.2c-2.5-0.3-5.1-1.1-5.1-1.1v-2.7
		c0,0,1.6,0.5,5.2,1.1c4.5,0.8,4.5,3.8,4.5,3.8c0-2.6,0-4.7-4.6-5.4c-2.5-0.4-5.1-1.3-5.1-1.3v-3c0,0,1.6,0.8,5.3,1.3
		c4.4,0.6,4.4,3.9,4.4,3.9c0-2.6,0-4.9-4.6-5.6c-2.5-0.4-5.1-1.5-5.1-1.5v-5.3c1.3,2.2,3.2,3.4,6.6,4.2c3.4,0.8,5.8,3.2,5.8,6.2
		C-125.4,380.8-125.4,419.1-125.4,419.1z M-121,419.1h-3.2v-27.3l3.2-2V419.1z M-113,419.1h-7v-1.2h5.5v-1h-5.5v-1.6
		c0,0,1.2-0.1,2.6,0c2.9,0.2,2.9,0.3,2.9,0.3c0-0.5,0-0.8-0.2-0.9c-0.4-0.2-1.4-0.3-2.8-0.4c-1.5-0.1-2.5,0-2.5,0v-1.7
		c0,0,1.6,0,2.9,0.1c2.6,0.2,2.6,0.6,2.6,0.6c0-1,0-1.3-2.6-1.6c-1.4-0.2-2.9-0.2-2.9-0.2v-1.6c0,0,1.6,0.1,2.9,0.2
		c2.6,0.1,2.6,1,2.6,1c0-1,0-1.8-2.6-2c-1.5-0.1-2.9-0.2-2.9-0.2v-1.6c0,0,1.6,0.2,2.9,0.3c2.6,0.1,2.6,1.2,2.6,1.2
		c0-0.9,0-2-2.6-2.2c-1.4-0.2-2.9-0.4-2.9-0.4v-1.6c0,0,1.6,0.3,2.9,0.4c2.6,0.2,2.6,1.5,2.6,1.5c0-1.2,0-2.3-2.6-2.6
		c-1.4-0.2-2.9-0.5-2.9-0.5v-1.7c0,0,0.8,0.2,2.9,0.5c2.6,0.4,2.6,1.8,2.6,1.8c0-1.5,0-2.4-2.6-2.8c-1.4-0.2-2.9-0.6-2.9-0.6V399
		c0,0,0.8,0.4,2.9,0.6c2.6,0.3,2.6,1.9,2.6,1.9c0-1.3,0-2.6-2.6-3c-1.4-0.2-2.9-0.6-2.9-0.6v-1.6c0,0,0.9,0.3,3,0.6
		c2.6,0.4,2.6,2.1,2.6,2.1c0-1.5,0-2.7-2.6-3.1c-1.4-0.2-2.9-0.7-2.9-0.7v-1.7c0,0,0.9,0.4,3,0.7c2.5,0.3,2.5,2.2,2.5,2.2
		c0-1.5,0-2.8-2.6-3.2c-1.5,0.2-3-0.4-3-0.4v-3c0.7,1.2,1.8,1.9,3.8,2.4c1.9,0.5,3.3,1.8,3.3,3.5C-113,397.4-113,419.1-113,419.1z"
		/>
	
		<radialGradient id="SVGID_35_" cx="-122.6282" cy="377.6725" r="0.7305" gradientTransform="matrix(1 0 0 -1 0 794.8)" gradientUnits="userSpaceOnUse">
		<stop  offset="0" style="stop-color:#E6E3E0"/>
		<stop  offset="0" style="stop-color:#F9F8F7"/>
		<stop  offset="0" style="stop-color:#FFFFFF"/>
		<stop  offset="0.1238" style="stop-color:#ECEDED"/>
		<stop  offset="0.3603" style="stop-color:#C8C9CB"/>
		<stop  offset="0.5225" style="stop-color:#ADAFB1"/>
		<stop  offset="0.6003" style="stop-color:#A2A5A8"/>
		<stop  offset="0.7312" style="stop-color:#878C8F"/>
		<stop  offset="0.8982" style="stop-color:#60696C"/>
		<stop  offset="1" style="stop-color:#465054"/>
	</radialGradient>
	<rect x="-123" y="416.2" class="st34" width="0.8" height="1.9"/>
	
		<radialGradient id="SVGID_36_" cx="-122.6282" cy="380.5997" r="0.7301" gradientTransform="matrix(1 0 0 -1 0 794.8)" gradientUnits="userSpaceOnUse">
		<stop  offset="0" style="stop-color:#E6E3E0"/>
		<stop  offset="0" style="stop-color:#F9F8F7"/>
		<stop  offset="0" style="stop-color:#FFFFFF"/>
		<stop  offset="0.1238" style="stop-color:#ECEDED"/>
		<stop  offset="0.3603" style="stop-color:#C8C9CB"/>
		<stop  offset="0.5225" style="stop-color:#ADAFB1"/>
		<stop  offset="0.6003" style="stop-color:#A2A5A8"/>
		<stop  offset="0.7312" style="stop-color:#878C8F"/>
		<stop  offset="0.8982" style="stop-color:#60696C"/>
		<stop  offset="1" style="stop-color:#465054"/>
	</radialGradient>
	<rect x="-123" y="413.2" class="st35" width="0.8" height="1.9"/>
	
		<radialGradient id="SVGID_37_" cx="-142.4307" cy="379.1593" r="1.2892" gradientTransform="matrix(1 0 0 -1 0 794.8)" gradientUnits="userSpaceOnUse">
		<stop  offset="0" style="stop-color:#E6E3E0"/>
		<stop  offset="0" style="stop-color:#F9F8F7"/>
		<stop  offset="0" style="stop-color:#FFFFFF"/>
		<stop  offset="0.1238" style="stop-color:#ECEDED"/>
		<stop  offset="0.3603" style="stop-color:#C8C9CB"/>
		<stop  offset="0.5225" style="stop-color:#ADAFB1"/>
		<stop  offset="0.6003" style="stop-color:#A2A5A8"/>
		<stop  offset="0.7312" style="stop-color:#878C8F"/>
		<stop  offset="0.8982" style="stop-color:#60696C"/>
		<stop  offset="1" style="stop-color:#465054"/>
	</radialGradient>
	<rect x="-143.1" y="414" class="st36" width="1.4" height="3.4"/>
	
		<radialGradient id="SVGID_38_" cx="-122.6282" cy="401.0899" r="0.7302" gradientTransform="matrix(1 0 0 -1 0 794.8)" gradientUnits="userSpaceOnUse">
		<stop  offset="0" style="stop-color:#E6E3E0"/>
		<stop  offset="0" style="stop-color:#F9F8F7"/>
		<stop  offset="0" style="stop-color:#FFFFFF"/>
		<stop  offset="0.1238" style="stop-color:#ECEDED"/>
		<stop  offset="0.3603" style="stop-color:#C8C9CB"/>
		<stop  offset="0.5225" style="stop-color:#ADAFB1"/>
		<stop  offset="0.6003" style="stop-color:#A2A5A8"/>
		<stop  offset="0.7312" style="stop-color:#878C8F"/>
		<stop  offset="0.8982" style="stop-color:#60696C"/>
		<stop  offset="1" style="stop-color:#465054"/>
	</radialGradient>
	<polygon class="st37" points="-122.2,392.8 -123,393.3 -123,394.7 -122.2,394.7 	"/>
	
		<radialGradient id="SVGID_39_" cx="-122.6282" cy="395.235" r="0.7305" gradientTransform="matrix(1 0 0 -1 0 794.8)" gradientUnits="userSpaceOnUse">
		<stop  offset="0" style="stop-color:#E6E3E0"/>
		<stop  offset="0" style="stop-color:#F9F8F7"/>
		<stop  offset="0" style="stop-color:#FFFFFF"/>
		<stop  offset="0.1238" style="stop-color:#ECEDED"/>
		<stop  offset="0.3603" style="stop-color:#C8C9CB"/>
		<stop  offset="0.5225" style="stop-color:#ADAFB1"/>
		<stop  offset="0.6003" style="stop-color:#A2A5A8"/>
		<stop  offset="0.7312" style="stop-color:#878C8F"/>
		<stop  offset="0.8982" style="stop-color:#60696C"/>
		<stop  offset="1" style="stop-color:#465054"/>
	</radialGradient>
	<rect x="-123" y="398.6" class="st38" width="0.8" height="1.9"/>
	
		<radialGradient id="SVGID_40_" cx="-122.6282" cy="398.1622" r="0.7308" gradientTransform="matrix(1 0 0 -1 0 794.8)" gradientUnits="userSpaceOnUse">
		<stop  offset="0" style="stop-color:#E6E3E0"/>
		<stop  offset="0" style="stop-color:#F9F8F7"/>
		<stop  offset="0" style="stop-color:#FFFFFF"/>
		<stop  offset="0.1238" style="stop-color:#ECEDED"/>
		<stop  offset="0.3603" style="stop-color:#C8C9CB"/>
		<stop  offset="0.5225" style="stop-color:#ADAFB1"/>
		<stop  offset="0.6003" style="stop-color:#A2A5A8"/>
		<stop  offset="0.7312" style="stop-color:#878C8F"/>
		<stop  offset="0.8982" style="stop-color:#60696C"/>
		<stop  offset="1" style="stop-color:#465054"/>
	</radialGradient>
	<rect x="-123" y="395.7" class="st39" width="0.8" height="1.9"/>
	
		<radialGradient id="SVGID_41_" cx="-134.7" cy="398.1" r="39.3" gradientTransform="matrix(1 0 0 -1 0 794.8)" gradientUnits="userSpaceOnUse">
		<stop  offset="0" style="stop-color:#E6E3E0"/>
		<stop  offset="0" style="stop-color:#F9F8F7"/>
		<stop  offset="0" style="stop-color:#FFFFFF"/>
		<stop  offset="0.1238" style="stop-color:#ECEDED"/>
		<stop  offset="0.3603" style="stop-color:#C8C9CB"/>
		<stop  offset="0.5225" style="stop-color:#ADAFB1"/>
		<stop  offset="0.6003" style="stop-color:#A2A5A8"/>
		<stop  offset="0.7312" style="stop-color:#878C8F"/>
		<stop  offset="0.8982" style="stop-color:#60696C"/>
		<stop  offset="1" style="stop-color:#465054"/>
	</radialGradient>
	<path class="st40" d="M-134.7,357.4c-21.7,0-39.3,17.6-39.3,39.3c0,21.7,17.6,39.3,39.3,39.3s39.3-17.6,39.3-39.3
		C-95.4,375-113.1,357.4-134.7,357.4z M-134.7,433.3c-20.2,0-36.6-16.4-36.6-36.6c0-20.2,16.4-36.6,36.6-36.6s36.6,16.4,36.6,36.6
		C-98.1,416.9-114.5,433.3-134.7,433.3z"/>
</g>
<g>
	
		<radialGradient id="SVGID_42_" cx="-87.8474" cy="400.484" r="175.9924" gradientTransform="matrix(1 0 0 -1 0 794.8)" gradientUnits="userSpaceOnUse">
		<stop  offset="0" style="stop-color:#E6E3E0"/>
		<stop  offset="0" style="stop-color:#F9F8F7"/>
		<stop  offset="0" style="stop-color:#FFFFFF"/>
		<stop  offset="0.1238" style="stop-color:#ECEDED"/>
		<stop  offset="0.3603" style="stop-color:#C8C9CB"/>
		<stop  offset="0.5225" style="stop-color:#ADAFB1"/>
		<stop  offset="0.6003" style="stop-color:#A2A5A8"/>
		<stop  offset="0.7312" style="stop-color:#878C8F"/>
		<stop  offset="0.8982" style="stop-color:#60696C"/>
		<stop  offset="1" style="stop-color:#465054"/>
	</radialGradient>
	<path class="st41" d="M-50.4,389.7c0,2.5-0.4,4.8-1.3,7c-0.9,2.2-2.1,4-3.7,5.6s-3.5,2.8-5.6,3.7c-2.1,0.9-4.5,1.3-7,1.3
		s-4.9-0.4-7-1.3c-2.1-0.9-4-2.1-5.6-3.7s-2.8-3.4-3.7-5.6c-0.9-2.2-1.3-4.5-1.3-7s0.4-4.8,1.3-7c0.9-2.1,2.1-4,3.7-5.6
		c1.6-1.6,3.5-2.8,5.6-3.7s4.5-1.3,7-1.3s4.9,0.4,7,1.3s4,2.1,5.6,3.7c1.6,1.6,2.8,3.5,3.7,5.6C-50.9,384.9-50.4,387.2-50.4,389.7z
		 M-54.4,389.7c0-2-0.4-3.8-1-5.5c-0.7-1.7-1.7-3.2-2.9-4.4c-1.2-1.2-2.7-2.2-4.3-2.9c-1.7-0.7-3.5-1.1-5.4-1.1
		c-2,0-3.8,0.4-5.4,1.1c-1.7,0.7-3.1,1.7-4.3,2.9c-1.2,1.2-2.2,2.7-2.9,4.4c-0.7,1.7-1.1,3.5-1.1,5.5s0.4,3.8,1.1,5.5
		c0.7,1.7,1.7,3.1,2.9,4.3c1.2,1.2,2.6,2.2,4.3,2.9c1.7,0.7,3.5,1,5.4,1c2,0,3.8-0.4,5.4-1c1.7-0.7,3.1-1.7,4.3-2.9
		c1.2-1.2,2.2-2.7,2.9-4.3C-54.8,393.5-54.4,391.7-54.4,389.7z"/>
	
		<radialGradient id="SVGID_43_" cx="-87.8471" cy="400.484" r="175.9918" gradientTransform="matrix(1 0 0 -1 0 794.8)" gradientUnits="userSpaceOnUse">
		<stop  offset="0" style="stop-color:#E6E3E0"/>
		<stop  offset="0" style="stop-color:#F9F8F7"/>
		<stop  offset="0" style="stop-color:#FFFFFF"/>
		<stop  offset="0.1238" style="stop-color:#ECEDED"/>
		<stop  offset="0.3603" style="stop-color:#C8C9CB"/>
		<stop  offset="0.5225" style="stop-color:#ADAFB1"/>
		<stop  offset="0.6003" style="stop-color:#A2A5A8"/>
		<stop  offset="0.7312" style="stop-color:#878C8F"/>
		<stop  offset="0.8982" style="stop-color:#60696C"/>
		<stop  offset="1" style="stop-color:#465054"/>
	</radialGradient>
	<path class="st42" d="M-6.5,406.6v-17.8c0-2.5-0.3-4.6-0.9-6.3c-0.6-1.6-1.5-2.9-2.5-3.9c-0.7-0.6-1.7-1.2-3-1.8s-3-0.9-5.1-0.9
		l-11.5,0.1v30.5h-4l-0.1-34.5h15.4c0.6,0,1.3,0,2.1,0.1c0.8,0.1,1.7,0.2,2.6,0.4c0.9,0.2,1.9,0.6,2.9,1s2,1.1,3.1,1.9
		c3.4,2.8,5,7.3,5,13.3v17.8h-4V406.6z"/>
	
		<radialGradient id="SVGID_44_" cx="-87.8474" cy="400.484" r="175.9918" gradientTransform="matrix(1 0 0 -1 0 794.8)" gradientUnits="userSpaceOnUse">
		<stop  offset="0" style="stop-color:#E6E3E0"/>
		<stop  offset="0" style="stop-color:#F9F8F7"/>
		<stop  offset="0" style="stop-color:#FFFFFF"/>
		<stop  offset="0.1238" style="stop-color:#ECEDED"/>
		<stop  offset="0.3603" style="stop-color:#C8C9CB"/>
		<stop  offset="0.5225" style="stop-color:#ADAFB1"/>
		<stop  offset="0.6003" style="stop-color:#A2A5A8"/>
		<stop  offset="0.7312" style="stop-color:#878C8F"/>
		<stop  offset="0.8982" style="stop-color:#60696C"/>
		<stop  offset="1" style="stop-color:#465054"/>
	</radialGradient>
	<path class="st43" d="M12.8,406.6v-3l18.5-26.9H12.8v-3.9h24.1v3.1l-18.5,26.8h18.3v3.9C36.7,406.6,12.8,406.6,12.8,406.6z"/>
	
		<radialGradient id="SVGID_45_" cx="-87.8473" cy="400.484" r="175.9914" gradientTransform="matrix(1 0 0 -1 0 794.8)" gradientUnits="userSpaceOnUse">
		<stop  offset="0" style="stop-color:#E6E3E0"/>
		<stop  offset="0" style="stop-color:#F9F8F7"/>
		<stop  offset="0" style="stop-color:#FFFFFF"/>
		<stop  offset="0.1238" style="stop-color:#ECEDED"/>
		<stop  offset="0.3603" style="stop-color:#C8C9CB"/>
		<stop  offset="0.5225" style="stop-color:#ADAFB1"/>
		<stop  offset="0.6003" style="stop-color:#A2A5A8"/>
		<stop  offset="0.7312" style="stop-color:#878C8F"/>
		<stop  offset="0.8982" style="stop-color:#60696C"/>
		<stop  offset="1" style="stop-color:#465054"/>
	</radialGradient>
	<path class="st44" d="M83.3,406.6l-0.1-5.1c-1.6,1.9-3.5,3.4-5.8,4.4s-4.8,1.5-7.6,1.5s-5.2-0.5-7.4-1.5s-4-2.3-5.6-3.9
		c-1.5-1.6-2.7-3.5-3.5-5.6s-1.2-4.3-1.2-6.6c0-2.3,0.4-4.6,1.2-6.7s2-4,3.5-5.6s3.4-2.9,5.6-3.9c2.2-1,4.6-1.5,7.4-1.5h17.5v34.5
		C87.3,406.6,83.3,406.6,83.3,406.6z M69.9,376c-1.9,0-3.6,0.3-5.3,1c-1.7,0.7-3.1,1.6-4.4,2.8c-1.2,1.2-2.2,2.7-2.9,4.3
		c-0.7,1.7-1.1,3.5-1.1,5.6c0,1.6,0.3,3.2,0.9,4.9c0.6,1.6,1.4,3.1,2.6,4.4c1.1,1.3,2.6,2.4,4.3,3.2c1.7,0.8,3.8,1.2,6.1,1.2
		c2,0,3.9-0.4,5.5-1.1c1.6-0.7,3-1.7,4.2-3c1.1-1.1,2.1-2.6,2.7-4.3c0.6-1.5,0.8-6.7,0.8-15.5v-3.6H69.9V376z"/>
</g>
</svg>
