<?xml version="1.0" encoding="utf-8"?>
<!-- Generator: Adobe Illustrator 19.0.0, SVG Export Plug-In . SVG Version: 6.00 Build 0)  -->
<svg version="1.1" id="Layer_1" xmlns="http://www.w3.org/2000/svg" xmlns:xlink="http://www.w3.org/1999/xlink" x="0px" y="0px"
	 viewBox="0 0 261.4 78.6" style="enable-background:new 0 0 261.4 78.6;" xml:space="preserve">
<style type="text/css">
	.st0{fill:url(#SVGID_1_);}
	.st1{fill:url(#SVGID_2_);}
	.st2{fill:url(#SVGID_3_);}
	.st3{fill:url(#SVGID_4_);}
	.st4{fill:url(#SVGID_5_);}
	.st5{fill:url(#SVGID_6_);}
	.st6{fill:url(#SVGID_7_);}
	.st7{fill:url(#SVGID_8_);}
	.st8{fill:url(#SVGID_9_);}
	.st9{fill:url(#SVGID_10_);}
	.st10{fill:url(#SVGID_11_);}
	.st11{fill:url(#SVGID_12_);}
	.st12{fill:url(#SVGID_13_);}
	.st13{fill:url(#SVGID_14_);}
	.st14{fill:url(#SVGID_15_);}
	.st15{fill:url(#SVGID_16_);}
	.st16{fill:url(#SVGID_17_);}
	.st17{fill:url(#SVGID_18_);}
	.st18{fill:url(#SVGID_19_);}
	.st19{fill:url(#SVGID_20_);}
	.st20{fill:url(#SVGID_21_);}
	.st21{fill:url(#SVGID_22_);}
	.st22{fill:url(#SVGID_23_);}
	.st23{fill:url(#SVGID_24_);}
	.st24{fill:url(#SVGID_25_);}
	.st25{fill:url(#SVGID_26_);}
	.st26{fill:url(#SVGID_27_);}
	.st27{fill:url(#SVGID_28_);}
	.st28{fill:url(#SVGID_29_);}
	.st29{fill:url(#SVGID_30_);}
	.st30{fill:url(#SVGID_31_);}
	.st31{fill:url(#SVGID_32_);}
	.st32{fill:url(#SVGID_33_);}
	.st33{fill:url(#SVGID_34_);}
	.st34{fill:url(#SVGID_35_);}
	.st35{fill:url(#SVGID_36_);}
	.st36{fill:url(#SVGID_37_);}
	.st37{fill:url(#SVGID_38_);}
	.st38{fill:url(#SVGID_39_);}
	.st39{fill:url(#SVGID_40_);}
	.st40{fill:url(#SVGID_41_);}
	.st41{fill:url(#SVGID_42_);}
	.st42{fill:url(#SVGID_43_);}
	.st43{fill:url(#SVGID_44_);}
	.st44{fill:url(#SVGID_45_);}
</style>
<g>
	<radialGradient id="SVGID_1_" cx="86.2751" cy="37.0365" r="175.9908" gradientUnits="userSpaceOnUse">
		<stop  offset="0" style="stop-color:#E6E3E0"/>
		<stop  offset="0" style="stop-color:#F9F8F7"/>
		<stop  offset="0" style="stop-color:#FFFFFF"/>
		<stop  offset="0.1238" style="stop-color:#ECEDED"/>
		<stop  offset="0.3603" style="stop-color:#C8C9CB"/>
		<stop  offset="0.5225" style="stop-color:#ADAFB1"/>
		<stop  offset="0.6003" style="stop-color:#A2A5A8"/>
		<stop  offset="0.7312" style="stop-color:#878C8F"/>
		<stop  offset="0.8982" style="stop-color:#60696C"/>
		<stop  offset="1" style="stop-color:#465054"/>
	</radialGradient>
	<path class="st0" d="M100.6,57.8h0.9v1h-0.9V57.8z M100.6,60.5h0.9v6.8h-0.9V60.5z"/>
	<radialGradient id="SVGID_2_" cx="86.2756" cy="37.0362" r="175.9908" gradientUnits="userSpaceOnUse">
		<stop  offset="0" style="stop-color:#E6E3E0"/>
		<stop  offset="0" style="stop-color:#F9F8F7"/>
		<stop  offset="0" style="stop-color:#FFFFFF"/>
		<stop  offset="0.1238" style="stop-color:#ECEDED"/>
		<stop  offset="0.3603" style="stop-color:#C8C9CB"/>
		<stop  offset="0.5225" style="stop-color:#ADAFB1"/>
		<stop  offset="0.6003" style="stop-color:#A2A5A8"/>
		<stop  offset="0.7312" style="stop-color:#878C8F"/>
		<stop  offset="0.8982" style="stop-color:#60696C"/>
		<stop  offset="1" style="stop-color:#465054"/>
	</radialGradient>
	<path class="st1" d="M110.4,67.2v-6.8l0.8,0.6c0.5-0.5,1.2-0.8,1.9-0.8c0.8,0,1.4,0.3,1.9,0.8c0.5,0.5,0.8,1.2,0.8,1.9v4.2h-0.9V63
		c0-0.5-0.2-0.9-0.5-1.3c-0.3-0.3-0.8-0.5-1.3-0.5c-0.5,0-0.9,0.2-1.3,0.5c-0.3,0.3-0.5,0.8-0.5,1.3v4.2H110.4z"/>
	<radialGradient id="SVGID_3_" cx="86.276" cy="37.0362" r="175.9899" gradientUnits="userSpaceOnUse">
		<stop  offset="0" style="stop-color:#E6E3E0"/>
		<stop  offset="0" style="stop-color:#F9F8F7"/>
		<stop  offset="0" style="stop-color:#FFFFFF"/>
		<stop  offset="0.1238" style="stop-color:#ECEDED"/>
		<stop  offset="0.3603" style="stop-color:#C8C9CB"/>
		<stop  offset="0.5225" style="stop-color:#ADAFB1"/>
		<stop  offset="0.6003" style="stop-color:#A2A5A8"/>
		<stop  offset="0.7312" style="stop-color:#878C8F"/>
		<stop  offset="0.8982" style="stop-color:#60696C"/>
		<stop  offset="1" style="stop-color:#465054"/>
	</radialGradient>
	<path class="st2" d="M134.2,67.2h-0.9v-4.3c0-0.5-0.2-0.9-0.5-1.2c-0.3-0.3-0.7-0.5-1.2-0.5c-0.5,0-0.9,0.2-1.2,0.5
		c-0.3,0.3-0.5,0.7-0.5,1.2v4.3H129v-4.3c0-0.5-0.2-0.9-0.5-1.2c-0.3-0.3-0.7-0.5-1.2-0.5c-0.5,0-0.9,0.2-1.2,0.5
		c-0.3,0.3-0.5,0.7-0.5,1.2v4.3h-0.9v-6.8l0.8,0.6c0.5-0.5,1.1-0.8,1.9-0.8c0.4,0,0.9,0.1,1.3,0.3c0.4,0.2,0.7,0.5,0.9,0.8
		c0.5-0.8,1.3-1.1,2.2-1.1c0.4,0,0.7,0.1,1,0.2c0.3,0.1,0.6,0.3,0.8,0.6c0.2,0.2,0.4,0.5,0.6,0.8s0.2,0.7,0.2,1V67.2z"/>
	<radialGradient id="SVGID_4_" cx="86.2751" cy="37.0363" r="175.992" gradientUnits="userSpaceOnUse">
		<stop  offset="0" style="stop-color:#E6E3E0"/>
		<stop  offset="0" style="stop-color:#F9F8F7"/>
		<stop  offset="0" style="stop-color:#FFFFFF"/>
		<stop  offset="0.1238" style="stop-color:#ECEDED"/>
		<stop  offset="0.3603" style="stop-color:#C8C9CB"/>
		<stop  offset="0.5225" style="stop-color:#ADAFB1"/>
		<stop  offset="0.6003" style="stop-color:#A2A5A8"/>
		<stop  offset="0.7312" style="stop-color:#878C8F"/>
		<stop  offset="0.8982" style="stop-color:#60696C"/>
		<stop  offset="1" style="stop-color:#465054"/>
	</radialGradient>
	<path class="st3" d="M146.4,60.3c1,0,1.8,0.3,2.5,1c0.7,0.7,1,1.5,1,2.5c0,1-0.3,1.8-1,2.5c-0.7,0.7-1.5,1.1-2.5,1.1
		c-1,0-1.8-0.4-2.5-1.1c-0.7-0.7-1.1-1.5-1.1-2.5c0-1,0.4-1.8,1.1-2.5C144.6,60.6,145.4,60.3,146.4,60.3z M146.4,61.2
		c-0.7,0-1.4,0.3-1.9,0.8c-0.5,0.5-0.8,1.1-0.8,1.9c0,0.7,0.3,1.4,0.8,1.9c0.5,0.5,1.1,0.8,1.9,0.8c0.7,0,1.4-0.3,1.9-0.8
		c0.5-0.5,0.8-1.1,0.8-1.9c0-0.7-0.3-1.4-0.8-1.9C147.7,61.5,147.1,61.2,146.4,61.2z"/>
	<radialGradient id="SVGID_5_" cx="86.2757" cy="37.036" r="175.991" gradientUnits="userSpaceOnUse">
		<stop  offset="0" style="stop-color:#E6E3E0"/>
		<stop  offset="0" style="stop-color:#F9F8F7"/>
		<stop  offset="0" style="stop-color:#FFFFFF"/>
		<stop  offset="0.1238" style="stop-color:#ECEDED"/>
		<stop  offset="0.3603" style="stop-color:#C8C9CB"/>
		<stop  offset="0.5225" style="stop-color:#ADAFB1"/>
		<stop  offset="0.6003" style="stop-color:#A2A5A8"/>
		<stop  offset="0.7312" style="stop-color:#878C8F"/>
		<stop  offset="0.8982" style="stop-color:#60696C"/>
		<stop  offset="1" style="stop-color:#465054"/>
	</radialGradient>
	<path class="st4" d="M159.4,56.9h-1.1l0.5-0.9h1.5v5.5c0.7-0.8,1.6-1.2,2.7-1.2c1,0,1.8,0.3,2.5,1c0.7,0.7,1,1.5,1,2.5
		c0,1-0.3,1.8-1,2.5c-0.7,0.7-1.5,1.1-2.5,1.1c-1,0-1.9-0.4-2.6-1.1l-1,0.9V56.9z M163,61.2c-0.7,0-1.4,0.3-1.9,0.8
		c-0.5,0.5-0.8,1.1-0.8,1.9c0,0.7,0.3,1.4,0.8,1.9c0.5,0.5,1.1,0.8,1.9,0.8c0.7,0,1.4-0.3,1.9-0.8c0.5-0.5,0.8-1.1,0.8-1.9
		c0-0.7-0.3-1.4-0.8-1.9C164.4,61.5,163.7,61.2,163,61.2z"/>
	<radialGradient id="SVGID_6_" cx="86.2733" cy="37.0365" r="175.995" gradientUnits="userSpaceOnUse">
		<stop  offset="0" style="stop-color:#E6E3E0"/>
		<stop  offset="0" style="stop-color:#F9F8F7"/>
		<stop  offset="0" style="stop-color:#FFFFFF"/>
		<stop  offset="0.1238" style="stop-color:#ECEDED"/>
		<stop  offset="0.3603" style="stop-color:#C8C9CB"/>
		<stop  offset="0.5225" style="stop-color:#ADAFB1"/>
		<stop  offset="0.6003" style="stop-color:#A2A5A8"/>
		<stop  offset="0.7312" style="stop-color:#878C8F"/>
		<stop  offset="0.8982" style="stop-color:#60696C"/>
		<stop  offset="1" style="stop-color:#465054"/>
	</radialGradient>
	<path class="st5" d="M175.2,57.8h0.9v1h-0.9V57.8z M175.2,60.5h0.9v6.8h-0.9V60.5z"/>
	<radialGradient id="SVGID_7_" cx="86.284" cy="37.0364" r="175.9772" gradientUnits="userSpaceOnUse">
		<stop  offset="0" style="stop-color:#E6E3E0"/>
		<stop  offset="0" style="stop-color:#F9F8F7"/>
		<stop  offset="0" style="stop-color:#FFFFFF"/>
		<stop  offset="0.1238" style="stop-color:#ECEDED"/>
		<stop  offset="0.3603" style="stop-color:#C8C9CB"/>
		<stop  offset="0.5225" style="stop-color:#ADAFB1"/>
		<stop  offset="0.6003" style="stop-color:#A2A5A8"/>
		<stop  offset="0.7312" style="stop-color:#878C8F"/>
		<stop  offset="0.8982" style="stop-color:#60696C"/>
		<stop  offset="1" style="stop-color:#465054"/>
	</radialGradient>
	<path class="st6" d="M184.9,67.2V56h0.9v11.2H184.9z"/>
	<radialGradient id="SVGID_8_" cx="86.273" cy="37.0365" r="175.9954" gradientUnits="userSpaceOnUse">
		<stop  offset="0" style="stop-color:#E6E3E0"/>
		<stop  offset="0" style="stop-color:#F9F8F7"/>
		<stop  offset="0" style="stop-color:#FFFFFF"/>
		<stop  offset="0.1238" style="stop-color:#ECEDED"/>
		<stop  offset="0.3603" style="stop-color:#C8C9CB"/>
		<stop  offset="0.5225" style="stop-color:#ADAFB1"/>
		<stop  offset="0.6003" style="stop-color:#A2A5A8"/>
		<stop  offset="0.7312" style="stop-color:#878C8F"/>
		<stop  offset="0.8982" style="stop-color:#60696C"/>
		<stop  offset="1" style="stop-color:#465054"/>
	</radialGradient>
	<path class="st7" d="M194.6,57.8h0.9v1h-0.9V57.8z M194.6,60.5h0.9v6.8h-0.9V60.5z"/>
	<radialGradient id="SVGID_9_" cx="86.2752" cy="37.0363" r="175.9921" gradientUnits="userSpaceOnUse">
		<stop  offset="0" style="stop-color:#E6E3E0"/>
		<stop  offset="0" style="stop-color:#F9F8F7"/>
		<stop  offset="0" style="stop-color:#FFFFFF"/>
		<stop  offset="0.1238" style="stop-color:#ECEDED"/>
		<stop  offset="0.3603" style="stop-color:#C8C9CB"/>
		<stop  offset="0.5225" style="stop-color:#ADAFB1"/>
		<stop  offset="0.6003" style="stop-color:#A2A5A8"/>
		<stop  offset="0.7312" style="stop-color:#878C8F"/>
		<stop  offset="0.8982" style="stop-color:#60696C"/>
		<stop  offset="1" style="stop-color:#465054"/>
	</radialGradient>
	<path class="st8" d="M210.3,66.3c-0.7,0.7-1.6,1.1-2.6,1.1c-1,0-1.8-0.4-2.5-1.1c-0.7-0.7-1.1-1.5-1.1-2.5c0-1,0.4-1.8,1.1-2.5
		c0.7-0.7,1.5-1,2.5-1c1,0,1.9,0.4,2.6,1.1l1-0.9v6.8L210.3,66.3z M207.7,61.2c-0.7,0-1.4,0.3-1.9,0.8c-0.5,0.5-0.8,1.1-0.8,1.9
		c0,0.7,0.3,1.4,0.8,1.9c0.5,0.5,1.1,0.8,1.9,0.8c0.7,0,1.4-0.3,1.9-0.8c0.5-0.5,0.8-1.1,0.8-1.9c0-0.7-0.3-1.4-0.8-1.9
		C209.1,61.5,208.5,61.2,207.7,61.2z"/>
	<radialGradient id="SVGID_10_" cx="86.2758" cy="37.0362" r="175.9909" gradientUnits="userSpaceOnUse">
		<stop  offset="0" style="stop-color:#E6E3E0"/>
		<stop  offset="0" style="stop-color:#F9F8F7"/>
		<stop  offset="0" style="stop-color:#FFFFFF"/>
		<stop  offset="0.1238" style="stop-color:#ECEDED"/>
		<stop  offset="0.3603" style="stop-color:#C8C9CB"/>
		<stop  offset="0.5225" style="stop-color:#ADAFB1"/>
		<stop  offset="0.6003" style="stop-color:#A2A5A8"/>
		<stop  offset="0.7312" style="stop-color:#878C8F"/>
		<stop  offset="0.8982" style="stop-color:#60696C"/>
		<stop  offset="1" style="stop-color:#465054"/>
	</radialGradient>
	<path class="st9" d="M223.7,60.5l-0.4,0.8c-0.1,0-0.3-0.1-0.5-0.1c-0.5,0-0.9,0.2-1.2,0.5c-0.3,0.3-0.5,0.7-0.5,1.2v4.3h-0.9v-6.8
		l0.8,0.6c0.5-0.5,1.1-0.8,1.9-0.8C223.1,60.3,223.4,60.3,223.7,60.5z"/>
	<radialGradient id="SVGID_11_" cx="86.2716" cy="37.0365" r="175.9965" gradientUnits="userSpaceOnUse">
		<stop  offset="0" style="stop-color:#E6E3E0"/>
		<stop  offset="0" style="stop-color:#F9F8F7"/>
		<stop  offset="0" style="stop-color:#FFFFFF"/>
		<stop  offset="0.1238" style="stop-color:#ECEDED"/>
		<stop  offset="0.3603" style="stop-color:#C8C9CB"/>
		<stop  offset="0.5225" style="stop-color:#ADAFB1"/>
		<stop  offset="0.6003" style="stop-color:#A2A5A8"/>
		<stop  offset="0.7312" style="stop-color:#878C8F"/>
		<stop  offset="0.8982" style="stop-color:#60696C"/>
		<stop  offset="1" style="stop-color:#465054"/>
	</radialGradient>
	<path class="st10" d="M232.3,57.8h0.9v1h-0.9V57.8z M232.3,60.5h0.9v6.8h-0.9V60.5z"/>
	<radialGradient id="SVGID_12_" cx="86.2769" cy="37.0363" r="175.9896" gradientUnits="userSpaceOnUse">
		<stop  offset="0" style="stop-color:#E6E3E0"/>
		<stop  offset="0" style="stop-color:#F9F8F7"/>
		<stop  offset="0" style="stop-color:#FFFFFF"/>
		<stop  offset="0.1238" style="stop-color:#ECEDED"/>
		<stop  offset="0.3603" style="stop-color:#C8C9CB"/>
		<stop  offset="0.5225" style="stop-color:#ADAFB1"/>
		<stop  offset="0.6003" style="stop-color:#A2A5A8"/>
		<stop  offset="0.7312" style="stop-color:#878C8F"/>
		<stop  offset="0.8982" style="stop-color:#60696C"/>
		<stop  offset="1" style="stop-color:#465054"/>
	</radialGradient>
	<path class="st11" d="M247.9,66.3c-0.7,0.7-1.6,1.1-2.6,1.1c-1,0-1.8-0.4-2.5-1.1c-0.7-0.7-1.1-1.5-1.1-2.5c0-1,0.4-1.8,1.1-2.5
		c0.7-0.7,1.5-1,2.5-1c1,0,1.9,0.4,2.6,1.1l1-0.9v6.8L247.9,66.3z M245.3,61.2c-0.7,0-1.4,0.3-1.9,0.8c-0.5,0.5-0.8,1.1-0.8,1.9
		c0,0.7,0.3,1.4,0.8,1.9c0.5,0.5,1.1,0.8,1.9,0.8c0.7,0,1.4-0.3,1.9-0.8c0.5-0.5,0.8-1.1,0.8-1.9c0-0.7-0.3-1.4-0.8-1.9
		C246.7,61.5,246.1,61.2,245.3,61.2z"/>
</g>
<g>
	<radialGradient id="SVGID_13_" cx="31.5693" cy="22.0825" r="1.2892" gradientUnits="userSpaceOnUse">
		<stop  offset="0" style="stop-color:#E6E3E0"/>
		<stop  offset="0" style="stop-color:#F9F8F7"/>
		<stop  offset="0" style="stop-color:#FFFFFF"/>
		<stop  offset="0.1238" style="stop-color:#ECEDED"/>
		<stop  offset="0.3603" style="stop-color:#C8C9CB"/>
		<stop  offset="0.5225" style="stop-color:#ADAFB1"/>
		<stop  offset="0.6003" style="stop-color:#A2A5A8"/>
		<stop  offset="0.7312" style="stop-color:#878C8F"/>
		<stop  offset="0.8982" style="stop-color:#60696C"/>
		<stop  offset="1" style="stop-color:#465054"/>
	</radialGradient>
	<rect x="30.9" y="20.4" class="st12" width="1.4" height="3.4"/>
	<radialGradient id="SVGID_14_" cx="31.5693" cy="27.2471" r="1.2895" gradientUnits="userSpaceOnUse">
		<stop  offset="0" style="stop-color:#E6E3E0"/>
		<stop  offset="0" style="stop-color:#F9F8F7"/>
		<stop  offset="0" style="stop-color:#FFFFFF"/>
		<stop  offset="0.1238" style="stop-color:#ECEDED"/>
		<stop  offset="0.3603" style="stop-color:#C8C9CB"/>
		<stop  offset="0.5225" style="stop-color:#ADAFB1"/>
		<stop  offset="0.6003" style="stop-color:#A2A5A8"/>
		<stop  offset="0.7312" style="stop-color:#878C8F"/>
		<stop  offset="0.8982" style="stop-color:#60696C"/>
		<stop  offset="1" style="stop-color:#465054"/>
	</radialGradient>
	<polygon class="st13" points="32.3,28.9 32.3,25.6 30.9,25.6 30.9,27.7 30.9,28.9 31.9,28.9 	"/>
	<radialGradient id="SVGID_15_" cx="31.5693" cy="16.9165" r="1.2879" gradientUnits="userSpaceOnUse">
		<stop  offset="0" style="stop-color:#E6E3E0"/>
		<stop  offset="0" style="stop-color:#F9F8F7"/>
		<stop  offset="0" style="stop-color:#FFFFFF"/>
		<stop  offset="0.1238" style="stop-color:#ECEDED"/>
		<stop  offset="0.3603" style="stop-color:#C8C9CB"/>
		<stop  offset="0.5225" style="stop-color:#ADAFB1"/>
		<stop  offset="0.6003" style="stop-color:#A2A5A8"/>
		<stop  offset="0.7312" style="stop-color:#878C8F"/>
		<stop  offset="0.8982" style="stop-color:#60696C"/>
		<stop  offset="1" style="stop-color:#465054"/>
	</radialGradient>
	<polygon class="st14" points="32.3,15.2 30.9,16.1 30.9,18.6 32.3,18.6 	"/>
	<radialGradient id="SVGID_16_" cx="31.5693" cy="37.5796" r="1.2885" gradientUnits="userSpaceOnUse">
		<stop  offset="0" style="stop-color:#E6E3E0"/>
		<stop  offset="0" style="stop-color:#F9F8F7"/>
		<stop  offset="0" style="stop-color:#FFFFFF"/>
		<stop  offset="0.1238" style="stop-color:#ECEDED"/>
		<stop  offset="0.3603" style="stop-color:#C8C9CB"/>
		<stop  offset="0.5225" style="stop-color:#ADAFB1"/>
		<stop  offset="0.6003" style="stop-color:#A2A5A8"/>
		<stop  offset="0.7312" style="stop-color:#878C8F"/>
		<stop  offset="0.8982" style="stop-color:#60696C"/>
		<stop  offset="1" style="stop-color:#465054"/>
	</radialGradient>
	<rect x="30.9" y="35.9" class="st15" width="1.4" height="3.4"/>
	<radialGradient id="SVGID_17_" cx="31.5693" cy="32.4131" r="1.2889" gradientUnits="userSpaceOnUse">
		<stop  offset="0" style="stop-color:#E6E3E0"/>
		<stop  offset="0" style="stop-color:#F9F8F7"/>
		<stop  offset="0" style="stop-color:#FFFFFF"/>
		<stop  offset="0.1238" style="stop-color:#ECEDED"/>
		<stop  offset="0.3603" style="stop-color:#C8C9CB"/>
		<stop  offset="0.5225" style="stop-color:#ADAFB1"/>
		<stop  offset="0.6003" style="stop-color:#A2A5A8"/>
		<stop  offset="0.7312" style="stop-color:#878C8F"/>
		<stop  offset="0.8982" style="stop-color:#60696C"/>
		<stop  offset="1" style="stop-color:#465054"/>
	</radialGradient>
	<rect x="30.9" y="30.7" class="st16" width="1.4" height="3.4"/>
	<radialGradient id="SVGID_18_" cx="31.5693" cy="42.7446" r="1.2886" gradientUnits="userSpaceOnUse">
		<stop  offset="0" style="stop-color:#E6E3E0"/>
		<stop  offset="0" style="stop-color:#F9F8F7"/>
		<stop  offset="0" style="stop-color:#FFFFFF"/>
		<stop  offset="0.1238" style="stop-color:#ECEDED"/>
		<stop  offset="0.3603" style="stop-color:#C8C9CB"/>
		<stop  offset="0.5225" style="stop-color:#ADAFB1"/>
		<stop  offset="0.6003" style="stop-color:#A2A5A8"/>
		<stop  offset="0.7312" style="stop-color:#878C8F"/>
		<stop  offset="0.8982" style="stop-color:#60696C"/>
		<stop  offset="1" style="stop-color:#465054"/>
	</radialGradient>
	<rect x="30.9" y="41.1" class="st17" width="1.4" height="3.4"/>
	<radialGradient id="SVGID_19_" cx="19.6033" cy="59.1089" r="0.9626" gradientUnits="userSpaceOnUse">
		<stop  offset="0" style="stop-color:#E6E3E0"/>
		<stop  offset="0" style="stop-color:#F9F8F7"/>
		<stop  offset="0" style="stop-color:#FFFFFF"/>
		<stop  offset="0.1238" style="stop-color:#ECEDED"/>
		<stop  offset="0.3603" style="stop-color:#C8C9CB"/>
		<stop  offset="0.5225" style="stop-color:#ADAFB1"/>
		<stop  offset="0.6003" style="stop-color:#A2A5A8"/>
		<stop  offset="0.7312" style="stop-color:#878C8F"/>
		<stop  offset="0.8982" style="stop-color:#60696C"/>
		<stop  offset="1" style="stop-color:#465054"/>
	</radialGradient>
	<rect x="19.1" y="57.8" class="st18" width="1" height="2.5"/>
	<radialGradient id="SVGID_20_" cx="19.6033" cy="55.2495" r="0.9626" gradientUnits="userSpaceOnUse">
		<stop  offset="0" style="stop-color:#E6E3E0"/>
		<stop  offset="0" style="stop-color:#F9F8F7"/>
		<stop  offset="0" style="stop-color:#FFFFFF"/>
		<stop  offset="0.1238" style="stop-color:#ECEDED"/>
		<stop  offset="0.3603" style="stop-color:#C8C9CB"/>
		<stop  offset="0.5225" style="stop-color:#ADAFB1"/>
		<stop  offset="0.6003" style="stop-color:#A2A5A8"/>
		<stop  offset="0.7312" style="stop-color:#878C8F"/>
		<stop  offset="0.8982" style="stop-color:#60696C"/>
		<stop  offset="1" style="stop-color:#465054"/>
	</radialGradient>
	<rect x="19.1" y="54" class="st19" width="1" height="2.5"/>
	<radialGradient id="SVGID_21_" cx="19.6033" cy="32.0972" r="0.9633" gradientUnits="userSpaceOnUse">
		<stop  offset="0" style="stop-color:#E6E3E0"/>
		<stop  offset="0" style="stop-color:#F9F8F7"/>
		<stop  offset="0" style="stop-color:#FFFFFF"/>
		<stop  offset="0.1238" style="stop-color:#ECEDED"/>
		<stop  offset="0.3603" style="stop-color:#C8C9CB"/>
		<stop  offset="0.5225" style="stop-color:#ADAFB1"/>
		<stop  offset="0.6003" style="stop-color:#A2A5A8"/>
		<stop  offset="0.7312" style="stop-color:#878C8F"/>
		<stop  offset="0.8982" style="stop-color:#60696C"/>
		<stop  offset="1" style="stop-color:#465054"/>
	</radialGradient>
	<rect x="19.1" y="30.8" class="st20" width="1" height="2.5"/>
	<radialGradient id="SVGID_22_" cx="19.6033" cy="35.957" r="0.9623" gradientUnits="userSpaceOnUse">
		<stop  offset="0" style="stop-color:#E6E3E0"/>
		<stop  offset="0" style="stop-color:#F9F8F7"/>
		<stop  offset="0" style="stop-color:#FFFFFF"/>
		<stop  offset="0.1238" style="stop-color:#ECEDED"/>
		<stop  offset="0.3603" style="stop-color:#C8C9CB"/>
		<stop  offset="0.5225" style="stop-color:#ADAFB1"/>
		<stop  offset="0.6003" style="stop-color:#A2A5A8"/>
		<stop  offset="0.7312" style="stop-color:#878C8F"/>
		<stop  offset="0.8982" style="stop-color:#60696C"/>
		<stop  offset="1" style="stop-color:#465054"/>
	</radialGradient>
	<rect x="19.1" y="34.7" class="st21" width="1" height="2.5"/>
	<radialGradient id="SVGID_23_" cx="19.6033" cy="28.2378" r="0.962" gradientUnits="userSpaceOnUse">
		<stop  offset="0" style="stop-color:#E6E3E0"/>
		<stop  offset="0" style="stop-color:#F9F8F7"/>
		<stop  offset="0" style="stop-color:#FFFFFF"/>
		<stop  offset="0.1238" style="stop-color:#ECEDED"/>
		<stop  offset="0.3603" style="stop-color:#C8C9CB"/>
		<stop  offset="0.5225" style="stop-color:#ADAFB1"/>
		<stop  offset="0.6003" style="stop-color:#A2A5A8"/>
		<stop  offset="0.7312" style="stop-color:#878C8F"/>
		<stop  offset="0.8982" style="stop-color:#60696C"/>
		<stop  offset="1" style="stop-color:#465054"/>
	</radialGradient>
	<polygon class="st22" points="20.1,27 19.1,27.6 19.1,29.5 20.1,29.5 	"/>
	<radialGradient id="SVGID_24_" cx="19.6033" cy="39.8154" r="0.9617" gradientUnits="userSpaceOnUse">
		<stop  offset="0" style="stop-color:#E6E3E0"/>
		<stop  offset="0" style="stop-color:#F9F8F7"/>
		<stop  offset="0" style="stop-color:#FFFFFF"/>
		<stop  offset="0.1238" style="stop-color:#ECEDED"/>
		<stop  offset="0.3603" style="stop-color:#C8C9CB"/>
		<stop  offset="0.5225" style="stop-color:#ADAFB1"/>
		<stop  offset="0.6003" style="stop-color:#A2A5A8"/>
		<stop  offset="0.7312" style="stop-color:#878C8F"/>
		<stop  offset="0.8982" style="stop-color:#60696C"/>
		<stop  offset="1" style="stop-color:#465054"/>
	</radialGradient>
	<rect x="19.1" y="38.6" class="st23" width="1" height="2.5"/>
	<radialGradient id="SVGID_25_" cx="19.6033" cy="51.3921" r="0.9626" gradientUnits="userSpaceOnUse">
		<stop  offset="0" style="stop-color:#E6E3E0"/>
		<stop  offset="0" style="stop-color:#F9F8F7"/>
		<stop  offset="0" style="stop-color:#FFFFFF"/>
		<stop  offset="0.1238" style="stop-color:#ECEDED"/>
		<stop  offset="0.3603" style="stop-color:#C8C9CB"/>
		<stop  offset="0.5225" style="stop-color:#ADAFB1"/>
		<stop  offset="0.6003" style="stop-color:#A2A5A8"/>
		<stop  offset="0.7312" style="stop-color:#878C8F"/>
		<stop  offset="0.8982" style="stop-color:#60696C"/>
		<stop  offset="1" style="stop-color:#465054"/>
	</radialGradient>
	<rect x="19.1" y="50.1" class="st24" width="1" height="2.5"/>
	<radialGradient id="SVGID_26_" cx="19.6033" cy="43.6738" r="0.9623" gradientUnits="userSpaceOnUse">
		<stop  offset="0" style="stop-color:#E6E3E0"/>
		<stop  offset="0" style="stop-color:#F9F8F7"/>
		<stop  offset="0" style="stop-color:#FFFFFF"/>
		<stop  offset="0.1238" style="stop-color:#ECEDED"/>
		<stop  offset="0.3603" style="stop-color:#C8C9CB"/>
		<stop  offset="0.5225" style="stop-color:#ADAFB1"/>
		<stop  offset="0.6003" style="stop-color:#A2A5A8"/>
		<stop  offset="0.7312" style="stop-color:#878C8F"/>
		<stop  offset="0.8982" style="stop-color:#60696C"/>
		<stop  offset="1" style="stop-color:#465054"/>
	</radialGradient>
	<rect x="19.1" y="42.4" class="st25" width="1" height="2.5"/>
	<radialGradient id="SVGID_27_" cx="31.5693" cy="47.9087" r="1.2892" gradientUnits="userSpaceOnUse">
		<stop  offset="0" style="stop-color:#E6E3E0"/>
		<stop  offset="0" style="stop-color:#F9F8F7"/>
		<stop  offset="0" style="stop-color:#FFFFFF"/>
		<stop  offset="0.1238" style="stop-color:#ECEDED"/>
		<stop  offset="0.3603" style="stop-color:#C8C9CB"/>
		<stop  offset="0.5225" style="stop-color:#ADAFB1"/>
		<stop  offset="0.6003" style="stop-color:#A2A5A8"/>
		<stop  offset="0.7312" style="stop-color:#878C8F"/>
		<stop  offset="0.8982" style="stop-color:#60696C"/>
		<stop  offset="1" style="stop-color:#465054"/>
	</radialGradient>
	<rect x="30.9" y="46.2" class="st26" width="1.4" height="3.4"/>
	<radialGradient id="SVGID_28_" cx="19.6033" cy="47.5317" r="0.9633" gradientUnits="userSpaceOnUse">
		<stop  offset="0" style="stop-color:#E6E3E0"/>
		<stop  offset="0" style="stop-color:#F9F8F7"/>
		<stop  offset="0" style="stop-color:#FFFFFF"/>
		<stop  offset="0.1238" style="stop-color:#ECEDED"/>
		<stop  offset="0.3603" style="stop-color:#C8C9CB"/>
		<stop  offset="0.5225" style="stop-color:#ADAFB1"/>
		<stop  offset="0.6003" style="stop-color:#A2A5A8"/>
		<stop  offset="0.7312" style="stop-color:#878C8F"/>
		<stop  offset="0.8982" style="stop-color:#60696C"/>
		<stop  offset="1" style="stop-color:#465054"/>
	</radialGradient>
	<rect x="19.1" y="46.3" class="st27" width="1" height="2.5"/>
	<radialGradient id="SVGID_29_" cx="51.3718" cy="45.0913" r="0.7301" gradientUnits="userSpaceOnUse">
		<stop  offset="0" style="stop-color:#E6E3E0"/>
		<stop  offset="0" style="stop-color:#F9F8F7"/>
		<stop  offset="0" style="stop-color:#FFFFFF"/>
		<stop  offset="0.1238" style="stop-color:#ECEDED"/>
		<stop  offset="0.3603" style="stop-color:#C8C9CB"/>
		<stop  offset="0.5225" style="stop-color:#ADAFB1"/>
		<stop  offset="0.6003" style="stop-color:#A2A5A8"/>
		<stop  offset="0.7312" style="stop-color:#878C8F"/>
		<stop  offset="0.8982" style="stop-color:#60696C"/>
		<stop  offset="1" style="stop-color:#465054"/>
	</radialGradient>
	<rect x="51" y="44.1" class="st28" width="0.8" height="1.9"/>
	<radialGradient id="SVGID_30_" cx="31.5693" cy="53.0757" r="1.2885" gradientUnits="userSpaceOnUse">
		<stop  offset="0" style="stop-color:#E6E3E0"/>
		<stop  offset="0" style="stop-color:#F9F8F7"/>
		<stop  offset="0" style="stop-color:#FFFFFF"/>
		<stop  offset="0.1238" style="stop-color:#ECEDED"/>
		<stop  offset="0.3603" style="stop-color:#C8C9CB"/>
		<stop  offset="0.5225" style="stop-color:#ADAFB1"/>
		<stop  offset="0.6003" style="stop-color:#A2A5A8"/>
		<stop  offset="0.7312" style="stop-color:#878C8F"/>
		<stop  offset="0.8982" style="stop-color:#60696C"/>
		<stop  offset="1" style="stop-color:#465054"/>
	</radialGradient>
	<rect x="30.9" y="51.4" class="st29" width="1.4" height="3.4"/>
	<radialGradient id="SVGID_31_" cx="51.3718" cy="53.873" r="0.7311" gradientUnits="userSpaceOnUse">
		<stop  offset="0" style="stop-color:#E6E3E0"/>
		<stop  offset="0" style="stop-color:#F9F8F7"/>
		<stop  offset="0" style="stop-color:#FFFFFF"/>
		<stop  offset="0.1238" style="stop-color:#ECEDED"/>
		<stop  offset="0.3603" style="stop-color:#C8C9CB"/>
		<stop  offset="0.5225" style="stop-color:#ADAFB1"/>
		<stop  offset="0.6003" style="stop-color:#A2A5A8"/>
		<stop  offset="0.7312" style="stop-color:#878C8F"/>
		<stop  offset="0.8982" style="stop-color:#60696C"/>
		<stop  offset="1" style="stop-color:#465054"/>
	</radialGradient>
	<rect x="51" y="52.9" class="st30" width="0.8" height="1.9"/>
	<radialGradient id="SVGID_32_" cx="51.3718" cy="50.9473" r="0.7311" gradientUnits="userSpaceOnUse">
		<stop  offset="0" style="stop-color:#E6E3E0"/>
		<stop  offset="0" style="stop-color:#F9F8F7"/>
		<stop  offset="0" style="stop-color:#FFFFFF"/>
		<stop  offset="0.1238" style="stop-color:#ECEDED"/>
		<stop  offset="0.3603" style="stop-color:#C8C9CB"/>
		<stop  offset="0.5225" style="stop-color:#ADAFB1"/>
		<stop  offset="0.6003" style="stop-color:#A2A5A8"/>
		<stop  offset="0.7312" style="stop-color:#878C8F"/>
		<stop  offset="0.8982" style="stop-color:#60696C"/>
		<stop  offset="1" style="stop-color:#465054"/>
	</radialGradient>
	<rect x="51" y="50" class="st31" width="0.8" height="1.9"/>
	<radialGradient id="SVGID_33_" cx="51.3718" cy="48.0181" r="0.7295" gradientUnits="userSpaceOnUse">
		<stop  offset="0" style="stop-color:#E6E3E0"/>
		<stop  offset="0" style="stop-color:#F9F8F7"/>
		<stop  offset="0" style="stop-color:#FFFFFF"/>
		<stop  offset="0.1238" style="stop-color:#ECEDED"/>
		<stop  offset="0.3603" style="stop-color:#C8C9CB"/>
		<stop  offset="0.5225" style="stop-color:#ADAFB1"/>
		<stop  offset="0.6003" style="stop-color:#A2A5A8"/>
		<stop  offset="0.7312" style="stop-color:#878C8F"/>
		<stop  offset="0.8982" style="stop-color:#60696C"/>
		<stop  offset="1" style="stop-color:#465054"/>
	</radialGradient>
	<rect x="51" y="47.1" class="st32" width="0.8" height="1.9"/>
	<radialGradient id="SVGID_34_" cx="39.2862" cy="39.2866" r="34.3906" gradientUnits="userSpaceOnUse">
		<stop  offset="0" style="stop-color:#E6E3E0"/>
		<stop  offset="0" style="stop-color:#F9F8F7"/>
		<stop  offset="0" style="stop-color:#FFFFFF"/>
		<stop  offset="0.1238" style="stop-color:#ECEDED"/>
		<stop  offset="0.3603" style="stop-color:#C8C9CB"/>
		<stop  offset="0.5225" style="stop-color:#ADAFB1"/>
		<stop  offset="0.6003" style="stop-color:#A2A5A8"/>
		<stop  offset="0.7312" style="stop-color:#878C8F"/>
		<stop  offset="0.8982" style="stop-color:#60696C"/>
		<stop  offset="1" style="stop-color:#465054"/>
	</radialGradient>
	<path class="st33" d="M39.3,4.9c-19,0-34.4,15.4-34.4,34.4c0,19,15.4,34.4,34.4,34.4s34.4-15.4,34.4-34.4
		C73.7,20.3,58.3,4.9,39.3,4.9z M21.7,61.7h-4.2V25.7l4.2-2.7V61.7z M34.4,61.7h-2h-3.6h-5.7v-1.5h5.7v-1.3h-5.7v-2.2
		c0,0,1.6-0.1,3.4,0c1,0.1,1.7,0.1,2.3,0.2v-1.3c-0.6-0.1-1.5-0.1-2.4-0.2c-1.9-0.1-3.3,0.1-3.3,0.1v-2.3c0,0,2.1,0.1,3.9,0.2
		c0.8,0.1,1.4,0.1,1.8,0.2v-1.2c-0.5-0.1-1.1-0.2-1.9-0.3c-1.9-0.2-3.9-0.3-3.9-0.3v-2.1c0,0,2,0.2,3.9,0.3c0.8,0,1.4,0.1,1.9,0.2
		v-1.3c-0.5-0.1-1.1-0.2-1.9-0.3c-1.9-0.1-3.8-0.3-3.8-0.3v-2.2c0,0,2,0.3,3.9,0.4c0.8,0,1.4,0.2,1.9,0.3v-1.2
		c-0.5-0.2-1.1-0.3-1.9-0.4c-1.9-0.2-3.8-0.5-3.8-0.5v-2.1c0,0,2.1,0.4,3.9,0.5c0.8,0.1,1.4,0.2,1.9,0.4v-1.3
		c-0.5-0.2-1.1-0.3-1.9-0.4c-1.9-0.2-3.8-0.6-3.8-0.6V39c0,0,1.1,0.3,3.8,0.7c0.8,0.1,1.4,0.3,1.9,0.5v-1.3
		c-0.5-0.2-1.1-0.3-1.9-0.5c-1.9-0.2-3.8-0.8-3.8-0.8v-2.1c0,0,1.1,0.5,3.8,0.8c0.8,0.1,1.4,0.3,1.9,0.5v-1.4
		c-0.5-0.2-1.1-0.4-1.9-0.5c-1.9-0.2-3.8-0.9-3.8-0.9v-2.1c0,0,1.2,0.3,3.9,0.8c0.8,0.1,1.4,0.3,1.8,0.6v-1.3
		c-0.5-0.2-1.1-0.4-1.9-0.5c-1.9-0.3-3.8-0.9-3.8-0.9v-2.3c0,0,1.2,0.6,4,1c0.7,0.1,1.3,0.3,1.8,0.6v-1.2c-0.5-0.2-1.1-0.4-1.9-0.6
		C25,27.9,23.1,27,23.1,27v-4c1,1.6,2.4,2.5,5,3.1c0.3,0.1,0.5,0.1,0.8,0.2V13.6l5.6-3.6V61.7z M48.6,61.7H36.2v-2.1H46v-1.8h-9.7
		v-2.9c0,0,2.2-0.1,4.6,0.1c5.1,0.3,5.1,0.5,5.1,0.5c0-0.8,0-1.4-0.4-1.6c-0.7-0.4-2.4-0.5-4.9-0.7c-2.6-0.1-4.4,0.1-4.4,0.1v-3.1
		c0,0,2.8,0.1,5.2,0.2c4.5,0.3,4.5,1.1,4.5,1.1c0-1.7,0.1-2.3-4.6-2.8c-2.5-0.3-5.2-0.4-5.2-0.4v-2.8c0,0,2.7,0.2,5.2,0.3
		c4.6,0.2,4.6,1.7,4.6,1.7c0-1.7,0-3.2-4.6-3.5c-2.6-0.2-5.1-0.4-5.1-0.4v-2.9c0,0,2.7,0.4,5.2,0.6c4.6,0.3,4.6,2.1,4.6,2.1
		c0-1.6,0-3.5-4.6-3.9c-2.6-0.2-5.1-0.6-5.1-0.6v-2.9c0,0,2.7,0.5,5.2,0.7c4.6,0.4,4.6,2.7,4.6,2.7c0-2.1,0-4-4.6-4.5
		c-2.5-0.3-5.1-0.8-5.1-0.8v-2.9c0,0,1.5,0.4,5.1,0.9c4.6,0.6,4.6,3.2,4.6,3.2c0-2.6,0-4.3-4.6-4.9c-2.5-0.3-5.1-1.1-5.1-1.1v-2.8
		c0,0,1.5,0.7,5.1,1.1c4.6,0.5,4.6,3.4,4.6,3.4c0-2.3,0-4.6-4.6-5.2c-2.5-0.3-5.1-1.1-5.1-1.1V22c0,0,1.6,0.5,5.2,1.1
		c4.5,0.8,4.5,3.8,4.5,3.8c0-2.6,0-4.7-4.6-5.4c-2.5-0.4-5.1-1.3-5.1-1.3v-3c0,0,1.6,0.8,5.3,1.3c4.4,0.6,4.4,3.9,4.4,3.9
		c0-2.6,0-4.9-4.6-5.6c-2.5-0.4-5.1-1.5-5.1-1.5V10c1.3,2.2,3.2,3.4,6.6,4.2c3.4,0.8,5.8,3.2,5.8,6.2C48.6,23.4,48.6,61.7,48.6,61.7
		z M53,61.7h-3.2V34.4l3.2-2V61.7z M61,61.7h-7v-1.2h5.5v-1H54v-1.6c0,0,1.2-0.1,2.6,0c2.9,0.2,2.9,0.3,2.9,0.3c0-0.5,0-0.8-0.2-0.9
		c-0.4-0.2-1.4-0.3-2.8-0.4C55,56.8,54,56.9,54,56.9v-1.7c0,0,1.6,0,2.9,0.1c2.6,0.2,2.6,0.6,2.6,0.6c0-1,0-1.3-2.6-1.6
		c-1.4-0.2-2.9-0.2-2.9-0.2v-1.6c0,0,1.6,0.1,2.9,0.2c2.6,0.1,2.6,1,2.6,1c0-1,0-1.8-2.6-2c-1.5-0.1-2.9-0.2-2.9-0.2v-1.6
		c0,0,1.6,0.2,2.9,0.3c2.6,0.1,2.6,1.2,2.6,1.2c0-0.9,0-2-2.6-2.2C55.5,49,54,48.8,54,48.8v-1.6c0,0,1.6,0.3,2.9,0.4
		c2.6,0.2,2.6,1.5,2.6,1.5c0-1.2,0-2.3-2.6-2.6c-1.4-0.2-2.9-0.5-2.9-0.5v-1.7c0,0,0.8,0.2,2.9,0.5c2.6,0.4,2.6,1.8,2.6,1.8
		c0-1.5,0-2.4-2.6-2.8c-1.4-0.2-2.9-0.6-2.9-0.6v-1.6c0,0,0.8,0.4,2.9,0.6c2.6,0.3,2.6,1.9,2.6,1.9c0-1.3,0-2.6-2.6-3
		c-1.4-0.2-2.9-0.6-2.9-0.6v-1.6c0,0,0.9,0.3,3,0.6c2.6,0.4,2.6,2.1,2.6,2.1c0-1.5,0-2.7-2.6-3.1c-1.4-0.2-2.9-0.7-2.9-0.7v-1.7
		c0,0,0.9,0.4,3,0.7c2.5,0.3,2.5,2.2,2.5,2.2c0-1.5,0-2.8-2.6-3.2C55.5,36,54,35.4,54,35.4v-3c0.7,1.2,1.8,1.9,3.8,2.4
		c1.9,0.5,3.3,1.8,3.3,3.5C61,40,61,61.7,61,61.7z"/>
	<radialGradient id="SVGID_35_" cx="51.3718" cy="59.7275" r="0.7305" gradientUnits="userSpaceOnUse">
		<stop  offset="0" style="stop-color:#E6E3E0"/>
		<stop  offset="0" style="stop-color:#F9F8F7"/>
		<stop  offset="0" style="stop-color:#FFFFFF"/>
		<stop  offset="0.1238" style="stop-color:#ECEDED"/>
		<stop  offset="0.3603" style="stop-color:#C8C9CB"/>
		<stop  offset="0.5225" style="stop-color:#ADAFB1"/>
		<stop  offset="0.6003" style="stop-color:#A2A5A8"/>
		<stop  offset="0.7312" style="stop-color:#878C8F"/>
		<stop  offset="0.8982" style="stop-color:#60696C"/>
		<stop  offset="1" style="stop-color:#465054"/>
	</radialGradient>
	<rect x="51" y="58.8" class="st34" width="0.8" height="1.9"/>
	<radialGradient id="SVGID_36_" cx="51.3718" cy="56.8003" r="0.7301" gradientUnits="userSpaceOnUse">
		<stop  offset="0" style="stop-color:#E6E3E0"/>
		<stop  offset="0" style="stop-color:#F9F8F7"/>
		<stop  offset="0" style="stop-color:#FFFFFF"/>
		<stop  offset="0.1238" style="stop-color:#ECEDED"/>
		<stop  offset="0.3603" style="stop-color:#C8C9CB"/>
		<stop  offset="0.5225" style="stop-color:#ADAFB1"/>
		<stop  offset="0.6003" style="stop-color:#A2A5A8"/>
		<stop  offset="0.7312" style="stop-color:#878C8F"/>
		<stop  offset="0.8982" style="stop-color:#60696C"/>
		<stop  offset="1" style="stop-color:#465054"/>
	</radialGradient>
	<rect x="51" y="55.8" class="st35" width="0.8" height="1.9"/>
	<radialGradient id="SVGID_37_" cx="31.5693" cy="58.2407" r="1.2892" gradientUnits="userSpaceOnUse">
		<stop  offset="0" style="stop-color:#E6E3E0"/>
		<stop  offset="0" style="stop-color:#F9F8F7"/>
		<stop  offset="0" style="stop-color:#FFFFFF"/>
		<stop  offset="0.1238" style="stop-color:#ECEDED"/>
		<stop  offset="0.3603" style="stop-color:#C8C9CB"/>
		<stop  offset="0.5225" style="stop-color:#ADAFB1"/>
		<stop  offset="0.6003" style="stop-color:#A2A5A8"/>
		<stop  offset="0.7312" style="stop-color:#878C8F"/>
		<stop  offset="0.8982" style="stop-color:#60696C"/>
		<stop  offset="1" style="stop-color:#465054"/>
	</radialGradient>
	<rect x="30.9" y="56.6" class="st36" width="1.4" height="3.4"/>
	<radialGradient id="SVGID_38_" cx="51.3718" cy="36.3101" r="0.7302" gradientUnits="userSpaceOnUse">
		<stop  offset="0" style="stop-color:#E6E3E0"/>
		<stop  offset="0" style="stop-color:#F9F8F7"/>
		<stop  offset="0" style="stop-color:#FFFFFF"/>
		<stop  offset="0.1238" style="stop-color:#ECEDED"/>
		<stop  offset="0.3603" style="stop-color:#C8C9CB"/>
		<stop  offset="0.5225" style="stop-color:#ADAFB1"/>
		<stop  offset="0.6003" style="stop-color:#A2A5A8"/>
		<stop  offset="0.7312" style="stop-color:#878C8F"/>
		<stop  offset="0.8982" style="stop-color:#60696C"/>
		<stop  offset="1" style="stop-color:#465054"/>
	</radialGradient>
	<polygon class="st37" points="51.8,35.4 51,35.9 51,37.3 51.8,37.3 	"/>
	<radialGradient id="SVGID_39_" cx="51.3718" cy="42.165" r="0.7305" gradientUnits="userSpaceOnUse">
		<stop  offset="0" style="stop-color:#E6E3E0"/>
		<stop  offset="0" style="stop-color:#F9F8F7"/>
		<stop  offset="0" style="stop-color:#FFFFFF"/>
		<stop  offset="0.1238" style="stop-color:#ECEDED"/>
		<stop  offset="0.3603" style="stop-color:#C8C9CB"/>
		<stop  offset="0.5225" style="stop-color:#ADAFB1"/>
		<stop  offset="0.6003" style="stop-color:#A2A5A8"/>
		<stop  offset="0.7312" style="stop-color:#878C8F"/>
		<stop  offset="0.8982" style="stop-color:#60696C"/>
		<stop  offset="1" style="stop-color:#465054"/>
	</radialGradient>
	<rect x="51" y="41.2" class="st38" width="0.8" height="1.9"/>
	<radialGradient id="SVGID_40_" cx="51.3718" cy="39.2378" r="0.7308" gradientUnits="userSpaceOnUse">
		<stop  offset="0" style="stop-color:#E6E3E0"/>
		<stop  offset="0" style="stop-color:#F9F8F7"/>
		<stop  offset="0" style="stop-color:#FFFFFF"/>
		<stop  offset="0.1238" style="stop-color:#ECEDED"/>
		<stop  offset="0.3603" style="stop-color:#C8C9CB"/>
		<stop  offset="0.5225" style="stop-color:#ADAFB1"/>
		<stop  offset="0.6003" style="stop-color:#A2A5A8"/>
		<stop  offset="0.7312" style="stop-color:#878C8F"/>
		<stop  offset="0.8982" style="stop-color:#60696C"/>
		<stop  offset="1" style="stop-color:#465054"/>
	</radialGradient>
	<rect x="51" y="38.3" class="st39" width="0.8" height="1.9"/>
	<radialGradient id="SVGID_41_" cx="39.2861" cy="39.2851" r="39.2856" gradientUnits="userSpaceOnUse">
		<stop  offset="0" style="stop-color:#E6E3E0"/>
		<stop  offset="0" style="stop-color:#F9F8F7"/>
		<stop  offset="0" style="stop-color:#FFFFFF"/>
		<stop  offset="0.1238" style="stop-color:#ECEDED"/>
		<stop  offset="0.3603" style="stop-color:#C8C9CB"/>
		<stop  offset="0.5225" style="stop-color:#ADAFB1"/>
		<stop  offset="0.6003" style="stop-color:#A2A5A8"/>
		<stop  offset="0.7312" style="stop-color:#878C8F"/>
		<stop  offset="0.8982" style="stop-color:#60696C"/>
		<stop  offset="1" style="stop-color:#465054"/>
	</radialGradient>
	<path class="st40" d="M39.3,0C17.6,0,0,17.6,0,39.3c0,21.7,17.6,39.3,39.3,39.3c21.7,0,39.3-17.6,39.3-39.3
		C78.6,17.6,60.9,0,39.3,0z M39.3,75.9c-20.2,0-36.6-16.4-36.6-36.6c0-20.2,16.4-36.6,36.6-36.6c20.2,0,36.6,16.4,36.6,36.6
		C75.9,59.5,59.5,75.9,39.3,75.9z"/>
</g>
<g>
	<radialGradient id="SVGID_42_" cx="86.1526" cy="36.916" r="175.9924" gradientUnits="userSpaceOnUse">
		<stop  offset="0" style="stop-color:#E6E3E0"/>
		<stop  offset="0" style="stop-color:#F9F8F7"/>
		<stop  offset="0" style="stop-color:#FFFFFF"/>
		<stop  offset="0.1238" style="stop-color:#ECEDED"/>
		<stop  offset="0.3603" style="stop-color:#C8C9CB"/>
		<stop  offset="0.5225" style="stop-color:#ADAFB1"/>
		<stop  offset="0.6003" style="stop-color:#A2A5A8"/>
		<stop  offset="0.7312" style="stop-color:#878C8F"/>
		<stop  offset="0.8982" style="stop-color:#60696C"/>
		<stop  offset="1" style="stop-color:#465054"/>
	</radialGradient>
	<path class="st41" d="M123.6,32.3c0,2.5-0.4,4.8-1.3,7c-0.9,2.2-2.1,4-3.7,5.6c-1.6,1.6-3.5,2.8-5.6,3.7c-2.1,0.9-4.5,1.3-7,1.3
		c-2.5,0-4.9-0.4-7-1.3c-2.1-0.9-4-2.1-5.6-3.7c-1.6-1.6-2.8-3.4-3.7-5.6c-0.9-2.2-1.3-4.5-1.3-7c0-2.5,0.4-4.8,1.3-7
		c0.9-2.1,2.1-4,3.7-5.6c1.6-1.6,3.5-2.8,5.6-3.7c2.1-0.9,4.5-1.3,7-1.3c2.5,0,4.9,0.4,7,1.3c2.1,0.9,4,2.1,5.6,3.7
		c1.6,1.6,2.8,3.5,3.7,5.6C123.1,27.5,123.6,29.8,123.6,32.3z M119.6,32.3c0-2-0.4-3.8-1-5.5c-0.7-1.7-1.7-3.2-2.9-4.4
		c-1.2-1.2-2.7-2.2-4.3-2.9c-1.7-0.7-3.5-1.1-5.4-1.1c-2,0-3.8,0.4-5.4,1.1c-1.7,0.7-3.1,1.7-4.3,2.9c-1.2,1.2-2.2,2.7-2.9,4.4
		c-0.7,1.7-1.1,3.5-1.1,5.5c0,2,0.4,3.8,1.1,5.5c0.7,1.7,1.7,3.1,2.9,4.3c1.2,1.2,2.6,2.2,4.3,2.9c1.7,0.7,3.5,1,5.4,1
		c2,0,3.8-0.4,5.4-1c1.7-0.7,3.1-1.7,4.3-2.9c1.2-1.2,2.2-2.7,2.9-4.3C119.2,36.1,119.6,34.3,119.6,32.3z"/>
	<radialGradient id="SVGID_43_" cx="86.1529" cy="36.916" r="175.9918" gradientUnits="userSpaceOnUse">
		<stop  offset="0" style="stop-color:#E6E3E0"/>
		<stop  offset="0" style="stop-color:#F9F8F7"/>
		<stop  offset="0" style="stop-color:#FFFFFF"/>
		<stop  offset="0.1238" style="stop-color:#ECEDED"/>
		<stop  offset="0.3603" style="stop-color:#C8C9CB"/>
		<stop  offset="0.5225" style="stop-color:#ADAFB1"/>
		<stop  offset="0.6003" style="stop-color:#A2A5A8"/>
		<stop  offset="0.7312" style="stop-color:#878C8F"/>
		<stop  offset="0.8982" style="stop-color:#60696C"/>
		<stop  offset="1" style="stop-color:#465054"/>
	</radialGradient>
	<path class="st42" d="M167.5,49.2V31.4c0-2.5-0.3-4.6-0.9-6.3c-0.6-1.6-1.5-2.9-2.5-3.9c-0.7-0.6-1.7-1.2-3-1.8
		c-1.3-0.6-3-0.9-5.1-0.9l-11.5,0.1v30.5h-4l-0.1-34.5h15.4c0.6,0,1.3,0,2.1,0.1c0.8,0.1,1.7,0.2,2.6,0.4c0.9,0.2,1.9,0.6,2.9,1
		c1,0.4,2,1.1,3.1,1.9c3.4,2.8,5,7.3,5,13.3v17.8H167.5z"/>
	<radialGradient id="SVGID_44_" cx="86.1526" cy="36.916" r="175.9918" gradientUnits="userSpaceOnUse">
		<stop  offset="0" style="stop-color:#E6E3E0"/>
		<stop  offset="0" style="stop-color:#F9F8F7"/>
		<stop  offset="0" style="stop-color:#FFFFFF"/>
		<stop  offset="0.1238" style="stop-color:#ECEDED"/>
		<stop  offset="0.3603" style="stop-color:#C8C9CB"/>
		<stop  offset="0.5225" style="stop-color:#ADAFB1"/>
		<stop  offset="0.6003" style="stop-color:#A2A5A8"/>
		<stop  offset="0.7312" style="stop-color:#878C8F"/>
		<stop  offset="0.8982" style="stop-color:#60696C"/>
		<stop  offset="1" style="stop-color:#465054"/>
	</radialGradient>
	<path class="st43" d="M186.8,49.2v-3l18.5-26.9h-18.5v-3.9h24.1v3.1l-18.5,26.8h18.3v3.9H186.8z"/>
	<radialGradient id="SVGID_45_" cx="86.1527" cy="36.916" r="175.9914" gradientUnits="userSpaceOnUse">
		<stop  offset="0" style="stop-color:#E6E3E0"/>
		<stop  offset="0" style="stop-color:#F9F8F7"/>
		<stop  offset="0" style="stop-color:#FFFFFF"/>
		<stop  offset="0.1238" style="stop-color:#ECEDED"/>
		<stop  offset="0.3603" style="stop-color:#C8C9CB"/>
		<stop  offset="0.5225" style="stop-color:#ADAFB1"/>
		<stop  offset="0.6003" style="stop-color:#A2A5A8"/>
		<stop  offset="0.7312" style="stop-color:#878C8F"/>
		<stop  offset="0.8982" style="stop-color:#60696C"/>
		<stop  offset="1" style="stop-color:#465054"/>
	</radialGradient>
	<path class="st44" d="M257.3,49.2l-0.1-5.1c-1.6,1.9-3.5,3.4-5.8,4.4c-2.3,1-4.8,1.5-7.6,1.5c-2.8,0-5.2-0.5-7.4-1.5
		c-2.2-1-4-2.3-5.6-3.9c-1.5-1.6-2.7-3.5-3.5-5.6c-0.8-2.1-1.2-4.3-1.2-6.6c0-2.3,0.4-4.6,1.2-6.7c0.8-2.1,2-4,3.5-5.6
		c1.5-1.6,3.4-2.9,5.6-3.9c2.2-1,4.6-1.5,7.4-1.5h17.5v34.5H257.3z M243.9,18.6c-1.9,0-3.6,0.3-5.3,1c-1.7,0.7-3.1,1.6-4.4,2.8
		c-1.2,1.2-2.2,2.7-2.9,4.3c-0.7,1.7-1.1,3.5-1.1,5.6c0,1.6,0.3,3.2,0.9,4.9c0.6,1.6,1.4,3.1,2.6,4.4c1.1,1.3,2.6,2.4,4.3,3.2
		c1.7,0.8,3.8,1.2,6.1,1.2c2,0,3.9-0.4,5.5-1.1c1.6-0.7,3-1.7,4.2-3c1.1-1.1,2.1-2.6,2.7-4.3c0.6-1.5,0.8-6.7,0.8-15.5v-3.6H243.9z"
		/>
</g>
</svg>
